<?xml version="1.0" encoding="UTF-8" standalone="no"?><svg xmlns="http://www.w3.org/2000/svg" xmlns:xlink="http://www.w3.org/1999/xlink" contentScriptType="application/ecmascript" contentStyleType="text/css" height="233px" preserveAspectRatio="none" style="width:311px;height:233px;" version="1.1" viewBox="0 0 311 233" width="311px" zoomAndPan="magnify"><defs><filter height="300%" id="f1sytqi8nty9ps" width="300%" x="-1" y="-1"><feGaussianBlur result="blurOut" stdDeviation="2.0"/><feColorMatrix in="blurOut" result="blurOut2" type="matrix" values="0 0 0 0 0 0 0 0 0 0 0 0 0 0 0 0 0 0 .4 0"/><feOffset dx="4.0" dy="4.0" in="blurOut2" result="blurOut3"/><feBlend in="SourceGraphic" in2="blurOut3" mode="normal"/></filter></defs><g><!--MD5=[8338030e9b45d7dfa8fd16d04734cb44]
class nz.ac.vuw.ecs.swen225.gp20.maze.tiles.DoorTile--><a href="DoorTile.html" target="_top" title="DoorTile.html" xlink:actuate="onRequest" xlink:href="DoorTile.html" xlink:show="new" xlink:title="DoorTile.html" xlink:type="simple"><rect codeLine="5" fill="#FEFECE" filter="url(#f1sytqi8nty9ps)" height="89.6953" id="nz.ac.vuw.ecs.swen225.gp20.maze.tiles.DoorTile" style="stroke: #A80036; stroke-width: 1.5;" width="285" x="7" y="107"/><ellipse cx="51.25" cy="127.0938" fill="#ADD1B2" rx="11" ry="11" style="stroke: #A80036; stroke-width: 1.0;"/><path d="M54.0156,122.9688 Q54.1719,122.75 54.3594,122.6406 Q54.5469,122.5313 54.7656,122.5313 Q55.1406,122.5313 55.375,122.7969 Q55.6094,123.0469 55.6094,123.6563 L55.6094,125.1094 Q55.6094,125.7188 55.375,125.9844 Q55.1406,126.25 54.7656,126.25 Q54.4219,126.25 54.2188,126.0469 Q54.0156,125.8594 53.9063,125.3438 Q53.8594,124.9844 53.6719,124.7969 Q53.3438,124.4219 52.7344,124.2031 Q52.125,123.9844 51.5,123.9844 Q50.7344,123.9844 50.0938,124.3125 Q49.4688,124.6406 48.9688,125.3906 Q48.4844,126.1406 48.4844,127.1719 L48.4844,128.2656 Q48.4844,129.5 49.375,130.3281 Q50.2656,131.1406 51.8594,131.1406 Q52.7969,131.1406 53.4531,130.8906 Q53.8438,130.7344 54.2656,130.2969 Q54.5313,130.0313 54.6719,129.9531 Q54.8281,129.875 55.0313,129.875 Q55.3594,129.875 55.6094,130.1406 Q55.875,130.3906 55.875,130.7344 Q55.875,131.0781 55.5313,131.4844 Q55.0313,132.0625 54.2344,132.3906 Q53.1563,132.8438 51.8594,132.8438 Q50.3438,132.8438 49.1406,132.2188 Q48.1563,131.7188 47.4688,130.6563 Q46.7813,129.5781 46.7813,128.2969 L46.7813,127.1406 Q46.7813,125.8125 47.3906,124.6719 Q48.0156,123.5156 49.1094,122.9063 Q50.2031,122.2813 51.4375,122.2813 Q52.1719,122.2813 52.8125,122.4531 Q53.4688,122.6094 54.0156,122.9688 Z "/><text fill="#000000" font-family="sans-serif" font-size="14" lengthAdjust="spacingAndGlyphs" textLength="54" x="138.75" y="126.5332">DoorTile</text><text fill="#000000" font-family="sans-serif" font-size="10" lengthAdjust="spacingAndGlyphs" textLength="188" x="71.75" y="139.9902">nz.ac.vuw.ecs.swen225.gp20.maze.tiles</text><line style="stroke: #A80036; stroke-width: 1.5;" x1="8" x2="291" y1="147.1875" y2="147.1875"/><ellipse cx="18" cy="158.1875" fill="#84BE84" rx="3" ry="3" style="stroke: #038048; stroke-width: 1.0;"/><text fill="#000000" font-family="sans-serif" font-size="11" lengthAdjust="spacingAndGlyphs" textLength="78" x="27" y="162.6064">DoorTile(Colour)</text><ellipse cx="18" cy="172.0234" fill="#84BE84" rx="3" ry="3" style="stroke: #038048; stroke-width: 1.0;"/><text fill="#000000" font-family="sans-serif" font-size="11" lengthAdjust="spacingAndGlyphs" textLength="114" x="27" y="176.4424">getDoorColour(): Colour</text><ellipse cx="18" cy="185.8594" fill="#84BE84" rx="3" ry="3" style="stroke: #038048; stroke-width: 1.0;"/><text fill="#000000" font-family="sans-serif" font-size="11" lengthAdjust="spacingAndGlyphs" textLength="259" x="27" y="190.2783">inMove(Maze, Point, boolean, Entity, Direction): Moves</text></a><!--MD5=[dc8be04f64ec603abc5f7e197265a11d]
class nz.ac.vuw.ecs.swen225.gp20.maze.tiles.InaccessibleTile--><a href="InaccessibleTile.html" target="_top" title="InaccessibleTile.html" xlink:actuate="onRequest" xlink:href="InaccessibleTile.html" xlink:show="new" xlink:title="InaccessibleTile.html" xlink:type="simple"><rect codeLine="11" fill="#FEFECE" filter="url(#f1sytqi8nty9ps)" height="40.1875" id="nz.ac.vuw.ecs.swen225.gp20.maze.tiles.InaccessibleTile" style="stroke: #A80036; stroke-width: 1.5;" width="221" x="39" y="7"/><ellipse cx="54" cy="27.0938" fill="#A9DCDF" rx="11" ry="11" style="stroke: #A80036; stroke-width: 1.0;"/><path d="M56.1875,28.8594 L52.0469,28.8594 L51.625,29.8906 L52.0469,29.8906 Q52.6563,29.8906 52.9219,30.125 Q53.1875,30.3594 53.1875,30.75 Q53.1875,31.125 52.9219,31.3594 Q52.6563,31.5938 52.0469,31.5938 L49.75,31.5938 Q49.1406,31.5938 48.8906,31.3594 Q48.625,31.125 48.625,30.7344 Q48.625,30.3594 48.9063,30.125 Q49.1719,29.875 49.7969,29.8906 L52.4688,23.2344 L51.3594,23.2344 Q50.75,23.2344 50.4844,23 Q50.2188,22.7656 50.2188,22.375 Q50.2188,22 50.4844,21.7656 Q50.75,21.5313 51.3594,21.5313 L55.0313,21.5313 L58.4219,29.8906 Q59.0156,29.8906 59.2031,30.0313 Q59.5938,30.2969 59.5938,30.75 Q59.5938,31.125 59.3281,31.3594 Q59.0781,31.5938 58.4688,31.5938 L56.1719,31.5938 Q55.5625,31.5938 55.2969,31.3594 Q55.0313,31.125 55.0313,30.7344 Q55.0313,30.3594 55.2969,30.125 Q55.5625,29.8906 56.1719,29.8906 L56.5938,29.8906 L56.1875,28.8594 Z M55.4688,27.1563 L54.1094,23.7813 L52.7344,27.1563 L55.4688,27.1563 Z "/><text fill="#000000" font-family="sans-serif" font-size="14" font-style="italic" lengthAdjust="spacingAndGlyphs" textLength="101" x="112" y="26.5332">InaccessibleTile</text><text fill="#000000" font-family="sans-serif" font-size="10" font-style="italic" lengthAdjust="spacingAndGlyphs" textLength="189" x="68" y="39.9902">nz.ac.vuw.ecs.swen225.gp20.maze.tiles</text></a><!--MD5=[dd3f9f2bfbebfb0ea8f65c3ca7723ce4]
reverse link nz.ac.vuw.ecs.swen225.gp20.maze.tiles.InaccessibleTile to nz.ac.vuw.ecs.swen225.gp20.maze.tiles.DoorTile--><path codeLine="13" d="M149.5,67.25 C149.5,79.89 149.5,93.98 149.5,106.94 " fill="none" id="nz.ac.vuw.ecs.swen225.gp20.maze.tiles.InaccessibleTile-backto-nz.ac.vuw.ecs.swen225.gp20.maze.tiles.DoorTile" style="stroke: #A80036; stroke-width: 1.0;"/><polygon fill="none" points="142.5,67.22,149.5,47.22,156.5,67.22,142.5,67.22" style="stroke: #A80036; stroke-width: 1.0;"/><text fill="#888888" font-family="sans-serif" font-size="10" lengthAdjust="spacingAndGlyphs" textLength="190" x="51.5" y="220.0762">UMLDoclet 2.0.12, PlantUML 1.2020.16</text><!--MD5=[25d74aad1345c25114e03b11707a2b5b]
@startuml
    set namespaceSeparator none
    hide empty fields
    hide empty methods

    class "<size:14>DoorTile\n<size:10>nz.ac.vuw.ecs.swen225.gp20.maze.tiles" as nz.ac.vuw.ecs.swen225.gp20.maze.tiles.DoorTile [[DoorTile.html]] {
        +DoorTile(Colour)
        +getDoorColour(): Colour
        +inMove(Maze, Point, boolean, Entity, Direction): Moves
    }

    abstract class "<size:14>InaccessibleTile\n<size:10>nz.ac.vuw.ecs.swen225.gp20.maze.tiles" as nz.ac.vuw.ecs.swen225.gp20.maze.tiles.InaccessibleTile [[InaccessibleTile.html]]

    nz.ac.vuw.ecs.swen225.gp20.maze.tiles.InaccessibleTile <|- - nz.ac.vuw.ecs.swen225.gp20.maze.tiles.DoorTile

    center footer UMLDoclet 2.0.12, PlantUML 1.2020.16
@enduml

PlantUML version 1.2020.16(Mon Aug 24 08:20:43 NZST 2020)
(APACHE source distribution)
Java Runtime: OpenJDK Runtime Environment
JVM: OpenJDK 64-Bit Server VM
Default Encoding: Cp1252
Language: en
Country: US
--></g></svg>