<?xml version="1.0" encoding="UTF-8" standalone="no"?><svg xmlns="http://www.w3.org/2000/svg" xmlns:xlink="http://www.w3.org/1999/xlink" contentScriptType="application/ecmascript" contentStyleType="text/css" height="255px" preserveAspectRatio="none" style="width:321px;height:255px;" version="1.1" viewBox="0 0 321 255" width="321px" zoomAndPan="magnify"><defs><filter height="300%" id="f3lcj9rbebdax" width="300%" x="-1" y="-1"><feGaussianBlur result="blurOut" stdDeviation="2.0"/><feColorMatrix in="blurOut" result="blurOut2" type="matrix" values="0 0 0 0 0 0 0 0 0 0 0 0 0 0 0 0 0 0 .4 0"/><feOffset dx="4.0" dy="4.0" in="blurOut2" result="blurOut3"/><feBlend in="SourceGraphic" in2="blurOut3" mode="normal"/></filter></defs><g><!--MD5=[dc8be04f64ec603abc5f7e197265a11d]
class nz.ac.vuw.ecs.swen225.gp20.maze.tiles.InaccessibleTile--><a href="InaccessibleTile.html" target="_top" title="InaccessibleTile.html" xlink:actuate="onRequest" xlink:href="InaccessibleTile.html" xlink:show="new" xlink:title="InaccessibleTile.html" xlink:type="simple"><rect codeLine="5" fill="#FEFECE" filter="url(#f3lcj9rbebdax)" height="75.8594" id="nz.ac.vuw.ecs.swen225.gp20.maze.tiles.InaccessibleTile" style="stroke: #A80036; stroke-width: 1.5;" width="285" x="12" y="143"/><ellipse cx="55.8" cy="163.0938" fill="#A9DCDF" rx="11" ry="11" style="stroke: #A80036; stroke-width: 1.0;"/><path d="M57.9875,164.8594 L53.8469,164.8594 L53.425,165.8906 L53.8469,165.8906 Q54.4563,165.8906 54.7219,166.125 Q54.9875,166.3594 54.9875,166.75 Q54.9875,167.125 54.7219,167.3594 Q54.4563,167.5938 53.8469,167.5938 L51.55,167.5938 Q50.9406,167.5938 50.6906,167.3594 Q50.425,167.125 50.425,166.7344 Q50.425,166.3594 50.7063,166.125 Q50.9719,165.875 51.5969,165.8906 L54.2688,159.2344 L53.1594,159.2344 Q52.55,159.2344 52.2844,159 Q52.0188,158.7656 52.0188,158.375 Q52.0188,158 52.2844,157.7656 Q52.55,157.5313 53.1594,157.5313 L56.8313,157.5313 L60.2219,165.8906 Q60.8156,165.8906 61.0031,166.0313 Q61.3938,166.2969 61.3938,166.75 Q61.3938,167.125 61.1281,167.3594 Q60.8781,167.5938 60.2688,167.5938 L57.9719,167.5938 Q57.3625,167.5938 57.0969,167.3594 Q56.8313,167.125 56.8313,166.7344 Q56.8313,166.3594 57.0969,166.125 Q57.3625,165.8906 57.9719,165.8906 L58.3938,165.8906 L57.9875,164.8594 Z M57.2688,163.1563 L55.9094,159.7813 L54.5344,163.1563 L57.2688,163.1563 Z "/><text fill="#000000" font-family="sans-serif" font-size="14" font-style="italic" lengthAdjust="spacingAndGlyphs" textLength="101" x="120.2" y="162.5332">InaccessibleTile</text><text fill="#000000" font-family="sans-serif" font-size="10" font-style="italic" lengthAdjust="spacingAndGlyphs" textLength="189" x="76.2" y="175.9902">nz.ac.vuw.ecs.swen225.gp20.maze.tiles</text><line style="stroke: #A80036; stroke-width: 1.5;" x1="13" x2="296" y1="183.1875" y2="183.1875"/><ellipse cx="23" cy="194.1875" fill="#84BE84" rx="3" ry="3" style="stroke: #038048; stroke-width: 1.0;"/><text fill="#000000" font-family="sans-serif" font-size="11" lengthAdjust="spacingAndGlyphs" textLength="114" x="32" y="198.6064">isAccessible(): boolean</text><ellipse cx="23" cy="208.0234" fill="#84BE84" rx="3" ry="3" style="stroke: #038048; stroke-width: 1.0;"/><text fill="#000000" font-family="sans-serif" font-size="11" lengthAdjust="spacingAndGlyphs" textLength="259" x="32" y="212.4424">inMove(Maze, Point, boolean, Entity, Direction): Moves</text></a><!--MD5=[519247a97ef5ccd8f4b98f2f0091eec4]
class nz.ac.vuw.ecs.swen225.gp20.maze.tiles.Tile--><a href="Tile.html" target="_top" title="Tile.html" xlink:actuate="onRequest" xlink:href="Tile.html" xlink:show="new" xlink:title="Tile.html" xlink:type="simple"><rect codeLine="10" fill="#FEFECE" filter="url(#f3lcj9rbebdax)" height="75.8594" id="nz.ac.vuw.ecs.swen225.gp20.maze.tiles.Tile" style="stroke: #A80036; stroke-width: 1.5;" width="295" x="7" y="7"/><ellipse cx="55.75" cy="27.0938" fill="#A9DCDF" rx="11" ry="11" style="stroke: #A80036; stroke-width: 1.0;"/><path d="M57.9375,28.8594 L53.7969,28.8594 L53.375,29.8906 L53.7969,29.8906 Q54.4063,29.8906 54.6719,30.125 Q54.9375,30.3594 54.9375,30.75 Q54.9375,31.125 54.6719,31.3594 Q54.4063,31.5938 53.7969,31.5938 L51.5,31.5938 Q50.8906,31.5938 50.6406,31.3594 Q50.375,31.125 50.375,30.7344 Q50.375,30.3594 50.6563,30.125 Q50.9219,29.875 51.5469,29.8906 L54.2188,23.2344 L53.1094,23.2344 Q52.5,23.2344 52.2344,23 Q51.9688,22.7656 51.9688,22.375 Q51.9688,22 52.2344,21.7656 Q52.5,21.5313 53.1094,21.5313 L56.7813,21.5313 L60.1719,29.8906 Q60.7656,29.8906 60.9531,30.0313 Q61.3438,30.2969 61.3438,30.75 Q61.3438,31.125 61.0781,31.3594 Q60.8281,31.5938 60.2188,31.5938 L57.9219,31.5938 Q57.3125,31.5938 57.0469,31.3594 Q56.7813,31.125 56.7813,30.7344 Q56.7813,30.3594 57.0469,30.125 Q57.3125,29.8906 57.9219,29.8906 L58.3438,29.8906 L57.9375,28.8594 Z M57.2188,27.1563 L55.8594,23.7813 L54.4844,27.1563 L57.2188,27.1563 Z "/><text fill="#000000" font-family="sans-serif" font-size="14" font-style="italic" lengthAdjust="spacingAndGlyphs" textLength="23" x="159.25" y="26.5332">Tile</text><text fill="#000000" font-family="sans-serif" font-size="10" font-style="italic" lengthAdjust="spacingAndGlyphs" textLength="189" x="76.25" y="39.9902">nz.ac.vuw.ecs.swen225.gp20.maze.tiles</text><line style="stroke: #A80036; stroke-width: 1.5;" x1="8" x2="301" y1="47.1875" y2="47.1875"/><ellipse cx="18" cy="58.1875" fill="#84BE84" rx="3" ry="3" style="stroke: #038048; stroke-width: 1.0;"/><text fill="#000000" font-family="sans-serif" font-size="11" font-style="italic" lengthAdjust="spacingAndGlyphs" textLength="119" x="27" y="62.6064">isAccessible(): boolean</text><ellipse cx="18" cy="72.0234" fill="#84BE84" rx="3" ry="3" style="stroke: #038048; stroke-width: 1.0;"/><text fill="#000000" font-family="sans-serif" font-size="11" font-style="italic" lengthAdjust="spacingAndGlyphs" textLength="269" x="27" y="76.4424">inMove(Maze, Point, boolean, Entity, Direction): Moves</text></a><!--MD5=[d026a4120bf5dd01ff5a05ae09859bff]
reverse link nz.ac.vuw.ecs.swen225.gp20.maze.tiles.Tile to nz.ac.vuw.ecs.swen225.gp20.maze.tiles.InaccessibleTile--><path codeLine="15" d="M154.5,103.54 C154.5,116.86 154.5,130.69 154.5,142.87 " fill="none" id="nz.ac.vuw.ecs.swen225.gp20.maze.tiles.Tile-backto-nz.ac.vuw.ecs.swen225.gp20.maze.tiles.InaccessibleTile" style="stroke: #A80036; stroke-width: 1.0;"/><polygon fill="none" points="147.5,103.33,154.5,83.33,161.5,103.33,147.5,103.33" style="stroke: #A80036; stroke-width: 1.0;"/><text fill="#888888" font-family="sans-serif" font-size="10" lengthAdjust="spacingAndGlyphs" textLength="190" x="56.5" y="242.2402">UMLDoclet 2.0.12, PlantUML 1.2020.16</text><!--MD5=[cd0178bced982b783da4f4defa69c861]
@startuml
    set namespaceSeparator none
    hide empty fields
    hide empty methods

    abstract class "<size:14>InaccessibleTile\n<size:10>nz.ac.vuw.ecs.swen225.gp20.maze.tiles" as nz.ac.vuw.ecs.swen225.gp20.maze.tiles.InaccessibleTile [[InaccessibleTile.html]] {
        +isAccessible(): boolean
        +inMove(Maze, Point, boolean, Entity, Direction): Moves
    }

    abstract class "<size:14>Tile\n<size:10>nz.ac.vuw.ecs.swen225.gp20.maze.tiles" as nz.ac.vuw.ecs.swen225.gp20.maze.tiles.Tile [[Tile.html]] {
        {abstract} +isAccessible(): boolean
        {abstract} +inMove(Maze, Point, boolean, Entity, Direction): Moves
    }

    nz.ac.vuw.ecs.swen225.gp20.maze.tiles.Tile <|- - nz.ac.vuw.ecs.swen225.gp20.maze.tiles.InaccessibleTile

    center footer UMLDoclet 2.0.12, PlantUML 1.2020.16
@enduml

PlantUML version 1.2020.16(Mon Aug 24 08:20:43 NZST 2020)
(APACHE source distribution)
Java Runtime: OpenJDK Runtime Environment
JVM: OpenJDK 64-Bit Server VM
Default Encoding: Cp1252
Language: en
Country: US
--></g></svg>