<?xml version="1.0" encoding="UTF-8" standalone="no"?><svg xmlns="http://www.w3.org/2000/svg" xmlns:xlink="http://www.w3.org/1999/xlink" contentScriptType="application/ecmascript" contentStyleType="text/css" height="255px" preserveAspectRatio="none" style="width:247px;height:255px;" version="1.1" viewBox="0 0 247 255" width="247px" zoomAndPan="magnify"><defs><filter height="300%" id="fp23pj4ckovdb" width="300%" x="-1" y="-1"><feGaussianBlur result="blurOut" stdDeviation="2.0"/><feColorMatrix in="blurOut" result="blurOut2" type="matrix" values="0 0 0 0 0 0 0 0 0 0 0 0 0 0 0 0 0 0 .4 0"/><feOffset dx="4.0" dy="4.0" in="blurOut2" result="blurOut3"/><feBlend in="SourceGraphic" in2="blurOut3" mode="normal"/></filter></defs><g><!--MD5=[75cd62705bdc6b3bc5aaf5f1716b6649]
class nz.ac.vuw.ecs.swen225.gp20.maze.tiles.InfoTile--><a href="InfoTile.html" target="_top" title="InfoTile.html" xlink:actuate="onRequest" xlink:href="InfoTile.html" xlink:show="new" xlink:title="InfoTile.html" xlink:type="simple"><rect codeLine="5" fill="#FEFECE" filter="url(#fp23pj4ckovdb)" height="89.6953" id="nz.ac.vuw.ecs.swen225.gp20.maze.tiles.InfoTile" style="stroke: #A80036; stroke-width: 1.5;" width="220" x="7.5" y="129"/><ellipse cx="22.5" cy="149.0938" fill="#ADD1B2" rx="11" ry="11" style="stroke: #A80036; stroke-width: 1.0;"/><path d="M25.2656,144.9688 Q25.4219,144.75 25.6094,144.6406 Q25.7969,144.5313 26.0156,144.5313 Q26.3906,144.5313 26.625,144.7969 Q26.8594,145.0469 26.8594,145.6563 L26.8594,147.1094 Q26.8594,147.7188 26.625,147.9844 Q26.3906,148.25 26.0156,148.25 Q25.6719,148.25 25.4688,148.0469 Q25.2656,147.8594 25.1563,147.3438 Q25.1094,146.9844 24.9219,146.7969 Q24.5938,146.4219 23.9844,146.2031 Q23.375,145.9844 22.75,145.9844 Q21.9844,145.9844 21.3438,146.3125 Q20.7188,146.6406 20.2188,147.3906 Q19.7344,148.1406 19.7344,149.1719 L19.7344,150.2656 Q19.7344,151.5 20.625,152.3281 Q21.5156,153.1406 23.1094,153.1406 Q24.0469,153.1406 24.7031,152.8906 Q25.0938,152.7344 25.5156,152.2969 Q25.7813,152.0313 25.9219,151.9531 Q26.0781,151.875 26.2813,151.875 Q26.6094,151.875 26.8594,152.1406 Q27.125,152.3906 27.125,152.7344 Q27.125,153.0781 26.7813,153.4844 Q26.2813,154.0625 25.4844,154.3906 Q24.4063,154.8438 23.1094,154.8438 Q21.5938,154.8438 20.3906,154.2188 Q19.4063,153.7188 18.7188,152.6563 Q18.0313,151.5781 18.0313,150.2969 L18.0313,149.1406 Q18.0313,147.8125 18.6406,146.6719 Q19.2656,145.5156 20.3594,144.9063 Q21.4531,144.2813 22.6875,144.2813 Q23.4219,144.2813 24.0625,144.4531 Q24.7188,144.6094 25.2656,144.9688 Z "/><text fill="#000000" font-family="sans-serif" font-size="14" lengthAdjust="spacingAndGlyphs" textLength="46" x="107.5" y="148.5332">InfoTile</text><text fill="#000000" font-family="sans-serif" font-size="10" lengthAdjust="spacingAndGlyphs" textLength="188" x="36.5" y="161.9902">nz.ac.vuw.ecs.swen225.gp20.maze.tiles</text><line style="stroke: #A80036; stroke-width: 1.5;" x1="8.5" x2="226.5" y1="169.1875" y2="169.1875"/><ellipse cx="18.5" cy="180.1875" fill="#84BE84" rx="3" ry="3" style="stroke: #038048; stroke-width: 1.0;"/><text fill="#000000" font-family="sans-serif" font-size="11" lengthAdjust="spacingAndGlyphs" textLength="70" x="27.5" y="184.6064">InfoTile(String)</text><ellipse cx="18.5" cy="194.0234" fill="#84BE84" rx="3" ry="3" style="stroke: #038048; stroke-width: 1.0;"/><text fill="#000000" font-family="sans-serif" font-size="11" lengthAdjust="spacingAndGlyphs" textLength="110" x="27.5" y="198.4424">getInformation(): String</text><ellipse cx="18.5" cy="207.8594" fill="#84BE84" rx="3" ry="3" style="stroke: #038048; stroke-width: 1.0;"/><text fill="#000000" font-family="sans-serif" font-size="11" lengthAdjust="spacingAndGlyphs" textLength="79" x="27.5" y="212.2783">isItem(): boolean</text></a><!--MD5=[68be4e495ee4bcba164e17f55ceac40e]
class nz.ac.vuw.ecs.swen225.gp20.maze.tiles.AccessibleTile--><a href="AccessibleTile.html" target="_top" title="AccessibleTile.html" xlink:actuate="onRequest" xlink:href="AccessibleTile.html" xlink:show="new" xlink:title="AccessibleTile.html" xlink:type="simple"><rect codeLine="11" fill="#FEFECE" filter="url(#fp23pj4ckovdb)" height="62.0234" id="nz.ac.vuw.ecs.swen225.gp20.maze.tiles.AccessibleTile" style="stroke: #A80036; stroke-width: 1.5;" width="221" x="7" y="7"/><ellipse cx="22" cy="27.0938" fill="#A9DCDF" rx="11" ry="11" style="stroke: #A80036; stroke-width: 1.0;"/><path d="M24.1875,28.8594 L20.0469,28.8594 L19.625,29.8906 L20.0469,29.8906 Q20.6563,29.8906 20.9219,30.125 Q21.1875,30.3594 21.1875,30.75 Q21.1875,31.125 20.9219,31.3594 Q20.6563,31.5938 20.0469,31.5938 L17.75,31.5938 Q17.1406,31.5938 16.8906,31.3594 Q16.625,31.125 16.625,30.7344 Q16.625,30.3594 16.9063,30.125 Q17.1719,29.875 17.7969,29.8906 L20.4688,23.2344 L19.3594,23.2344 Q18.75,23.2344 18.4844,23 Q18.2188,22.7656 18.2188,22.375 Q18.2188,22 18.4844,21.7656 Q18.75,21.5313 19.3594,21.5313 L23.0313,21.5313 L26.4219,29.8906 Q27.0156,29.8906 27.2031,30.0313 Q27.5938,30.2969 27.5938,30.75 Q27.5938,31.125 27.3281,31.3594 Q27.0781,31.5938 26.4688,31.5938 L24.1719,31.5938 Q23.5625,31.5938 23.2969,31.3594 Q23.0313,31.125 23.0313,30.7344 Q23.0313,30.3594 23.2969,30.125 Q23.5625,29.8906 24.1719,29.8906 L24.5938,29.8906 L24.1875,28.8594 Z M23.4688,27.1563 L22.1094,23.7813 L20.7344,27.1563 L23.4688,27.1563 Z "/><text fill="#000000" font-family="sans-serif" font-size="14" font-style="italic" lengthAdjust="spacingAndGlyphs" textLength="90" x="85.5" y="26.5332">AccessibleTile</text><text fill="#000000" font-family="sans-serif" font-size="10" font-style="italic" lengthAdjust="spacingAndGlyphs" textLength="189" x="36" y="39.9902">nz.ac.vuw.ecs.swen225.gp20.maze.tiles</text><line style="stroke: #A80036; stroke-width: 1.5;" x1="8" x2="227" y1="47.1875" y2="47.1875"/><ellipse cx="18" cy="58.1875" fill="#84BE84" rx="3" ry="3" style="stroke: #038048; stroke-width: 1.0;"/><text fill="#000000" font-family="sans-serif" font-size="11" font-style="italic" lengthAdjust="spacingAndGlyphs" textLength="84" x="27" y="62.6064">isItem(): boolean</text></a><!--MD5=[704bb0ebdac15c820f4b078af733f37b]
reverse link nz.ac.vuw.ecs.swen225.gp20.maze.tiles.AccessibleTile to nz.ac.vuw.ecs.swen225.gp20.maze.tiles.InfoTile--><path codeLine="15" d="M117.5,89.12 C117.5,102.14 117.5,116.08 117.5,128.78 " fill="none" id="nz.ac.vuw.ecs.swen225.gp20.maze.tiles.AccessibleTile-backto-nz.ac.vuw.ecs.swen225.gp20.maze.tiles.InfoTile" style="stroke: #A80036; stroke-width: 1.0;"/><polygon fill="none" points="110.5,89.07,117.5,69.07,124.5,89.07,110.5,89.07" style="stroke: #A80036; stroke-width: 1.0;"/><text fill="#888888" font-family="sans-serif" font-size="10" lengthAdjust="spacingAndGlyphs" textLength="190" x="19.5" y="242.0762">UMLDoclet 2.0.12, PlantUML 1.2020.16</text><!--MD5=[629a57a9c2fd96a66631abe4e679e25e]
@startuml
    set namespaceSeparator none
    hide empty fields
    hide empty methods

    class "<size:14>InfoTile\n<size:10>nz.ac.vuw.ecs.swen225.gp20.maze.tiles" as nz.ac.vuw.ecs.swen225.gp20.maze.tiles.InfoTile [[InfoTile.html]] {
        +InfoTile(String)
        +getInformation(): String
        +isItem(): boolean
    }

    abstract class "<size:14>AccessibleTile\n<size:10>nz.ac.vuw.ecs.swen225.gp20.maze.tiles" as nz.ac.vuw.ecs.swen225.gp20.maze.tiles.AccessibleTile [[AccessibleTile.html]] {
        {abstract} +isItem(): boolean
    }

    nz.ac.vuw.ecs.swen225.gp20.maze.tiles.AccessibleTile <|- - nz.ac.vuw.ecs.swen225.gp20.maze.tiles.InfoTile

    center footer UMLDoclet 2.0.12, PlantUML 1.2020.16
@enduml

PlantUML version 1.2020.16(Mon Aug 24 08:20:43 NZST 2020)
(APACHE source distribution)
Java Runtime: OpenJDK Runtime Environment
JVM: OpenJDK 64-Bit Server VM
Default Encoding: Cp1252
Language: en
Country: US
--></g></svg>