<?xml version="1.0" encoding="UTF-8" standalone="no"?><svg xmlns="http://www.w3.org/2000/svg" xmlns:xlink="http://www.w3.org/1999/xlink" contentScriptType="application/ecmascript" contentStyleType="text/css" height="641px" preserveAspectRatio="none" style="width:1682px;height:641px;" version="1.1" viewBox="0 0 1682 641" width="1682px" zoomAndPan="magnify"><defs><filter height="300%" id="f8txwf24ckn2g" width="300%" x="-1" y="-1"><feGaussianBlur result="blurOut" stdDeviation="2.0"/><feColorMatrix in="blurOut" result="blurOut2" type="matrix" values="0 0 0 0 0 0 0 0 0 0 0 0 0 0 0 0 0 0 .4 0"/><feOffset dx="4.0" dy="4.0" in="blurOut2" result="blurOut3"/><feBlend in="SourceGraphic" in2="blurOut3" mode="normal"/></filter></defs><g><!--MD5=[f8dbdf05bf4709e52a14a2cbd4cff57c]
cluster nz.ac.vuw.ecs.swen225.gp20.maze.tiles--><polygon fill="#FFFFFF" filter="url(#f8txwf24ckn2g)" points="16,130,297,130,304,153.6094,1660,153.6094,1660,612,16,612,16,130" style="stroke: #000000; stroke-width: 1.5;"/><line style="stroke: #000000; stroke-width: 1.5;" x1="16" x2="304" y1="153.6094" y2="153.6094"/><text fill="#000000" font-family="sans-serif" font-size="14" font-weight="bold" lengthAdjust="spacingAndGlyphs" textLength="275" x="20" y="146.5332">nz.ac.vuw.ecs.swen225.gp20.maze.tiles</text><!--MD5=[832757d115beb7bc045eef4d6b42e302]
cluster nz.ac.vuw.ecs.swen225.gp20.maze--><polygon fill="#FFFFFF" filter="url(#f8txwf24ckn2g)" points="851,6,1098,6,1105,29.6094,1108,29.6094,1108,106,851,106,851,6" style="stroke: #000000; stroke-width: 1.5;"/><line style="stroke: #000000; stroke-width: 1.5;" x1="851" x2="1105" y1="29.6094" y2="29.6094"/><text fill="#000000" font-family="sans-serif" font-size="14" font-weight="bold" lengthAdjust="spacingAndGlyphs" textLength="241" x="855" y="22.5332">nz.ac.vuw.ecs.swen225.gp20.maze</text><!--MD5=[68be4e495ee4bcba164e17f55ceac40e]
class nz.ac.vuw.ecs.swen225.gp20.maze.tiles.AccessibleTile--><a href="AccessibleTile.html" target="_top" title="AccessibleTile.html" xlink:actuate="onRequest" xlink:href="AccessibleTile.html" xlink:show="new" xlink:title="AccessibleTile.html" xlink:type="simple"><rect codeLine="3" fill="#FEFECE" filter="url(#f8txwf24ckn2g)" height="117.1797" id="nz.ac.vuw.ecs.swen225.gp20.maze.tiles.AccessibleTile" style="stroke: #A80036; stroke-width: 1.5;" width="285" x="558.5" y="302"/><ellipse cx="656.75" cy="318" fill="#A9DCDF" rx="11" ry="11" style="stroke: #A80036; stroke-width: 1.0;"/><path d="M658.9375,319.7656 L654.7969,319.7656 L654.375,320.7969 L654.7969,320.7969 Q655.4063,320.7969 655.6719,321.0313 Q655.9375,321.2656 655.9375,321.6563 Q655.9375,322.0313 655.6719,322.2656 Q655.4063,322.5 654.7969,322.5 L652.5,322.5 Q651.8906,322.5 651.6406,322.2656 Q651.375,322.0313 651.375,321.6406 Q651.375,321.2656 651.6563,321.0313 Q651.9219,320.7813 652.5469,320.7969 L655.2188,314.1406 L654.1094,314.1406 Q653.5,314.1406 653.2344,313.9063 Q652.9688,313.6719 652.9688,313.2813 Q652.9688,312.9063 653.2344,312.6719 Q653.5,312.4375 654.1094,312.4375 L657.7813,312.4375 L661.1719,320.7969 Q661.7656,320.7969 661.9531,320.9375 Q662.3438,321.2031 662.3438,321.6563 Q662.3438,322.0313 662.0781,322.2656 Q661.8281,322.5 661.2188,322.5 L658.9219,322.5 Q658.3125,322.5 658.0469,322.2656 Q657.7813,322.0313 657.7813,321.6406 Q657.7813,321.2656 658.0469,321.0313 Q658.3125,320.7969 658.9219,320.7969 L659.3438,320.7969 L658.9375,319.7656 Z M658.2188,318.0625 L656.8594,314.6875 L655.4844,318.0625 L658.2188,318.0625 Z "/><text fill="#000000" font-family="sans-serif" font-size="12" font-style="italic" lengthAdjust="spacingAndGlyphs" textLength="80" x="677.25" y="322.9102">AccessibleTile</text><line style="stroke: #A80036; stroke-width: 1.5;" x1="559.5" x2="842.5" y1="334" y2="334"/><line style="stroke: #A80036; stroke-width: 1.5;" x1="559.5" x2="842.5" y1="342" y2="342"/><ellipse cx="569.5" cy="353" fill="#84BE84" rx="3" ry="3" style="stroke: #038048; stroke-width: 1.0;"/><text fill="#000000" font-family="sans-serif" font-size="11" lengthAdjust="spacingAndGlyphs" textLength="114" x="578.5" y="357.4189">isAccessible(): boolean</text><ellipse cx="569.5" cy="366.8359" fill="#84BE84" rx="3" ry="3" style="stroke: #038048; stroke-width: 1.0;"/><text fill="#000000" font-family="sans-serif" font-size="11" font-style="italic" lengthAdjust="spacingAndGlyphs" textLength="84" x="578.5" y="371.2549">isItem(): boolean</text><ellipse cx="569.5" cy="380.6719" fill="#84BE84" rx="3" ry="3" style="stroke: #038048; stroke-width: 1.0;"/><text fill="#000000" font-family="sans-serif" font-size="11" lengthAdjust="spacingAndGlyphs" textLength="124" x="578.5" y="385.0908">setEntityHere(Entity): void</text><ellipse cx="569.5" cy="394.5078" fill="#84BE84" rx="3" ry="3" style="stroke: #038048; stroke-width: 1.0;"/><text fill="#000000" font-family="sans-serif" font-size="11" lengthAdjust="spacingAndGlyphs" textLength="104" x="578.5" y="398.9268">getEntityHere(): Entity</text><ellipse cx="569.5" cy="408.3438" fill="#84BE84" rx="3" ry="3" style="stroke: #038048; stroke-width: 1.0;"/><text fill="#000000" font-family="sans-serif" font-size="11" lengthAdjust="spacingAndGlyphs" textLength="259" x="578.5" y="412.7627">inMove(Maze, Point, boolean, Entity, Direction): Moves</text></a><!--MD5=[72d032bb860ed30753a0aa56723f37a9]
class nz.ac.vuw.ecs.swen225.gp20.maze.tiles.DecayTile--><a href="DecayTile.html" target="_top" title="DecayTile.html" xlink:actuate="onRequest" xlink:href="DecayTile.html" xlink:show="new" xlink:title="DecayTile.html" xlink:type="simple"><rect codeLine="11" fill="#FEFECE" filter="url(#f8txwf24ckn2g)" height="117.1797" id="nz.ac.vuw.ecs.swen225.gp20.maze.tiles.DecayTile" style="stroke: #A80036; stroke-width: 1.5;" width="285" x="32.5" y="479"/><ellipse cx="143.75" cy="495" fill="#ADD1B2" rx="11" ry="11" style="stroke: #A80036; stroke-width: 1.0;"/><path d="M146.5156,490.875 Q146.6719,490.6563 146.8594,490.5469 Q147.0469,490.4375 147.2656,490.4375 Q147.6406,490.4375 147.875,490.7031 Q148.1094,490.9531 148.1094,491.5625 L148.1094,493.0156 Q148.1094,493.625 147.875,493.8906 Q147.6406,494.1563 147.2656,494.1563 Q146.9219,494.1563 146.7188,493.9531 Q146.5156,493.7656 146.4063,493.25 Q146.3594,492.8906 146.1719,492.7031 Q145.8438,492.3281 145.2344,492.1094 Q144.625,491.8906 144,491.8906 Q143.2344,491.8906 142.5938,492.2188 Q141.9688,492.5469 141.4688,493.2969 Q140.9844,494.0469 140.9844,495.0781 L140.9844,496.1719 Q140.9844,497.4063 141.875,498.2344 Q142.7656,499.0469 144.3594,499.0469 Q145.2969,499.0469 145.9531,498.7969 Q146.3438,498.6406 146.7656,498.2031 Q147.0313,497.9375 147.1719,497.8594 Q147.3281,497.7813 147.5313,497.7813 Q147.8594,497.7813 148.1094,498.0469 Q148.375,498.2969 148.375,498.6406 Q148.375,498.9844 148.0313,499.3906 Q147.5313,499.9688 146.7344,500.2969 Q145.6563,500.75 144.3594,500.75 Q142.8438,500.75 141.6406,500.125 Q140.6563,499.625 139.9688,498.5625 Q139.2813,497.4844 139.2813,496.2031 L139.2813,495.0469 Q139.2813,493.7188 139.8906,492.5781 Q140.5156,491.4219 141.6094,490.8125 Q142.7031,490.1875 143.9375,490.1875 Q144.6719,490.1875 145.3125,490.3594 Q145.9688,490.5156 146.5156,490.875 Z "/><text fill="#000000" font-family="sans-serif" font-size="12" lengthAdjust="spacingAndGlyphs" textLength="54" x="164.25" y="499.9102">DecayTile</text><line style="stroke: #A80036; stroke-width: 1.5;" x1="33.5" x2="316.5" y1="511" y2="511"/><line style="stroke: #A80036; stroke-width: 1.5;" x1="33.5" x2="316.5" y1="519" y2="519"/><ellipse cx="43.5" cy="530" fill="#84BE84" rx="3" ry="3" style="stroke: #038048; stroke-width: 1.0;"/><text fill="#000000" font-family="sans-serif" font-size="11" lengthAdjust="spacingAndGlyphs" textLength="66" x="52.5" y="534.4189">DecayTile(int)</text><ellipse cx="43.5" cy="543.8359" fill="#84BE84" rx="3" ry="3" style="stroke: #038048; stroke-width: 1.0;"/><text fill="#000000" font-family="sans-serif" font-size="11" lengthAdjust="spacingAndGlyphs" textLength="79" x="52.5" y="548.2549">isItem(): boolean</text><ellipse cx="43.5" cy="557.6719" fill="#84BE84" rx="3" ry="3" style="stroke: #038048; stroke-width: 1.0;"/><text fill="#000000" font-family="sans-serif" font-size="11" lengthAdjust="spacingAndGlyphs" textLength="259" x="52.5" y="562.0908">inMove(Maze, Point, boolean, Entity, Direction): Moves</text><ellipse cx="43.5" cy="571.5078" fill="#84BE84" rx="3" ry="3" style="stroke: #038048; stroke-width: 1.0;"/><text fill="#000000" font-family="sans-serif" font-size="11" lengthAdjust="spacingAndGlyphs" textLength="97" x="52.5" y="575.9268">getDecayLevel(): int</text><ellipse cx="43.5" cy="585.3438" fill="#84BE84" rx="3" ry="3" style="stroke: #038048; stroke-width: 1.0;"/><text fill="#000000" font-family="sans-serif" font-size="11" lengthAdjust="spacingAndGlyphs" textLength="77" x="52.5" y="589.7627">getIcon(): Image</text></a><!--MD5=[8338030e9b45d7dfa8fd16d04734cb44]
class nz.ac.vuw.ecs.swen225.gp20.maze.tiles.DoorTile--><a href="DoorTile.html" target="_top" title="DoorTile.html" xlink:actuate="onRequest" xlink:href="DoorTile.html" xlink:show="new" xlink:title="DoorTile.html" xlink:type="simple"><rect codeLine="19" fill="#FEFECE" filter="url(#f8txwf24ckn2g)" height="89.5078" id="nz.ac.vuw.ecs.swen225.gp20.maze.tiles.DoorTile" style="stroke: #A80036; stroke-width: 1.5;" width="285" x="1115.5" y="492.5"/><ellipse cx="1230.25" cy="508.5" fill="#ADD1B2" rx="11" ry="11" style="stroke: #A80036; stroke-width: 1.0;"/><path d="M1233.0156,504.375 Q1233.1719,504.1563 1233.3594,504.0469 Q1233.5469,503.9375 1233.7656,503.9375 Q1234.1406,503.9375 1234.375,504.2031 Q1234.6094,504.4531 1234.6094,505.0625 L1234.6094,506.5156 Q1234.6094,507.125 1234.375,507.3906 Q1234.1406,507.6563 1233.7656,507.6563 Q1233.4219,507.6563 1233.2188,507.4531 Q1233.0156,507.2656 1232.9063,506.75 Q1232.8594,506.3906 1232.6719,506.2031 Q1232.3438,505.8281 1231.7344,505.6094 Q1231.125,505.3906 1230.5,505.3906 Q1229.7344,505.3906 1229.0938,505.7188 Q1228.4688,506.0469 1227.9688,506.7969 Q1227.4844,507.5469 1227.4844,508.5781 L1227.4844,509.6719 Q1227.4844,510.9063 1228.375,511.7344 Q1229.2656,512.5469 1230.8594,512.5469 Q1231.7969,512.5469 1232.4531,512.2969 Q1232.8438,512.1406 1233.2656,511.7031 Q1233.5313,511.4375 1233.6719,511.3594 Q1233.8281,511.2813 1234.0313,511.2813 Q1234.3594,511.2813 1234.6094,511.5469 Q1234.875,511.7969 1234.875,512.1406 Q1234.875,512.4844 1234.5313,512.8906 Q1234.0313,513.4688 1233.2344,513.7969 Q1232.1563,514.25 1230.8594,514.25 Q1229.3438,514.25 1228.1406,513.625 Q1227.1563,513.125 1226.4688,512.0625 Q1225.7813,510.9844 1225.7813,509.7031 L1225.7813,508.5469 Q1225.7813,507.2188 1226.3906,506.0781 Q1227.0156,504.9219 1228.1094,504.3125 Q1229.2031,503.6875 1230.4375,503.6875 Q1231.1719,503.6875 1231.8125,503.8594 Q1232.4688,504.0156 1233.0156,504.375 Z "/><text fill="#000000" font-family="sans-serif" font-size="12" lengthAdjust="spacingAndGlyphs" textLength="47" x="1250.75" y="513.4102">DoorTile</text><line style="stroke: #A80036; stroke-width: 1.5;" x1="1116.5" x2="1399.5" y1="524.5" y2="524.5"/><line style="stroke: #A80036; stroke-width: 1.5;" x1="1116.5" x2="1399.5" y1="532.5" y2="532.5"/><ellipse cx="1126.5" cy="543.5" fill="#84BE84" rx="3" ry="3" style="stroke: #038048; stroke-width: 1.0;"/><text fill="#000000" font-family="sans-serif" font-size="11" lengthAdjust="spacingAndGlyphs" textLength="78" x="1135.5" y="547.9189">DoorTile(Colour)</text><ellipse cx="1126.5" cy="557.3359" fill="#84BE84" rx="3" ry="3" style="stroke: #038048; stroke-width: 1.0;"/><text fill="#000000" font-family="sans-serif" font-size="11" lengthAdjust="spacingAndGlyphs" textLength="114" x="1135.5" y="561.7549">getDoorColour(): Colour</text><ellipse cx="1126.5" cy="571.1719" fill="#84BE84" rx="3" ry="3" style="stroke: #038048; stroke-width: 1.0;"/><text fill="#000000" font-family="sans-serif" font-size="11" lengthAdjust="spacingAndGlyphs" textLength="259" x="1135.5" y="575.5908">inMove(Maze, Point, boolean, Entity, Direction): Moves</text></a><!--MD5=[9b6f0473ef6a65aa1180117fd8bab69d]
class nz.ac.vuw.ecs.swen225.gp20.maze.tiles.ExitLockTile--><a href="ExitLockTile.html" target="_top" title="ExitLockTile.html" xlink:actuate="onRequest" xlink:href="ExitLockTile.html" xlink:show="new" xlink:title="ExitLockTile.html" xlink:type="simple"><rect codeLine="25" fill="#FEFECE" filter="url(#f8txwf24ckn2g)" height="48" id="nz.ac.vuw.ecs.swen225.gp20.maze.tiles.ExitLockTile" style="stroke: #A80036; stroke-width: 1.5;" width="97" x="1435.5" y="513.5"/><ellipse cx="1450.5" cy="529.5" fill="#ADD1B2" rx="11" ry="11" style="stroke: #A80036; stroke-width: 1.0;"/><path d="M1453.2656,525.375 Q1453.4219,525.1563 1453.6094,525.0469 Q1453.7969,524.9375 1454.0156,524.9375 Q1454.3906,524.9375 1454.625,525.2031 Q1454.8594,525.4531 1454.8594,526.0625 L1454.8594,527.5156 Q1454.8594,528.125 1454.625,528.3906 Q1454.3906,528.6563 1454.0156,528.6563 Q1453.6719,528.6563 1453.4688,528.4531 Q1453.2656,528.2656 1453.1563,527.75 Q1453.1094,527.3906 1452.9219,527.2031 Q1452.5938,526.8281 1451.9844,526.6094 Q1451.375,526.3906 1450.75,526.3906 Q1449.9844,526.3906 1449.3438,526.7188 Q1448.7188,527.0469 1448.2188,527.7969 Q1447.7344,528.5469 1447.7344,529.5781 L1447.7344,530.6719 Q1447.7344,531.9063 1448.625,532.7344 Q1449.5156,533.5469 1451.1094,533.5469 Q1452.0469,533.5469 1452.7031,533.2969 Q1453.0938,533.1406 1453.5156,532.7031 Q1453.7813,532.4375 1453.9219,532.3594 Q1454.0781,532.2813 1454.2813,532.2813 Q1454.6094,532.2813 1454.8594,532.5469 Q1455.125,532.7969 1455.125,533.1406 Q1455.125,533.4844 1454.7813,533.8906 Q1454.2813,534.4688 1453.4844,534.7969 Q1452.4063,535.25 1451.1094,535.25 Q1449.5938,535.25 1448.3906,534.625 Q1447.4063,534.125 1446.7188,533.0625 Q1446.0313,531.9844 1446.0313,530.7031 L1446.0313,529.5469 Q1446.0313,528.2188 1446.6406,527.0781 Q1447.2656,525.9219 1448.3594,525.3125 Q1449.4531,524.6875 1450.6875,524.6875 Q1451.4219,524.6875 1452.0625,524.8594 Q1452.7188,525.0156 1453.2656,525.375 Z "/><text fill="#000000" font-family="sans-serif" font-size="12" lengthAdjust="spacingAndGlyphs" textLength="65" x="1464.5" y="534.4102">ExitLockTile</text><line style="stroke: #A80036; stroke-width: 1.5;" x1="1436.5" x2="1531.5" y1="545.5" y2="545.5"/><line style="stroke: #A80036; stroke-width: 1.5;" x1="1436.5" x2="1531.5" y1="553.5" y2="553.5"/></a><!--MD5=[b5a2a06e00f83676340bac68cbbd6eee]
class nz.ac.vuw.ecs.swen225.gp20.maze.tiles.ExitTile--><a href="ExitTile.html" target="_top" title="ExitTile.html" xlink:actuate="onRequest" xlink:href="ExitTile.html" xlink:show="new" xlink:title="ExitTile.html" xlink:type="simple"><rect codeLine="27" fill="#FEFECE" filter="url(#f8txwf24ckn2g)" height="61.8359" id="nz.ac.vuw.ecs.swen225.gp20.maze.tiles.ExitTile" style="stroke: #A80036; stroke-width: 1.5;" width="105" x="352.5" y="506.5"/><ellipse cx="382.8" cy="522.5" fill="#ADD1B2" rx="11" ry="11" style="stroke: #A80036; stroke-width: 1.0;"/><path d="M385.5656,518.375 Q385.7219,518.1563 385.9094,518.0469 Q386.0969,517.9375 386.3156,517.9375 Q386.6906,517.9375 386.925,518.2031 Q387.1594,518.4531 387.1594,519.0625 L387.1594,520.5156 Q387.1594,521.125 386.925,521.3906 Q386.6906,521.6563 386.3156,521.6563 Q385.9719,521.6563 385.7688,521.4531 Q385.5656,521.2656 385.4563,520.75 Q385.4094,520.3906 385.2219,520.2031 Q384.8938,519.8281 384.2844,519.6094 Q383.675,519.3906 383.05,519.3906 Q382.2844,519.3906 381.6438,519.7188 Q381.0188,520.0469 380.5188,520.7969 Q380.0344,521.5469 380.0344,522.5781 L380.0344,523.6719 Q380.0344,524.9063 380.925,525.7344 Q381.8156,526.5469 383.4094,526.5469 Q384.3469,526.5469 385.0031,526.2969 Q385.3938,526.1406 385.8156,525.7031 Q386.0813,525.4375 386.2219,525.3594 Q386.3781,525.2813 386.5813,525.2813 Q386.9094,525.2813 387.1594,525.5469 Q387.425,525.7969 387.425,526.1406 Q387.425,526.4844 387.0813,526.8906 Q386.5813,527.4688 385.7844,527.7969 Q384.7063,528.25 383.4094,528.25 Q381.8938,528.25 380.6906,527.625 Q379.7063,527.125 379.0188,526.0625 Q378.3313,524.9844 378.3313,523.7031 L378.3313,522.5469 Q378.3313,521.2188 378.9406,520.0781 Q379.5656,518.9219 380.6594,518.3125 Q381.7531,517.6875 382.9875,517.6875 Q383.7219,517.6875 384.3625,517.8594 Q385.0188,518.0156 385.5656,518.375 Z "/><text fill="#000000" font-family="sans-serif" font-size="12" lengthAdjust="spacingAndGlyphs" textLength="39" x="400.2" y="527.4102">ExitTile</text><line style="stroke: #A80036; stroke-width: 1.5;" x1="353.5" x2="456.5" y1="538.5" y2="538.5"/><line style="stroke: #A80036; stroke-width: 1.5;" x1="353.5" x2="456.5" y1="546.5" y2="546.5"/><ellipse cx="363.5" cy="557.5" fill="#84BE84" rx="3" ry="3" style="stroke: #038048; stroke-width: 1.0;"/><text fill="#000000" font-family="sans-serif" font-size="11" lengthAdjust="spacingAndGlyphs" textLength="79" x="372.5" y="561.9189">isItem(): boolean</text></a><!--MD5=[8776e772cf969b4f8006d9c52b48fee3]
class nz.ac.vuw.ecs.swen225.gp20.maze.tiles.FreeTile--><a href="FreeTile.html" target="_top" title="FreeTile.html" xlink:actuate="onRequest" xlink:href="FreeTile.html" xlink:show="new" xlink:title="FreeTile.html" xlink:type="simple"><rect codeLine="31" fill="#FEFECE" filter="url(#f8txwf24ckn2g)" height="61.8359" id="nz.ac.vuw.ecs.swen225.gp20.maze.tiles.FreeTile" style="stroke: #A80036; stroke-width: 1.5;" width="105" x="492.5" y="506.5"/><ellipse cx="520.1" cy="522.5" fill="#ADD1B2" rx="11" ry="11" style="stroke: #A80036; stroke-width: 1.0;"/><path d="M522.8656,518.375 Q523.0219,518.1563 523.2094,518.0469 Q523.3969,517.9375 523.6156,517.9375 Q523.9906,517.9375 524.225,518.2031 Q524.4594,518.4531 524.4594,519.0625 L524.4594,520.5156 Q524.4594,521.125 524.225,521.3906 Q523.9906,521.6563 523.6156,521.6563 Q523.2719,521.6563 523.0688,521.4531 Q522.8656,521.2656 522.7563,520.75 Q522.7094,520.3906 522.5219,520.2031 Q522.1938,519.8281 521.5844,519.6094 Q520.975,519.3906 520.35,519.3906 Q519.5844,519.3906 518.9438,519.7188 Q518.3188,520.0469 517.8188,520.7969 Q517.3344,521.5469 517.3344,522.5781 L517.3344,523.6719 Q517.3344,524.9063 518.225,525.7344 Q519.1156,526.5469 520.7094,526.5469 Q521.6469,526.5469 522.3031,526.2969 Q522.6938,526.1406 523.1156,525.7031 Q523.3813,525.4375 523.5219,525.3594 Q523.6781,525.2813 523.8813,525.2813 Q524.2094,525.2813 524.4594,525.5469 Q524.725,525.7969 524.725,526.1406 Q524.725,526.4844 524.3813,526.8906 Q523.8813,527.4688 523.0844,527.7969 Q522.0063,528.25 520.7094,528.25 Q519.1938,528.25 517.9906,527.625 Q517.0063,527.125 516.3188,526.0625 Q515.6313,524.9844 515.6313,523.7031 L515.6313,522.5469 Q515.6313,521.2188 516.2406,520.0781 Q516.8656,518.9219 517.9594,518.3125 Q519.0531,517.6875 520.2875,517.6875 Q521.0219,517.6875 521.6625,517.8594 Q522.3188,518.0156 522.8656,518.375 Z "/><text fill="#000000" font-family="sans-serif" font-size="12" lengthAdjust="spacingAndGlyphs" textLength="45" x="536.9" y="527.4102">FreeTile</text><line style="stroke: #A80036; stroke-width: 1.5;" x1="493.5" x2="596.5" y1="538.5" y2="538.5"/><line style="stroke: #A80036; stroke-width: 1.5;" x1="493.5" x2="596.5" y1="546.5" y2="546.5"/><ellipse cx="503.5" cy="557.5" fill="#84BE84" rx="3" ry="3" style="stroke: #038048; stroke-width: 1.0;"/><text fill="#000000" font-family="sans-serif" font-size="11" lengthAdjust="spacingAndGlyphs" textLength="79" x="512.5" y="561.9189">isItem(): boolean</text></a><!--MD5=[dc8be04f64ec603abc5f7e197265a11d]
class nz.ac.vuw.ecs.swen225.gp20.maze.tiles.InaccessibleTile--><a href="InaccessibleTile.html" target="_top" title="InaccessibleTile.html" xlink:actuate="onRequest" xlink:href="InaccessibleTile.html" xlink:show="new" xlink:title="InaccessibleTile.html" xlink:type="simple"><rect codeLine="35" fill="#FEFECE" filter="url(#f8txwf24ckn2g)" height="75.6719" id="nz.ac.vuw.ecs.swen225.gp20.maze.tiles.InaccessibleTile" style="stroke: #A80036; stroke-width: 1.5;" width="285" x="1228.5" y="322.5"/><ellipse cx="1321.75" cy="338.5" fill="#A9DCDF" rx="11" ry="11" style="stroke: #A80036; stroke-width: 1.0;"/><path d="M1323.9375,340.2656 L1319.7969,340.2656 L1319.375,341.2969 L1319.7969,341.2969 Q1320.4063,341.2969 1320.6719,341.5313 Q1320.9375,341.7656 1320.9375,342.1563 Q1320.9375,342.5313 1320.6719,342.7656 Q1320.4063,343 1319.7969,343 L1317.5,343 Q1316.8906,343 1316.6406,342.7656 Q1316.375,342.5313 1316.375,342.1406 Q1316.375,341.7656 1316.6563,341.5313 Q1316.9219,341.2813 1317.5469,341.2969 L1320.2188,334.6406 L1319.1094,334.6406 Q1318.5,334.6406 1318.2344,334.4063 Q1317.9688,334.1719 1317.9688,333.7813 Q1317.9688,333.4063 1318.2344,333.1719 Q1318.5,332.9375 1319.1094,332.9375 L1322.7813,332.9375 L1326.1719,341.2969 Q1326.7656,341.2969 1326.9531,341.4375 Q1327.3438,341.7031 1327.3438,342.1563 Q1327.3438,342.5313 1327.0781,342.7656 Q1326.8281,343 1326.2188,343 L1323.9219,343 Q1323.3125,343 1323.0469,342.7656 Q1322.7813,342.5313 1322.7813,342.1406 Q1322.7813,341.7656 1323.0469,341.5313 Q1323.3125,341.2969 1323.9219,341.2969 L1324.3438,341.2969 L1323.9375,340.2656 Z M1323.2188,338.5625 L1321.8594,335.1875 L1320.4844,338.5625 L1323.2188,338.5625 Z "/><text fill="#000000" font-family="sans-serif" font-size="12" font-style="italic" lengthAdjust="spacingAndGlyphs" textLength="90" x="1342.25" y="343.4102">InaccessibleTile</text><line style="stroke: #A80036; stroke-width: 1.5;" x1="1229.5" x2="1512.5" y1="354.5" y2="354.5"/><line style="stroke: #A80036; stroke-width: 1.5;" x1="1229.5" x2="1512.5" y1="362.5" y2="362.5"/><ellipse cx="1239.5" cy="373.5" fill="#84BE84" rx="3" ry="3" style="stroke: #038048; stroke-width: 1.0;"/><text fill="#000000" font-family="sans-serif" font-size="11" lengthAdjust="spacingAndGlyphs" textLength="114" x="1248.5" y="377.9189">isAccessible(): boolean</text><ellipse cx="1239.5" cy="387.3359" fill="#84BE84" rx="3" ry="3" style="stroke: #038048; stroke-width: 1.0;"/><text fill="#000000" font-family="sans-serif" font-size="11" lengthAdjust="spacingAndGlyphs" textLength="259" x="1248.5" y="391.7549">inMove(Maze, Point, boolean, Entity, Direction): Moves</text></a><!--MD5=[75cd62705bdc6b3bc5aaf5f1716b6649]
class nz.ac.vuw.ecs.swen225.gp20.maze.tiles.InfoTile--><a href="InfoTile.html" target="_top" title="InfoTile.html" xlink:actuate="onRequest" xlink:href="InfoTile.html" xlink:show="new" xlink:title="InfoTile.html" xlink:type="simple"><rect codeLine="40" fill="#FEFECE" filter="url(#f8txwf24ckn2g)" height="89.5078" id="nz.ac.vuw.ecs.swen225.gp20.maze.tiles.InfoTile" style="stroke: #A80036; stroke-width: 1.5;" width="136" x="633" y="492.5"/><ellipse cx="676.8" cy="508.5" fill="#ADD1B2" rx="11" ry="11" style="stroke: #A80036; stroke-width: 1.0;"/><path d="M679.5656,504.375 Q679.7219,504.1563 679.9094,504.0469 Q680.0969,503.9375 680.3156,503.9375 Q680.6906,503.9375 680.925,504.2031 Q681.1594,504.4531 681.1594,505.0625 L681.1594,506.5156 Q681.1594,507.125 680.925,507.3906 Q680.6906,507.6563 680.3156,507.6563 Q679.9719,507.6563 679.7688,507.4531 Q679.5656,507.2656 679.4563,506.75 Q679.4094,506.3906 679.2219,506.2031 Q678.8938,505.8281 678.2844,505.6094 Q677.675,505.3906 677.05,505.3906 Q676.2844,505.3906 675.6438,505.7188 Q675.0188,506.0469 674.5188,506.7969 Q674.0344,507.5469 674.0344,508.5781 L674.0344,509.6719 Q674.0344,510.9063 674.925,511.7344 Q675.8156,512.5469 677.4094,512.5469 Q678.3469,512.5469 679.0031,512.2969 Q679.3938,512.1406 679.8156,511.7031 Q680.0813,511.4375 680.2219,511.3594 Q680.3781,511.2813 680.5813,511.2813 Q680.9094,511.2813 681.1594,511.5469 Q681.425,511.7969 681.425,512.1406 Q681.425,512.4844 681.0813,512.8906 Q680.5813,513.4688 679.7844,513.7969 Q678.7063,514.25 677.4094,514.25 Q675.8938,514.25 674.6906,513.625 Q673.7063,513.125 673.0188,512.0625 Q672.3313,510.9844 672.3313,509.7031 L672.3313,508.5469 Q672.3313,507.2188 672.9406,506.0781 Q673.5656,504.9219 674.6594,504.3125 Q675.7531,503.6875 676.9875,503.6875 Q677.7219,503.6875 678.3625,503.8594 Q679.0188,504.0156 679.5656,504.375 Z "/><text fill="#000000" font-family="sans-serif" font-size="12" lengthAdjust="spacingAndGlyphs" textLength="40" x="697.2" y="513.4102">InfoTile</text><line style="stroke: #A80036; stroke-width: 1.5;" x1="634" x2="768" y1="524.5" y2="524.5"/><line style="stroke: #A80036; stroke-width: 1.5;" x1="634" x2="768" y1="532.5" y2="532.5"/><ellipse cx="644" cy="543.5" fill="#84BE84" rx="3" ry="3" style="stroke: #038048; stroke-width: 1.0;"/><text fill="#000000" font-family="sans-serif" font-size="11" lengthAdjust="spacingAndGlyphs" textLength="70" x="653" y="547.9189">InfoTile(String)</text><ellipse cx="644" cy="557.3359" fill="#84BE84" rx="3" ry="3" style="stroke: #038048; stroke-width: 1.0;"/><text fill="#000000" font-family="sans-serif" font-size="11" lengthAdjust="spacingAndGlyphs" textLength="110" x="653" y="561.7549">getInformation(): String</text><ellipse cx="644" cy="571.1719" fill="#84BE84" rx="3" ry="3" style="stroke: #038048; stroke-width: 1.0;"/><text fill="#000000" font-family="sans-serif" font-size="11" lengthAdjust="spacingAndGlyphs" textLength="79" x="653" y="575.5908">isItem(): boolean</text></a><!--MD5=[03b10a1f6bd984ce6326d53ec3f3d2b0]
class nz.ac.vuw.ecs.swen225.gp20.maze.tiles.KeyTile--><a href="KeyTile.html" target="_top" title="KeyTile.html" xlink:actuate="onRequest" xlink:href="KeyTile.html" xlink:show="new" xlink:title="KeyTile.html" xlink:type="simple"><rect codeLine="46" fill="#FEFECE" filter="url(#f8txwf24ckn2g)" height="89.5078" id="nz.ac.vuw.ecs.swen225.gp20.maze.tiles.KeyTile" style="stroke: #A80036; stroke-width: 1.5;" width="136" x="804" y="492.5"/><ellipse cx="847.8" cy="508.5" fill="#ADD1B2" rx="11" ry="11" style="stroke: #A80036; stroke-width: 1.0;"/><path d="M850.5656,504.375 Q850.7219,504.1563 850.9094,504.0469 Q851.0969,503.9375 851.3156,503.9375 Q851.6906,503.9375 851.925,504.2031 Q852.1594,504.4531 852.1594,505.0625 L852.1594,506.5156 Q852.1594,507.125 851.925,507.3906 Q851.6906,507.6563 851.3156,507.6563 Q850.9719,507.6563 850.7688,507.4531 Q850.5656,507.2656 850.4563,506.75 Q850.4094,506.3906 850.2219,506.2031 Q849.8938,505.8281 849.2844,505.6094 Q848.675,505.3906 848.05,505.3906 Q847.2844,505.3906 846.6438,505.7188 Q846.0188,506.0469 845.5188,506.7969 Q845.0344,507.5469 845.0344,508.5781 L845.0344,509.6719 Q845.0344,510.9063 845.925,511.7344 Q846.8156,512.5469 848.4094,512.5469 Q849.3469,512.5469 850.0031,512.2969 Q850.3938,512.1406 850.8156,511.7031 Q851.0813,511.4375 851.2219,511.3594 Q851.3781,511.2813 851.5813,511.2813 Q851.9094,511.2813 852.1594,511.5469 Q852.425,511.7969 852.425,512.1406 Q852.425,512.4844 852.0813,512.8906 Q851.5813,513.4688 850.7844,513.7969 Q849.7063,514.25 848.4094,514.25 Q846.8938,514.25 845.6906,513.625 Q844.7063,513.125 844.0188,512.0625 Q843.3313,510.9844 843.3313,509.7031 L843.3313,508.5469 Q843.3313,507.2188 843.9406,506.0781 Q844.5656,504.9219 845.6594,504.3125 Q846.7531,503.6875 847.9875,503.6875 Q848.7219,503.6875 849.3625,503.8594 Q850.0188,504.0156 850.5656,504.375 Z "/><text fill="#000000" font-family="sans-serif" font-size="12" lengthAdjust="spacingAndGlyphs" textLength="40" x="868.2" y="513.4102">KeyTile</text><line style="stroke: #A80036; stroke-width: 1.5;" x1="805" x2="939" y1="524.5" y2="524.5"/><line style="stroke: #A80036; stroke-width: 1.5;" x1="805" x2="939" y1="532.5" y2="532.5"/><ellipse cx="815" cy="543.5" fill="#84BE84" rx="3" ry="3" style="stroke: #038048; stroke-width: 1.0;"/><text fill="#000000" font-family="sans-serif" font-size="11" lengthAdjust="spacingAndGlyphs" textLength="74" x="824" y="547.9189">KeyTile(Colour)</text><ellipse cx="815" cy="557.3359" fill="#84BE84" rx="3" ry="3" style="stroke: #038048; stroke-width: 1.0;"/><text fill="#000000" font-family="sans-serif" font-size="11" lengthAdjust="spacingAndGlyphs" textLength="79" x="824" y="561.7549">isItem(): boolean</text><ellipse cx="815" cy="571.1719" fill="#84BE84" rx="3" ry="3" style="stroke: #038048; stroke-width: 1.0;"/><text fill="#000000" font-family="sans-serif" font-size="11" lengthAdjust="spacingAndGlyphs" textLength="110" x="824" y="575.5908">getKeyColour(): Colour</text></a><!--MD5=[519247a97ef5ccd8f4b98f2f0091eec4]
class nz.ac.vuw.ecs.swen225.gp20.maze.tiles.Tile--><a href="Tile.html" target="_top" title="Tile.html" xlink:actuate="onRequest" xlink:href="Tile.html" xlink:show="new" xlink:title="Tile.html" xlink:type="simple"><rect codeLine="52" fill="#FEFECE" filter="url(#f8txwf24ckn2g)" height="75.6719" id="nz.ac.vuw.ecs.swen225.gp20.maze.tiles.Tile" style="stroke: #A80036; stroke-width: 1.5;" width="295" x="831.5" y="166"/><ellipse cx="964.75" cy="182" fill="#A9DCDF" rx="11" ry="11" style="stroke: #A80036; stroke-width: 1.0;"/><path d="M966.9375,183.7656 L962.7969,183.7656 L962.375,184.7969 L962.7969,184.7969 Q963.4063,184.7969 963.6719,185.0313 Q963.9375,185.2656 963.9375,185.6563 Q963.9375,186.0313 963.6719,186.2656 Q963.4063,186.5 962.7969,186.5 L960.5,186.5 Q959.8906,186.5 959.6406,186.2656 Q959.375,186.0313 959.375,185.6406 Q959.375,185.2656 959.6563,185.0313 Q959.9219,184.7813 960.5469,184.7969 L963.2188,178.1406 L962.1094,178.1406 Q961.5,178.1406 961.2344,177.9063 Q960.9688,177.6719 960.9688,177.2813 Q960.9688,176.9063 961.2344,176.6719 Q961.5,176.4375 962.1094,176.4375 L965.7813,176.4375 L969.1719,184.7969 Q969.7656,184.7969 969.9531,184.9375 Q970.3438,185.2031 970.3438,185.6563 Q970.3438,186.0313 970.0781,186.2656 Q969.8281,186.5 969.2188,186.5 L966.9219,186.5 Q966.3125,186.5 966.0469,186.2656 Q965.7813,186.0313 965.7813,185.6406 Q965.7813,185.2656 966.0469,185.0313 Q966.3125,184.7969 966.9219,184.7969 L967.3438,184.7969 L966.9375,183.7656 Z M966.2188,182.0625 L964.8594,178.6875 L963.4844,182.0625 L966.2188,182.0625 Z "/><text fill="#000000" font-family="sans-serif" font-size="12" font-style="italic" lengthAdjust="spacingAndGlyphs" textLength="20" x="985.25" y="186.9102">Tile</text><line style="stroke: #A80036; stroke-width: 1.5;" x1="832.5" x2="1125.5" y1="198" y2="198"/><line style="stroke: #A80036; stroke-width: 1.5;" x1="832.5" x2="1125.5" y1="206" y2="206"/><ellipse cx="842.5" cy="217" fill="#84BE84" rx="3" ry="3" style="stroke: #038048; stroke-width: 1.0;"/><text fill="#000000" font-family="sans-serif" font-size="11" font-style="italic" lengthAdjust="spacingAndGlyphs" textLength="119" x="851.5" y="221.4189">isAccessible(): boolean</text><ellipse cx="842.5" cy="230.8359" fill="#84BE84" rx="3" ry="3" style="stroke: #038048; stroke-width: 1.0;"/><text fill="#000000" font-family="sans-serif" font-size="11" font-style="italic" lengthAdjust="spacingAndGlyphs" textLength="269" x="851.5" y="235.2549">inMove(Maze, Point, boolean, Entity, Direction): Moves</text></a><!--MD5=[49bee0c77f7258717865cf21be3c3508]
class nz.ac.vuw.ecs.swen225.gp20.maze.tiles.TreasureTile--><a href="TreasureTile.html" target="_top" title="TreasureTile.html" xlink:actuate="onRequest" xlink:href="TreasureTile.html" xlink:show="new" xlink:title="TreasureTile.html" xlink:type="simple"><rect codeLine="57" fill="#FEFECE" filter="url(#f8txwf24ckn2g)" height="61.8359" id="nz.ac.vuw.ecs.swen225.gp20.maze.tiles.TreasureTile" style="stroke: #A80036; stroke-width: 1.5;" width="105" x="975.5" y="506.5"/><ellipse cx="991.85" cy="522.5" fill="#ADD1B2" rx="11" ry="11" style="stroke: #A80036; stroke-width: 1.0;"/><path d="M994.6156,518.375 Q994.7719,518.1563 994.9594,518.0469 Q995.1469,517.9375 995.3656,517.9375 Q995.7406,517.9375 995.975,518.2031 Q996.2094,518.4531 996.2094,519.0625 L996.2094,520.5156 Q996.2094,521.125 995.975,521.3906 Q995.7406,521.6563 995.3656,521.6563 Q995.0219,521.6563 994.8188,521.4531 Q994.6156,521.2656 994.5063,520.75 Q994.4594,520.3906 994.2719,520.2031 Q993.9438,519.8281 993.3344,519.6094 Q992.725,519.3906 992.1,519.3906 Q991.3344,519.3906 990.6938,519.7188 Q990.0688,520.0469 989.5688,520.7969 Q989.0844,521.5469 989.0844,522.5781 L989.0844,523.6719 Q989.0844,524.9063 989.975,525.7344 Q990.8656,526.5469 992.4594,526.5469 Q993.3969,526.5469 994.0531,526.2969 Q994.4438,526.1406 994.8656,525.7031 Q995.1313,525.4375 995.2719,525.3594 Q995.4281,525.2813 995.6313,525.2813 Q995.9594,525.2813 996.2094,525.5469 Q996.475,525.7969 996.475,526.1406 Q996.475,526.4844 996.1313,526.8906 Q995.6313,527.4688 994.8344,527.7969 Q993.7563,528.25 992.4594,528.25 Q990.9438,528.25 989.7406,527.625 Q988.7563,527.125 988.0688,526.0625 Q987.3813,524.9844 987.3813,523.7031 L987.3813,522.5469 Q987.3813,521.2188 987.9906,520.0781 Q988.6156,518.9219 989.7094,518.3125 Q990.8031,517.6875 992.0375,517.6875 Q992.7719,517.6875 993.4125,517.8594 Q994.0688,518.0156 994.6156,518.375 Z "/><text fill="#000000" font-family="sans-serif" font-size="12" lengthAdjust="spacingAndGlyphs" textLength="70" x="1006.15" y="527.4102">TreasureTile</text><line style="stroke: #A80036; stroke-width: 1.5;" x1="976.5" x2="1079.5" y1="538.5" y2="538.5"/><line style="stroke: #A80036; stroke-width: 1.5;" x1="976.5" x2="1079.5" y1="546.5" y2="546.5"/><ellipse cx="986.5" cy="557.5" fill="#84BE84" rx="3" ry="3" style="stroke: #038048; stroke-width: 1.0;"/><text fill="#000000" font-family="sans-serif" font-size="11" lengthAdjust="spacingAndGlyphs" textLength="79" x="995.5" y="561.9189">isItem(): boolean</text></a><!--MD5=[db722a62a7025c310c569a86c1c04e95]
class nz.ac.vuw.ecs.swen225.gp20.maze.tiles.WallTile--><a href="WallTile.html" target="_top" title="WallTile.html" xlink:actuate="onRequest" xlink:href="WallTile.html" xlink:show="new" xlink:title="WallTile.html" xlink:type="simple"><rect codeLine="61" fill="#FEFECE" filter="url(#f8txwf24ckn2g)" height="48" id="nz.ac.vuw.ecs.swen225.gp20.maze.tiles.WallTile" style="stroke: #A80036; stroke-width: 1.5;" width="76" x="1568" y="513.5"/><ellipse cx="1583" cy="529.5" fill="#ADD1B2" rx="11" ry="11" style="stroke: #A80036; stroke-width: 1.0;"/><path d="M1585.7656,525.375 Q1585.9219,525.1563 1586.1094,525.0469 Q1586.2969,524.9375 1586.5156,524.9375 Q1586.8906,524.9375 1587.125,525.2031 Q1587.3594,525.4531 1587.3594,526.0625 L1587.3594,527.5156 Q1587.3594,528.125 1587.125,528.3906 Q1586.8906,528.6563 1586.5156,528.6563 Q1586.1719,528.6563 1585.9688,528.4531 Q1585.7656,528.2656 1585.6563,527.75 Q1585.6094,527.3906 1585.4219,527.2031 Q1585.0938,526.8281 1584.4844,526.6094 Q1583.875,526.3906 1583.25,526.3906 Q1582.4844,526.3906 1581.8438,526.7188 Q1581.2188,527.0469 1580.7188,527.7969 Q1580.2344,528.5469 1580.2344,529.5781 L1580.2344,530.6719 Q1580.2344,531.9063 1581.125,532.7344 Q1582.0156,533.5469 1583.6094,533.5469 Q1584.5469,533.5469 1585.2031,533.2969 Q1585.5938,533.1406 1586.0156,532.7031 Q1586.2813,532.4375 1586.4219,532.3594 Q1586.5781,532.2813 1586.7813,532.2813 Q1587.1094,532.2813 1587.3594,532.5469 Q1587.625,532.7969 1587.625,533.1406 Q1587.625,533.4844 1587.2813,533.8906 Q1586.7813,534.4688 1585.9844,534.7969 Q1584.9063,535.25 1583.6094,535.25 Q1582.0938,535.25 1580.8906,534.625 Q1579.9063,534.125 1579.2188,533.0625 Q1578.5313,531.9844 1578.5313,530.7031 L1578.5313,529.5469 Q1578.5313,528.2188 1579.1406,527.0781 Q1579.7656,525.9219 1580.8594,525.3125 Q1581.9531,524.6875 1583.1875,524.6875 Q1583.9219,524.6875 1584.5625,524.8594 Q1585.2188,525.0156 1585.7656,525.375 Z "/><text fill="#000000" font-family="sans-serif" font-size="12" lengthAdjust="spacingAndGlyphs" textLength="44" x="1597" y="534.4102">WallTile</text><line style="stroke: #A80036; stroke-width: 1.5;" x1="1569" x2="1643" y1="545.5" y2="545.5"/><line style="stroke: #A80036; stroke-width: 1.5;" x1="1569" x2="1643" y1="553.5" y2="553.5"/></a><!--MD5=[3962b7cb248e7459e5dcfafee992fe8e]
class nz.ac.vuw.ecs.swen225.gp20.maze.Icon--><a href="..\Icon.html" target="_top" title="..\Icon.html" xlink:actuate="onRequest" xlink:href="..\Icon.html" xlink:show="new" xlink:title="..\Icon.html" xlink:type="simple"><rect codeLine="78" fill="#FEFECE" filter="url(#f8txwf24ckn2g)" height="48" id="nz.ac.vuw.ecs.swen225.gp20.maze.Icon" style="stroke: #A80036; stroke-width: 1.5;" width="56" x="951" y="42"/><ellipse cx="966" cy="58" fill="#A9DCDF" rx="11" ry="11" style="stroke: #A80036; stroke-width: 1.0;"/><path d="M968.1875,59.7656 L964.0469,59.7656 L963.625,60.7969 L964.0469,60.7969 Q964.6563,60.7969 964.9219,61.0313 Q965.1875,61.2656 965.1875,61.6563 Q965.1875,62.0313 964.9219,62.2656 Q964.6563,62.5 964.0469,62.5 L961.75,62.5 Q961.1406,62.5 960.8906,62.2656 Q960.625,62.0313 960.625,61.6406 Q960.625,61.2656 960.9063,61.0313 Q961.1719,60.7813 961.7969,60.7969 L964.4688,54.1406 L963.3594,54.1406 Q962.75,54.1406 962.4844,53.9063 Q962.2188,53.6719 962.2188,53.2813 Q962.2188,52.9063 962.4844,52.6719 Q962.75,52.4375 963.3594,52.4375 L967.0313,52.4375 L970.4219,60.7969 Q971.0156,60.7969 971.2031,60.9375 Q971.5938,61.2031 971.5938,61.6563 Q971.5938,62.0313 971.3281,62.2656 Q971.0781,62.5 970.4688,62.5 L968.1719,62.5 Q967.5625,62.5 967.2969,62.2656 Q967.0313,62.0313 967.0313,61.6406 Q967.0313,61.2656 967.2969,61.0313 Q967.5625,60.7969 968.1719,60.7969 L968.5938,60.7969 L968.1875,59.7656 Z M967.4688,58.0625 L966.1094,54.6875 L964.7344,58.0625 L967.4688,58.0625 Z "/><text fill="#000000" font-family="sans-serif" font-size="12" font-style="italic" lengthAdjust="spacingAndGlyphs" textLength="24" x="980" y="62.9102">Icon</text><line style="stroke: #A80036; stroke-width: 1.5;" x1="952" x2="1006" y1="74" y2="74"/><line style="stroke: #A80036; stroke-width: 1.5;" x1="952" x2="1006" y1="82" y2="82"/></a><!--MD5=[d3347b209fea354e134389c1b95c7624]
reverse link nz.ac.vuw.ecs.swen225.gp20.maze.tiles.Tile to nz.ac.vuw.ecs.swen225.gp20.maze.tiles.AccessibleTile--><path codeLine="63" d="M894.77,251.81 C866.34,267.61 834.26,285.44 804.51,301.97 " fill="none" id="nz.ac.vuw.ecs.swen225.gp20.maze.tiles.Tile-backto-nz.ac.vuw.ecs.swen225.gp20.maze.tiles.AccessibleTile" style="stroke: #A80036; stroke-width: 1.0;"/><polygon fill="none" points="891.53,245.6,912.41,242.01,898.33,257.84,891.53,245.6" style="stroke: #A80036; stroke-width: 1.0;"/><!--MD5=[db7bf46432b513e51e501e77f3918337]
reverse link nz.ac.vuw.ecs.swen225.gp20.maze.tiles.AccessibleTile to nz.ac.vuw.ecs.swen225.gp20.maze.tiles.DecayTile--><path codeLine="64" d="M538.68,412.29 C475.01,432.56 401.42,456.41 335,479 C329.27,480.95 323.43,482.95 317.54,484.99 " fill="none" id="nz.ac.vuw.ecs.swen225.gp20.maze.tiles.AccessibleTile-backto-nz.ac.vuw.ecs.swen225.gp20.maze.tiles.DecayTile" style="stroke: #A80036; stroke-width: 1.0;"/><polygon fill="none" points="536.92,405.51,558.1,406.12,541.16,418.85,536.92,405.51" style="stroke: #A80036; stroke-width: 1.0;"/><!--MD5=[dd3f9f2bfbebfb0ea8f65c3ca7723ce4]
reverse link nz.ac.vuw.ecs.swen225.gp20.maze.tiles.InaccessibleTile to nz.ac.vuw.ecs.swen225.gp20.maze.tiles.DoorTile--><path codeLine="65" d="M1336.02,415.67 C1320.13,440.28 1301.56,469.04 1286.53,492.32 " fill="none" id="nz.ac.vuw.ecs.swen225.gp20.maze.tiles.InaccessibleTile-backto-nz.ac.vuw.ecs.swen225.gp20.maze.tiles.DoorTile" style="stroke: #A80036; stroke-width: 1.0;"/><polygon fill="none" points="1330.31,411.62,1347.04,398.61,1342.07,419.21,1330.31,411.62" style="stroke: #A80036; stroke-width: 1.0;"/><!--MD5=[b22c5c07073cb6ab39fc2c5be0fe0477]
reverse link nz.ac.vuw.ecs.swen225.gp20.maze.tiles.InaccessibleTile to nz.ac.vuw.ecs.swen225.gp20.maze.tiles.ExitLockTile--><path codeLine="66" d="M1405.85,415.46 C1427.05,448.3 1453.04,488.55 1469.06,513.36 " fill="none" id="nz.ac.vuw.ecs.swen225.gp20.maze.tiles.InaccessibleTile-backto-nz.ac.vuw.ecs.swen225.gp20.maze.tiles.ExitLockTile" style="stroke: #A80036; stroke-width: 1.0;"/><polygon fill="none" points="1399.93,419.21,1394.96,398.61,1411.69,411.62,1399.93,419.21" style="stroke: #A80036; stroke-width: 1.0;"/><!--MD5=[8be6a1606f7d97d3cdd544963d4ef843]
reverse link nz.ac.vuw.ecs.swen225.gp20.maze.tiles.AccessibleTile to nz.ac.vuw.ecs.swen225.gp20.maze.tiles.ExitTile--><path codeLine="67" d="M561.05,428.47 C531.96,443.98 501.97,461.19 475,479 C462.66,487.15 449.95,497.06 438.8,506.35 " fill="none" id="nz.ac.vuw.ecs.swen225.gp20.maze.tiles.AccessibleTile-backto-nz.ac.vuw.ecs.swen225.gp20.maze.tiles.ExitTile" style="stroke: #A80036; stroke-width: 1.0;"/><polygon fill="none" points="558.04,422.14,579.01,419.04,564.55,434.53,558.04,422.14" style="stroke: #A80036; stroke-width: 1.0;"/><!--MD5=[c98061544f40f31879b967a1ace401f8]
reverse link nz.ac.vuw.ecs.swen225.gp20.maze.tiles.AccessibleTile to nz.ac.vuw.ecs.swen225.gp20.maze.tiles.FreeTile--><path codeLine="68" d="M636.12,434.28 C613.64,459.51 589.66,486.41 571.94,506.28 " fill="none" id="nz.ac.vuw.ecs.swen225.gp20.maze.tiles.AccessibleTile-backto-nz.ac.vuw.ecs.swen225.gp20.maze.tiles.FreeTile" style="stroke: #A80036; stroke-width: 1.0;"/><polygon fill="none" points="630.95,429.56,649.49,419.29,641.4,438.87,630.95,429.56" style="stroke: #A80036; stroke-width: 1.0;"/><!--MD5=[d026a4120bf5dd01ff5a05ae09859bff]
reverse link nz.ac.vuw.ecs.swen225.gp20.maze.tiles.Tile to nz.ac.vuw.ecs.swen225.gp20.maze.tiles.InaccessibleTile--><path codeLine="69" d="M1091.86,249.48 C1150.46,272.58 1221.23,300.47 1276.85,322.39 " fill="none" id="nz.ac.vuw.ecs.swen225.gp20.maze.tiles.Tile-backto-nz.ac.vuw.ecs.swen225.gp20.maze.tiles.InaccessibleTile" style="stroke: #A80036; stroke-width: 1.0;"/><polygon fill="none" points="1088.93,255.85,1072.89,242.01,1094.07,242.83,1088.93,255.85" style="stroke: #A80036; stroke-width: 1.0;"/><!--MD5=[704bb0ebdac15c820f4b078af733f37b]
reverse link nz.ac.vuw.ecs.swen225.gp20.maze.tiles.AccessibleTile to nz.ac.vuw.ecs.swen225.gp20.maze.tiles.InfoTile--><path codeLine="70" d="M701,439.38 C701,457.54 701,476.26 701,492.36 " fill="none" id="nz.ac.vuw.ecs.swen225.gp20.maze.tiles.AccessibleTile-backto-nz.ac.vuw.ecs.swen225.gp20.maze.tiles.InfoTile" style="stroke: #A80036; stroke-width: 1.0;"/><polygon fill="none" points="694,439.29,701,419.29,708,439.29,694,439.29" style="stroke: #A80036; stroke-width: 1.0;"/><!--MD5=[b4ff486ab674e9e03d365bbf947abe47]
reverse link nz.ac.vuw.ecs.swen225.gp20.maze.tiles.AccessibleTile to nz.ac.vuw.ecs.swen225.gp20.maze.tiles.KeyTile--><path codeLine="71" d="M771.68,433.84 C791.08,453.69 811.53,474.62 828.87,492.36 " fill="none" id="nz.ac.vuw.ecs.swen225.gp20.maze.tiles.AccessibleTile-backto-nz.ac.vuw.ecs.swen225.gp20.maze.tiles.KeyTile" style="stroke: #A80036; stroke-width: 1.0;"/><polygon fill="none" points="766.44,438.48,757.47,419.29,776.45,428.7,766.44,438.48" style="stroke: #A80036; stroke-width: 1.0;"/><!--MD5=[439a2de2fc9e7003c928fc83f8f388b0]
reverse link nz.ac.vuw.ecs.swen225.gp20.maze.Icon to nz.ac.vuw.ecs.swen225.gp20.maze.tiles.Tile--><path codeLine="72" d="M979,110.21 C979,128.13 979,148.72 979,165.94 " fill="none" id="nz.ac.vuw.ecs.swen225.gp20.maze.Icon-backto-nz.ac.vuw.ecs.swen225.gp20.maze.tiles.Tile" style="stroke: #A80036; stroke-width: 1.0;"/><polygon fill="none" points="972,110.07,979,90.07,986,110.07,972,110.07" style="stroke: #A80036; stroke-width: 1.0;"/><!--MD5=[dbdf634a6484b7e363e8dfda6690e1b3]
reverse link nz.ac.vuw.ecs.swen225.gp20.maze.tiles.AccessibleTile to nz.ac.vuw.ecs.swen225.gp20.maze.tiles.TreasureTile--><path codeLine="73" d="M862.28,427.47 C894.78,442.9 928.12,460.34 958,479 C970.67,486.91 983.58,496.87 994.8,506.27 " fill="none" id="nz.ac.vuw.ecs.swen225.gp20.maze.tiles.AccessibleTile-backto-nz.ac.vuw.ecs.swen225.gp20.maze.tiles.TreasureTile" style="stroke: #A80036; stroke-width: 1.0;"/><polygon fill="none" points="858.98,433.66,843.8,418.87,864.89,420.97,858.98,433.66" style="stroke: #A80036; stroke-width: 1.0;"/><!--MD5=[1ca0e1c5d9f43ac9b69f70dee1abcba8]
reverse link nz.ac.vuw.ecs.swen225.gp20.maze.tiles.InaccessibleTile to nz.ac.vuw.ecs.swen225.gp20.maze.tiles.WallTile--><path codeLine="74" d="M1451.76,409.24 C1483.48,429.33 1519.51,453.85 1550,479 C1562.58,489.37 1575.35,502.28 1585.52,513.23 " fill="none" id="nz.ac.vuw.ecs.swen225.gp20.maze.tiles.InaccessibleTile-backto-nz.ac.vuw.ecs.swen225.gp20.maze.tiles.WallTile" style="stroke: #A80036; stroke-width: 1.0;"/><polygon fill="none" points="1447.91,415.09,1434.65,398.57,1455.32,403.21,1447.91,415.09" style="stroke: #A80036; stroke-width: 1.0;"/><text fill="#888888" font-family="sans-serif" font-size="10" lengthAdjust="spacingAndGlyphs" textLength="190" x="737" y="628.3809">UMLDoclet 2.0.12, PlantUML 1.2020.16</text><!--MD5=[2eeeed3418894dbc7a91fdb5f8a36281]
@startuml
    namespace nz.ac.vuw.ecs.swen225.gp20.maze.tiles {

        abstract class AccessibleTile [[AccessibleTile.html]] {
            +isAccessible(): boolean
            {abstract} +isItem(): boolean
            +setEntityHere(Entity): void
            +getEntityHere(): Entity
            +inMove(Maze, Point, boolean, Entity, Direction): Moves
        }

        class DecayTile [[DecayTile.html]] {
            +DecayTile(int)
            +isItem(): boolean
            +inMove(Maze, Point, boolean, Entity, Direction): Moves
            +getDecayLevel(): int
            +getIcon(): Image
        }

        class DoorTile [[DoorTile.html]] {
            +DoorTile(Colour)
            +getDoorColour(): Colour
            +inMove(Maze, Point, boolean, Entity, Direction): Moves
        }

        class ExitLockTile [[ExitLockTile.html]]

        class ExitTile [[ExitTile.html]] {
            +isItem(): boolean
        }

        class FreeTile [[FreeTile.html]] {
            +isItem(): boolean
        }

        abstract class InaccessibleTile [[InaccessibleTile.html]] {
            +isAccessible(): boolean
            +inMove(Maze, Point, boolean, Entity, Direction): Moves
        }

        class InfoTile [[InfoTile.html]] {
            +InfoTile(String)
            +getInformation(): String
            +isItem(): boolean
        }

        class KeyTile [[KeyTile.html]] {
            +KeyTile(Colour)
            +isItem(): boolean
            +getKeyColour(): Colour
        }

        abstract class Tile [[Tile.html]] {
            {abstract} +isAccessible(): boolean
            {abstract} +inMove(Maze, Point, boolean, Entity, Direction): Moves
        }

        class TreasureTile [[TreasureTile.html]] {
            +isItem(): boolean
        }

        class WallTile [[WallTile.html]]

        Tile <|- - AccessibleTile
        AccessibleTile <|- - DecayTile
        InaccessibleTile <|- - DoorTile
        InaccessibleTile <|- - ExitLockTile
        AccessibleTile <|- - ExitTile
        AccessibleTile <|- - FreeTile
        Tile <|- - InaccessibleTile
        AccessibleTile <|- - InfoTile
        AccessibleTile <|- - KeyTile
        nz.ac.vuw.ecs.swen225.gp20.maze.Icon <|- - Tile
        AccessibleTile <|- - TreasureTile
        InaccessibleTile <|- - WallTile
    }

    namespace nz.ac.vuw.ecs.swen225.gp20.maze {
        abstract class Icon [[..\Icon.html]] {
        }
    }

    center footer UMLDoclet 2.0.12, PlantUML 1.2020.16
@enduml

PlantUML version 1.2020.16(Mon Aug 24 08:20:43 NZST 2020)
(APACHE source distribution)
Java Runtime: OpenJDK Runtime Environment
JVM: OpenJDK 64-Bit Server VM
Default Encoding: Cp1252
Language: en
Country: US
--></g></svg>