<?xml version="1.0" encoding="UTF-8" standalone="no"?><svg xmlns="http://www.w3.org/2000/svg" xmlns:xlink="http://www.w3.org/1999/xlink" contentScriptType="application/ecmascript" contentStyleType="text/css" height="219px" preserveAspectRatio="none" style="width:321px;height:219px;" version="1.1" viewBox="0 0 321 219" width="321px" zoomAndPan="magnify"><defs><filter height="300%" id="fwwi4wpzw1kvw" width="300%" x="-1" y="-1"><feGaussianBlur result="blurOut" stdDeviation="2.0"/><feColorMatrix in="blurOut" result="blurOut2" type="matrix" values="0 0 0 0 0 0 0 0 0 0 0 0 0 0 0 0 0 0 .4 0"/><feOffset dx="4.0" dy="4.0" in="blurOut2" result="blurOut3"/><feBlend in="SourceGraphic" in2="blurOut3" mode="normal"/></filter></defs><g><!--MD5=[519247a97ef5ccd8f4b98f2f0091eec4]
class nz.ac.vuw.ecs.swen225.gp20.maze.tiles.Tile--><a href="Tile.html" target="_top" title="Tile.html" xlink:actuate="onRequest" xlink:href="Tile.html" xlink:show="new" xlink:title="Tile.html" xlink:type="simple"><rect codeLine="5" fill="#FEFECE" filter="url(#fwwi4wpzw1kvw)" height="75.8594" id="nz.ac.vuw.ecs.swen225.gp20.maze.tiles.Tile" style="stroke: #A80036; stroke-width: 1.5;" width="295" x="7" y="107"/><ellipse cx="55.75" cy="127.0938" fill="#A9DCDF" rx="11" ry="11" style="stroke: #A80036; stroke-width: 1.0;"/><path d="M57.9375,128.8594 L53.7969,128.8594 L53.375,129.8906 L53.7969,129.8906 Q54.4063,129.8906 54.6719,130.125 Q54.9375,130.3594 54.9375,130.75 Q54.9375,131.125 54.6719,131.3594 Q54.4063,131.5938 53.7969,131.5938 L51.5,131.5938 Q50.8906,131.5938 50.6406,131.3594 Q50.375,131.125 50.375,130.7344 Q50.375,130.3594 50.6563,130.125 Q50.9219,129.875 51.5469,129.8906 L54.2188,123.2344 L53.1094,123.2344 Q52.5,123.2344 52.2344,123 Q51.9688,122.7656 51.9688,122.375 Q51.9688,122 52.2344,121.7656 Q52.5,121.5313 53.1094,121.5313 L56.7813,121.5313 L60.1719,129.8906 Q60.7656,129.8906 60.9531,130.0313 Q61.3438,130.2969 61.3438,130.75 Q61.3438,131.125 61.0781,131.3594 Q60.8281,131.5938 60.2188,131.5938 L57.9219,131.5938 Q57.3125,131.5938 57.0469,131.3594 Q56.7813,131.125 56.7813,130.7344 Q56.7813,130.3594 57.0469,130.125 Q57.3125,129.8906 57.9219,129.8906 L58.3438,129.8906 L57.9375,128.8594 Z M57.2188,127.1563 L55.8594,123.7813 L54.4844,127.1563 L57.2188,127.1563 Z "/><text fill="#000000" font-family="sans-serif" font-size="14" font-style="italic" lengthAdjust="spacingAndGlyphs" textLength="23" x="159.25" y="126.5332">Tile</text><text fill="#000000" font-family="sans-serif" font-size="10" font-style="italic" lengthAdjust="spacingAndGlyphs" textLength="189" x="76.25" y="139.9902">nz.ac.vuw.ecs.swen225.gp20.maze.tiles</text><line style="stroke: #A80036; stroke-width: 1.5;" x1="8" x2="301" y1="147.1875" y2="147.1875"/><ellipse cx="18" cy="158.1875" fill="#84BE84" rx="3" ry="3" style="stroke: #038048; stroke-width: 1.0;"/><text fill="#000000" font-family="sans-serif" font-size="11" font-style="italic" lengthAdjust="spacingAndGlyphs" textLength="119" x="27" y="162.6064">isAccessible(): boolean</text><ellipse cx="18" cy="172.0234" fill="#84BE84" rx="3" ry="3" style="stroke: #038048; stroke-width: 1.0;"/><text fill="#000000" font-family="sans-serif" font-size="11" font-style="italic" lengthAdjust="spacingAndGlyphs" textLength="269" x="27" y="176.4424">inMove(Maze, Point, boolean, Entity, Direction): Moves</text></a><!--MD5=[3962b7cb248e7459e5dcfafee992fe8e]
class nz.ac.vuw.ecs.swen225.gp20.maze.Icon--><a href="..\Icon.html" target="_top" title="..\Icon.html" xlink:actuate="onRequest" xlink:href="..\Icon.html" xlink:show="new" xlink:title="..\Icon.html" xlink:type="simple"><rect codeLine="10" fill="#FEFECE" filter="url(#fwwi4wpzw1kvw)" height="40.1875" id="nz.ac.vuw.ecs.swen225.gp20.maze.Icon" style="stroke: #A80036; stroke-width: 1.5;" width="198" x="55.5" y="7"/><ellipse cx="70.5" cy="27.0938" fill="#A9DCDF" rx="11" ry="11" style="stroke: #A80036; stroke-width: 1.0;"/><path d="M72.6875,28.8594 L68.5469,28.8594 L68.125,29.8906 L68.5469,29.8906 Q69.1563,29.8906 69.4219,30.125 Q69.6875,30.3594 69.6875,30.75 Q69.6875,31.125 69.4219,31.3594 Q69.1563,31.5938 68.5469,31.5938 L66.25,31.5938 Q65.6406,31.5938 65.3906,31.3594 Q65.125,31.125 65.125,30.7344 Q65.125,30.3594 65.4063,30.125 Q65.6719,29.875 66.2969,29.8906 L68.9688,23.2344 L67.8594,23.2344 Q67.25,23.2344 66.9844,23 Q66.7188,22.7656 66.7188,22.375 Q66.7188,22 66.9844,21.7656 Q67.25,21.5313 67.8594,21.5313 L71.5313,21.5313 L74.9219,29.8906 Q75.5156,29.8906 75.7031,30.0313 Q76.0938,30.2969 76.0938,30.75 Q76.0938,31.125 75.8281,31.3594 Q75.5781,31.5938 74.9688,31.5938 L72.6719,31.5938 Q72.0625,31.5938 71.7969,31.3594 Q71.5313,31.125 71.5313,30.7344 Q71.5313,30.3594 71.7969,30.125 Q72.0625,29.8906 72.6719,29.8906 L73.0938,29.8906 L72.6875,28.8594 Z M71.9688,27.1563 L70.6094,23.7813 L69.2344,27.1563 L71.9688,27.1563 Z "/><text fill="#000000" font-family="sans-serif" font-size="14" font-style="italic" lengthAdjust="spacingAndGlyphs" textLength="27" x="154" y="26.5332">Icon</text><text fill="#000000" font-family="sans-serif" font-size="10" font-style="italic" lengthAdjust="spacingAndGlyphs" textLength="166" x="84.5" y="39.9902">nz.ac.vuw.ecs.swen225.gp20.maze</text></a><!--MD5=[439a2de2fc9e7003c928fc83f8f388b0]
reverse link nz.ac.vuw.ecs.swen225.gp20.maze.Icon to nz.ac.vuw.ecs.swen225.gp20.maze.tiles.Tile--><path codeLine="12" d="M154.5,67.49 C154.5,80.27 154.5,94.39 154.5,106.99 " fill="none" id="nz.ac.vuw.ecs.swen225.gp20.maze.Icon-backto-nz.ac.vuw.ecs.swen225.gp20.maze.tiles.Tile" style="stroke: #A80036; stroke-width: 1.0;"/><polygon fill="none" points="147.5,67.16,154.5,47.16,161.5,67.16,147.5,67.16" style="stroke: #A80036; stroke-width: 1.0;"/><text fill="#888888" font-family="sans-serif" font-size="10" lengthAdjust="spacingAndGlyphs" textLength="190" x="56.5" y="206.2402">UMLDoclet 2.0.12, PlantUML 1.2020.16</text><!--MD5=[5c63760e899a0e2f32f6cc7c7195d56f]
@startuml
    set namespaceSeparator none
    hide empty fields
    hide empty methods

    abstract class "<size:14>Tile\n<size:10>nz.ac.vuw.ecs.swen225.gp20.maze.tiles" as nz.ac.vuw.ecs.swen225.gp20.maze.tiles.Tile [[Tile.html]] {
        {abstract} +isAccessible(): boolean
        {abstract} +inMove(Maze, Point, boolean, Entity, Direction): Moves
    }

    abstract class "<size:14>Icon\n<size:10>nz.ac.vuw.ecs.swen225.gp20.maze" as nz.ac.vuw.ecs.swen225.gp20.maze.Icon [[..\Icon.html]]

    nz.ac.vuw.ecs.swen225.gp20.maze.Icon <|- - nz.ac.vuw.ecs.swen225.gp20.maze.tiles.Tile

    center footer UMLDoclet 2.0.12, PlantUML 1.2020.16
@enduml

PlantUML version 1.2020.16(Mon Aug 24 08:20:43 NZST 2020)
(APACHE source distribution)
Java Runtime: OpenJDK Runtime Environment
JVM: OpenJDK 64-Bit Server VM
Default Encoding: Cp1252
Language: en
Country: US
--></g></svg>