<?xml version="1.0" encoding="UTF-8" standalone="no"?><svg xmlns="http://www.w3.org/2000/svg" xmlns:xlink="http://www.w3.org/1999/xlink" contentScriptType="application/ecmascript" contentStyleType="text/css" height="548px" preserveAspectRatio="none" style="width:678px;height:548px;" version="1.1" viewBox="0 0 678 548" width="678px" zoomAndPan="magnify"><defs><filter height="300%" id="fkutjge091bsz" width="300%" x="-1" y="-1"><feGaussianBlur result="blurOut" stdDeviation="2.0"/><feColorMatrix in="blurOut" result="blurOut2" type="matrix" values="0 0 0 0 0 0 0 0 0 0 0 0 0 0 0 0 0 0 .4 0"/><feOffset dx="4.0" dy="4.0" in="blurOut2" result="blurOut3"/><feBlend in="SourceGraphic" in2="blurOut3" mode="normal"/></filter></defs><g><!--MD5=[832757d115beb7bc045eef4d6b42e302]
cluster nz.ac.vuw.ecs.swen225.gp20.maze--><polygon fill="#FFFFFF" filter="url(#fkutjge091bsz)" points="239,6,486,6,493,29.6094,656,29.6094,656,369,239,369,239,6" style="stroke: #000000; stroke-width: 1.5;"/><line style="stroke: #000000; stroke-width: 1.5;" x1="239" x2="493" y1="29.6094" y2="29.6094"/><text fill="#000000" font-family="sans-serif" font-size="14" font-weight="bold" lengthAdjust="spacingAndGlyphs" textLength="241" x="243" y="22.5332">nz.ac.vuw.ecs.swen225.gp20.maze</text><!--MD5=[f8dbdf05bf4709e52a14a2cbd4cff57c]
cluster nz.ac.vuw.ecs.swen225.gp20.maze.tiles--><polygon fill="#FFFFFF" filter="url(#fkutjge091bsz)" points="16,419,297,419,304,442.6094,307,442.6094,307,519,16,519,16,419" style="stroke: #000000; stroke-width: 1.5;"/><line style="stroke: #000000; stroke-width: 1.5;" x1="16" x2="304" y1="442.6094" y2="442.6094"/><text fill="#000000" font-family="sans-serif" font-size="14" font-weight="bold" lengthAdjust="spacingAndGlyphs" textLength="275" x="20" y="435.5332">nz.ac.vuw.ecs.swen225.gp20.maze.tiles</text><!--MD5=[17cfabc44ba45091a6cfa9d03d9da099]
cluster nz.ac.vuw.ecs.swen225.gp20.maze.entities--><polygon fill="#FFFFFF" filter="url(#fkutjge091bsz)" points="331,419,635,419,642,442.6094,645,442.6094,645,519,331,519,331,419" style="stroke: #000000; stroke-width: 1.5;"/><line style="stroke: #000000; stroke-width: 1.5;" x1="331" x2="642" y1="442.6094" y2="442.6094"/><text fill="#000000" font-family="sans-serif" font-size="14" font-weight="bold" lengthAdjust="spacingAndGlyphs" textLength="298" x="335" y="435.5332">nz.ac.vuw.ecs.swen225.gp20.maze.entities</text><!--MD5=[3962b7cb248e7459e5dcfafee992fe8e]
class nz.ac.vuw.ecs.swen225.gp20.maze.Icon--><a href="Icon.html" target="_top" title="Icon.html" xlink:actuate="onRequest" xlink:href="Icon.html" xlink:show="new" xlink:title="Icon.html" xlink:type="simple"><rect codeLine="3" fill="#FEFECE" filter="url(#fkutjge091bsz)" height="61.8359" id="nz.ac.vuw.ecs.swen225.gp20.maze.Icon" style="stroke: #A80036; stroke-width: 1.5;" width="103" x="536.5" y="166.5"/><ellipse cx="572.65" cy="182.5" fill="#A9DCDF" rx="11" ry="11" style="stroke: #A80036; stroke-width: 1.0;"/><path d="M574.8375,184.2656 L570.6969,184.2656 L570.275,185.2969 L570.6969,185.2969 Q571.3063,185.2969 571.5719,185.5313 Q571.8375,185.7656 571.8375,186.1563 Q571.8375,186.5313 571.5719,186.7656 Q571.3063,187 570.6969,187 L568.4,187 Q567.7906,187 567.5406,186.7656 Q567.275,186.5313 567.275,186.1406 Q567.275,185.7656 567.5563,185.5313 Q567.8219,185.2813 568.4469,185.2969 L571.1188,178.6406 L570.0094,178.6406 Q569.4,178.6406 569.1344,178.4063 Q568.8688,178.1719 568.8688,177.7813 Q568.8688,177.4063 569.1344,177.1719 Q569.4,176.9375 570.0094,176.9375 L573.6813,176.9375 L577.0719,185.2969 Q577.6656,185.2969 577.8531,185.4375 Q578.2438,185.7031 578.2438,186.1563 Q578.2438,186.5313 577.9781,186.7656 Q577.7281,187 577.1188,187 L574.8219,187 Q574.2125,187 573.9469,186.7656 Q573.6813,186.5313 573.6813,186.1406 Q573.6813,185.7656 573.9469,185.5313 Q574.2125,185.2969 574.8219,185.2969 L575.2438,185.2969 L574.8375,184.2656 Z M574.1188,182.5625 L572.7594,179.1875 L571.3844,182.5625 L574.1188,182.5625 Z "/><text fill="#000000" font-family="sans-serif" font-size="12" font-style="italic" lengthAdjust="spacingAndGlyphs" textLength="24" x="591.35" y="187.4102">Icon</text><line style="stroke: #A80036; stroke-width: 1.5;" x1="537.5" x2="638.5" y1="198.5" y2="198.5"/><line style="stroke: #A80036; stroke-width: 1.5;" x1="537.5" x2="638.5" y1="206.5" y2="206.5"/><ellipse cx="547.5" cy="217.5" fill="#84BE84" rx="3" ry="3" style="stroke: #038048; stroke-width: 1.0;"/><text fill="#000000" font-family="sans-serif" font-size="11" lengthAdjust="spacingAndGlyphs" textLength="77" x="556.5" y="221.9189">getIcon(): Image</text></a><!--MD5=[9a7d1fe5e7e205b9dd3fbf94307f920e]
class nz.ac.vuw.ecs.swen225.gp20.maze.Maze--><a href="Maze.html" target="_top" title="Maze.html" xlink:actuate="onRequest" xlink:href="Maze.html" xlink:show="new" xlink:title="Maze.html" xlink:type="simple"><rect codeLine="7" fill="#FEFECE" filter="url(#fkutjge091bsz)" height="310.8828" id="nz.ac.vuw.ecs.swen225.gp20.maze.Maze" style="stroke: #A80036; stroke-width: 1.5;" width="246" x="255" y="42"/><ellipse cx="359.75" cy="58" fill="#ADD1B2" rx="11" ry="11" style="stroke: #A80036; stroke-width: 1.0;"/><path d="M362.5156,53.875 Q362.6719,53.6563 362.8594,53.5469 Q363.0469,53.4375 363.2656,53.4375 Q363.6406,53.4375 363.875,53.7031 Q364.1094,53.9531 364.1094,54.5625 L364.1094,56.0156 Q364.1094,56.625 363.875,56.8906 Q363.6406,57.1563 363.2656,57.1563 Q362.9219,57.1563 362.7188,56.9531 Q362.5156,56.7656 362.4063,56.25 Q362.3594,55.8906 362.1719,55.7031 Q361.8438,55.3281 361.2344,55.1094 Q360.625,54.8906 360,54.8906 Q359.2344,54.8906 358.5938,55.2188 Q357.9688,55.5469 357.4688,56.2969 Q356.9844,57.0469 356.9844,58.0781 L356.9844,59.1719 Q356.9844,60.4063 357.875,61.2344 Q358.7656,62.0469 360.3594,62.0469 Q361.2969,62.0469 361.9531,61.7969 Q362.3438,61.6406 362.7656,61.2031 Q363.0313,60.9375 363.1719,60.8594 Q363.3281,60.7813 363.5313,60.7813 Q363.8594,60.7813 364.1094,61.0469 Q364.375,61.2969 364.375,61.6406 Q364.375,61.9844 364.0313,62.3906 Q363.5313,62.9688 362.7344,63.2969 Q361.6563,63.75 360.3594,63.75 Q358.8438,63.75 357.6406,63.125 Q356.6563,62.625 355.9688,61.5625 Q355.2813,60.4844 355.2813,59.2031 L355.2813,58.0469 Q355.2813,56.7188 355.8906,55.5781 Q356.5156,54.4219 357.6094,53.8125 Q358.7031,53.1875 359.9375,53.1875 Q360.6719,53.1875 361.3125,53.3594 Q361.9688,53.5156 362.5156,53.875 Z "/><text fill="#000000" font-family="sans-serif" font-size="12" lengthAdjust="spacingAndGlyphs" textLength="28" x="380.25" y="62.9102">Maze</text><line style="stroke: #A80036; stroke-width: 1.5;" x1="256" x2="500" y1="74" y2="74"/><line style="stroke: #A80036; stroke-width: 1.5;" x1="256" x2="500" y1="82" y2="82"/><ellipse cx="266" cy="93" fill="#84BE84" rx="3" ry="3" style="stroke: #038048; stroke-width: 1.0;"/><text fill="#000000" font-family="sans-serif" font-size="11" lengthAdjust="spacingAndGlyphs" textLength="220" x="275" y="97.4189">Maze(int, Point, Point, int, int, Tile[], List&lt;NPC&gt;)</text><ellipse cx="266" cy="106.8359" fill="#84BE84" rx="3" ry="3" style="stroke: #038048; stroke-width: 1.0;"/><text fill="#000000" font-family="sans-serif" font-size="11" lengthAdjust="spacingAndGlyphs" textLength="127" x="275" y="111.2549">moveChap(Direction): void</text><ellipse cx="266" cy="120.6719" fill="#84BE84" rx="3" ry="3" style="stroke: #038048; stroke-width: 1.0;"/><text fill="#000000" font-family="sans-serif" font-size="11" lengthAdjust="spacingAndGlyphs" textLength="86" x="275" y="125.0908">moveNPCs(): void</text><ellipse cx="266" cy="134.5078" fill="#84BE84" rx="3" ry="3" style="stroke: #038048; stroke-width: 1.0;"/><text fill="#000000" font-family="sans-serif" font-size="11" lengthAdjust="spacingAndGlyphs" textLength="120" x="275" y="138.9268">pickUpItem(Point): Moves</text><ellipse cx="266" cy="148.3438" fill="#84BE84" rx="3" ry="3" style="stroke: #038048; stroke-width: 1.0;"/><text fill="#000000" font-family="sans-serif" font-size="11" lengthAdjust="spacingAndGlyphs" text-decoration="underline" textLength="127" x="275" y="152.7627">getKeyIcon(Colour): Image</text><ellipse cx="266" cy="162.1797" fill="#84BE84" rx="3" ry="3" style="stroke: #038048; stroke-width: 1.0;"/><text fill="#000000" font-family="sans-serif" font-size="11" lengthAdjust="spacingAndGlyphs" textLength="89" x="275" y="166.5986">getTile(int, int): Tile</text><ellipse cx="266" cy="176.0156" fill="#84BE84" rx="3" ry="3" style="stroke: #038048; stroke-width: 1.0;"/><text fill="#000000" font-family="sans-serif" font-size="11" lengthAdjust="spacingAndGlyphs" textLength="114" x="275" y="180.4346">getChapPosition(): Point</text><ellipse cx="266" cy="189.8516" fill="#84BE84" rx="3" ry="3" style="stroke: #038048; stroke-width: 1.0;"/><text fill="#000000" font-family="sans-serif" font-size="11" lengthAdjust="spacingAndGlyphs" textLength="103" x="275" y="194.2705">getLevelNumber(): int</text><ellipse cx="266" cy="203.6875" fill="#84BE84" rx="3" ry="3" style="stroke: #038048; stroke-width: 1.0;"/><text fill="#000000" font-family="sans-serif" font-size="11" lengthAdjust="spacingAndGlyphs" textLength="106" x="275" y="208.1064">getTimeAvailable(): int</text><ellipse cx="266" cy="217.5234" fill="#84BE84" rx="3" ry="3" style="stroke: #038048; stroke-width: 1.0;"/><text fill="#000000" font-family="sans-serif" font-size="11" lengthAdjust="spacingAndGlyphs" textLength="101" x="275" y="221.9424">setTimeLeft(int): void</text><ellipse cx="266" cy="231.3594" fill="#84BE84" rx="3" ry="3" style="stroke: #038048; stroke-width: 1.0;"/><text fill="#000000" font-family="sans-serif" font-size="11" lengthAdjust="spacingAndGlyphs" textLength="81" x="275" y="235.7783">getTimeLeft(): int</text><ellipse cx="266" cy="245.1953" fill="#84BE84" rx="3" ry="3" style="stroke: #038048; stroke-width: 1.0;"/><text fill="#000000" font-family="sans-serif" font-size="11" lengthAdjust="spacingAndGlyphs" textLength="154" x="275" y="249.6143">setTreasuresPickedUp(int): void</text><ellipse cx="266" cy="259.0313" fill="#84BE84" rx="3" ry="3" style="stroke: #038048; stroke-width: 1.0;"/><text fill="#000000" font-family="sans-serif" font-size="11" lengthAdjust="spacingAndGlyphs" textLength="134" x="275" y="263.4502">getTreasuresPickedUp(): int</text><ellipse cx="266" cy="272.8672" fill="#84BE84" rx="3" ry="3" style="stroke: #038048; stroke-width: 1.0;"/><text fill="#000000" font-family="sans-serif" font-size="11" lengthAdjust="spacingAndGlyphs" textLength="129" x="275" y="277.2861">getTREASURES_NUM(): int</text><ellipse cx="266" cy="286.7031" fill="#84BE84" rx="3" ry="3" style="stroke: #038048; stroke-width: 1.0;"/><text fill="#000000" font-family="sans-serif" font-size="11" lengthAdjust="spacingAndGlyphs" textLength="110" x="275" y="291.1221">getChapWin(): boolean</text><ellipse cx="266" cy="300.5391" fill="#84BE84" rx="3" ry="3" style="stroke: #038048; stroke-width: 1.0;"/><text fill="#000000" font-family="sans-serif" font-size="11" lengthAdjust="spacingAndGlyphs" textLength="130" x="275" y="304.958">setChapWin(boolean): void</text><ellipse cx="266" cy="314.375" fill="#84BE84" rx="3" ry="3" style="stroke: #038048; stroke-width: 1.0;"/><text fill="#000000" font-family="sans-serif" font-size="11" lengthAdjust="spacingAndGlyphs" textLength="116" x="275" y="318.7939">getChapLose(): boolean</text><ellipse cx="266" cy="328.2109" fill="#84BE84" rx="3" ry="3" style="stroke: #038048; stroke-width: 1.0;"/><text fill="#000000" font-family="sans-serif" font-size="11" lengthAdjust="spacingAndGlyphs" textLength="136" x="275" y="332.6299">setChapLose(boolean): void</text><ellipse cx="266" cy="342.0469" fill="#84BE84" rx="3" ry="3" style="stroke: #038048; stroke-width: 1.0;"/><text fill="#000000" font-family="sans-serif" font-size="11" lengthAdjust="spacingAndGlyphs" textLength="148" x="275" y="346.4658">getChapCurrentMove(): Moves</text></a><!--MD5=[519247a97ef5ccd8f4b98f2f0091eec4]
class nz.ac.vuw.ecs.swen225.gp20.maze.tiles.Tile--><rect fill="#FEFECE" filter="url(#fkutjge091bsz)" height="48" id="nz.ac.vuw.ecs.swen225.gp20.maze.tiles.Tile" style="stroke: #A80036; stroke-width: 1.5;" width="52" x="239" y="455"/><ellipse cx="254" cy="471" fill="#ADD1B2" rx="11" ry="11" style="stroke: #A80036; stroke-width: 1.0;"/><path d="M256.7656,466.875 Q256.9219,466.6563 257.1094,466.5469 Q257.2969,466.4375 257.5156,466.4375 Q257.8906,466.4375 258.125,466.7031 Q258.3594,466.9531 258.3594,467.5625 L258.3594,469.0156 Q258.3594,469.625 258.125,469.8906 Q257.8906,470.1563 257.5156,470.1563 Q257.1719,470.1563 256.9688,469.9531 Q256.7656,469.7656 256.6563,469.25 Q256.6094,468.8906 256.4219,468.7031 Q256.0938,468.3281 255.4844,468.1094 Q254.875,467.8906 254.25,467.8906 Q253.4844,467.8906 252.8438,468.2188 Q252.2188,468.5469 251.7188,469.2969 Q251.2344,470.0469 251.2344,471.0781 L251.2344,472.1719 Q251.2344,473.4063 252.125,474.2344 Q253.0156,475.0469 254.6094,475.0469 Q255.5469,475.0469 256.2031,474.7969 Q256.5938,474.6406 257.0156,474.2031 Q257.2813,473.9375 257.4219,473.8594 Q257.5781,473.7813 257.7813,473.7813 Q258.1094,473.7813 258.3594,474.0469 Q258.625,474.2969 258.625,474.6406 Q258.625,474.9844 258.2813,475.3906 Q257.7813,475.9688 256.9844,476.2969 Q255.9063,476.75 254.6094,476.75 Q253.0938,476.75 251.8906,476.125 Q250.9063,475.625 250.2188,474.5625 Q249.5313,473.4844 249.5313,472.2031 L249.5313,471.0469 Q249.5313,469.7188 250.1406,468.5781 Q250.7656,467.4219 251.8594,466.8125 Q252.9531,466.1875 254.1875,466.1875 Q254.9219,466.1875 255.5625,466.3594 Q256.2188,466.5156 256.7656,466.875 Z "/><text fill="#000000" font-family="sans-serif" font-size="12" lengthAdjust="spacingAndGlyphs" textLength="20" x="268" y="475.9102">Tile</text><line style="stroke: #A80036; stroke-width: 1.5;" x1="240" x2="290" y1="487" y2="487"/><line style="stroke: #A80036; stroke-width: 1.5;" x1="240" x2="290" y1="495" y2="495"/><!--MD5=[11059c61c9c0f00e027c672fcc554ded]
class nz.ac.vuw.ecs.swen225.gp20.maze.entities.Chap--><rect fill="#FEFECE" filter="url(#fkutjge091bsz)" height="48" id="nz.ac.vuw.ecs.swen225.gp20.maze.entities.Chap" style="stroke: #A80036; stroke-width: 1.5;" width="62" x="347" y="455"/><ellipse cx="362" cy="471" fill="#ADD1B2" rx="11" ry="11" style="stroke: #A80036; stroke-width: 1.0;"/><path d="M364.7656,466.875 Q364.9219,466.6563 365.1094,466.5469 Q365.2969,466.4375 365.5156,466.4375 Q365.8906,466.4375 366.125,466.7031 Q366.3594,466.9531 366.3594,467.5625 L366.3594,469.0156 Q366.3594,469.625 366.125,469.8906 Q365.8906,470.1563 365.5156,470.1563 Q365.1719,470.1563 364.9688,469.9531 Q364.7656,469.7656 364.6563,469.25 Q364.6094,468.8906 364.4219,468.7031 Q364.0938,468.3281 363.4844,468.1094 Q362.875,467.8906 362.25,467.8906 Q361.4844,467.8906 360.8438,468.2188 Q360.2188,468.5469 359.7188,469.2969 Q359.2344,470.0469 359.2344,471.0781 L359.2344,472.1719 Q359.2344,473.4063 360.125,474.2344 Q361.0156,475.0469 362.6094,475.0469 Q363.5469,475.0469 364.2031,474.7969 Q364.5938,474.6406 365.0156,474.2031 Q365.2813,473.9375 365.4219,473.8594 Q365.5781,473.7813 365.7813,473.7813 Q366.1094,473.7813 366.3594,474.0469 Q366.625,474.2969 366.625,474.6406 Q366.625,474.9844 366.2813,475.3906 Q365.7813,475.9688 364.9844,476.2969 Q363.9063,476.75 362.6094,476.75 Q361.0938,476.75 359.8906,476.125 Q358.9063,475.625 358.2188,474.5625 Q357.5313,473.4844 357.5313,472.2031 L357.5313,471.0469 Q357.5313,469.7188 358.1406,468.5781 Q358.7656,467.4219 359.8594,466.8125 Q360.9531,466.1875 362.1875,466.1875 Q362.9219,466.1875 363.5625,466.3594 Q364.2188,466.5156 364.7656,466.875 Z "/><text fill="#000000" font-family="sans-serif" font-size="12" lengthAdjust="spacingAndGlyphs" textLength="30" x="376" y="475.9102">Chap</text><line style="stroke: #A80036; stroke-width: 1.5;" x1="348" x2="408" y1="487" y2="487"/><line style="stroke: #A80036; stroke-width: 1.5;" x1="348" x2="408" y1="495" y2="495"/><!--MD5=[c18c575e342f2c90232fa0efd00d874e]
class nz.ac.vuw.ecs.swen225.gp20.maze.entities.NPC--><rect fill="#FEFECE" filter="url(#fkutjge091bsz)" height="48" id="nz.ac.vuw.ecs.swen225.gp20.maze.entities.NPC" style="stroke: #A80036; stroke-width: 1.5;" width="58" x="444" y="455"/><ellipse cx="459" cy="471" fill="#ADD1B2" rx="11" ry="11" style="stroke: #A80036; stroke-width: 1.0;"/><path d="M461.7656,466.875 Q461.9219,466.6563 462.1094,466.5469 Q462.2969,466.4375 462.5156,466.4375 Q462.8906,466.4375 463.125,466.7031 Q463.3594,466.9531 463.3594,467.5625 L463.3594,469.0156 Q463.3594,469.625 463.125,469.8906 Q462.8906,470.1563 462.5156,470.1563 Q462.1719,470.1563 461.9688,469.9531 Q461.7656,469.7656 461.6563,469.25 Q461.6094,468.8906 461.4219,468.7031 Q461.0938,468.3281 460.4844,468.1094 Q459.875,467.8906 459.25,467.8906 Q458.4844,467.8906 457.8438,468.2188 Q457.2188,468.5469 456.7188,469.2969 Q456.2344,470.0469 456.2344,471.0781 L456.2344,472.1719 Q456.2344,473.4063 457.125,474.2344 Q458.0156,475.0469 459.6094,475.0469 Q460.5469,475.0469 461.2031,474.7969 Q461.5938,474.6406 462.0156,474.2031 Q462.2813,473.9375 462.4219,473.8594 Q462.5781,473.7813 462.7813,473.7813 Q463.1094,473.7813 463.3594,474.0469 Q463.625,474.2969 463.625,474.6406 Q463.625,474.9844 463.2813,475.3906 Q462.7813,475.9688 461.9844,476.2969 Q460.9063,476.75 459.6094,476.75 Q458.0938,476.75 456.8906,476.125 Q455.9063,475.625 455.2188,474.5625 Q454.5313,473.4844 454.5313,472.2031 L454.5313,471.0469 Q454.5313,469.7188 455.1406,468.5781 Q455.7656,467.4219 456.8594,466.8125 Q457.9531,466.1875 459.1875,466.1875 Q459.9219,466.1875 460.5625,466.3594 Q461.2188,466.5156 461.7656,466.875 Z "/><text fill="#000000" font-family="sans-serif" font-size="12" lengthAdjust="spacingAndGlyphs" textLength="26" x="473" y="475.9102">NPC</text><line style="stroke: #A80036; stroke-width: 1.5;" x1="445" x2="501" y1="487" y2="487"/><line style="stroke: #A80036; stroke-width: 1.5;" x1="445" x2="501" y1="495" y2="495"/><!--MD5=[ce6c6592d35572fb400e9465ccf2abf9]
link nz.ac.vuw.ecs.swen225.gp20.maze.Maze to nz.ac.vuw.ecs.swen225.gp20.maze.tiles.Tile--><path codeLine="29" d="M315.39,353.37 C300.36,390.53 285.92,426.24 276.38,449.84 " fill="none" id="nz.ac.vuw.ecs.swen225.gp20.maze.Maze-to-nz.ac.vuw.ecs.swen225.gp20.maze.tiles.Tile" style="stroke: #A80036; stroke-width: 1.0;"/><polygon fill="#A80036" points="274.42,454.69,281.5019,447.8456,276.2942,450.0546,274.0852,444.8468,274.42,454.69" style="stroke: #A80036; stroke-width: 1.0;"/><text fill="#000000" font-family="sans-serif" font-size="13" lengthAdjust="spacingAndGlyphs" textLength="32" x="302" y="399.4951">board</text><text fill="#000000" font-family="sans-serif" font-size="13" lengthAdjust="spacingAndGlyphs" textLength="5" x="271.1933" y="443.9507">*</text><!--MD5=[8557889fe93d9cbe1deb20d312d0a563]
link nz.ac.vuw.ecs.swen225.gp20.maze.Maze to nz.ac.vuw.ecs.swen225.gp20.maze.entities.Chap--><path codeLine="30" d="M378,353.37 C378,390.37 378,425.95 378,449.55 " fill="none" id="nz.ac.vuw.ecs.swen225.gp20.maze.Maze-to-nz.ac.vuw.ecs.swen225.gp20.maze.entities.Chap" style="stroke: #A80036; stroke-width: 1.0;"/><polygon fill="#A80036" points="378,454.69,382,445.69,378,449.69,374,445.69,378,454.69" style="stroke: #A80036; stroke-width: 1.0;"/><text fill="#000000" font-family="sans-serif" font-size="13" lengthAdjust="spacingAndGlyphs" textLength="28" x="379" y="399.4951">chap</text><!--MD5=[888e7dad223a73c222b815b1d9314739]
link nz.ac.vuw.ecs.swen225.gp20.maze.Maze to nz.ac.vuw.ecs.swen225.gp20.maze.entities.NPC--><path codeLine="31" d="M430.64,353.37 C443.27,390.53 455.41,426.24 463.43,449.84 " fill="none" id="nz.ac.vuw.ecs.swen225.gp20.maze.Maze-to-nz.ac.vuw.ecs.swen225.gp20.maze.entities.NPC" style="stroke: #A80036; stroke-width: 1.0;"/><polygon fill="#A80036" points="465.08,454.69,465.9578,444.8803,463.4646,449.9581,458.3868,447.465,465.08,454.69" style="stroke: #A80036; stroke-width: 1.0;"/><text fill="#000000" font-family="sans-serif" font-size="13" lengthAdjust="spacingAndGlyphs" textLength="28" x="445" y="399.4951">npcs</text><text fill="#000000" font-family="sans-serif" font-size="13" lengthAdjust="spacingAndGlyphs" textLength="5" x="457.4099" y="443.9507">*</text><text fill="#888888" font-family="sans-serif" font-size="10" lengthAdjust="spacingAndGlyphs" textLength="190" x="235" y="535.3809">UMLDoclet 2.0.12, PlantUML 1.2020.16</text><!--MD5=[836ff3a0a5648a0d8feb39ccd5a676cb]
@startuml
    namespace nz.ac.vuw.ecs.swen225.gp20.maze {

        abstract class Icon [[Icon.html]] {
            +getIcon(): Image
        }

        class Maze [[Maze.html]] {
            +Maze(int, Point, Point, int, int, Tile[], List<NPC>)
            +moveChap(Direction): void
            +moveNPCs(): void
            +pickUpItem(Point): Moves
            {static} +getKeyIcon(Colour): Image
            +getTile(int, int): Tile
            +getChapPosition(): Point
            +getLevelNumber(): int
            +getTimeAvailable(): int
            +setTimeLeft(int): void
            +getTimeLeft(): int
            +setTreasuresPickedUp(int): void
            +getTreasuresPickedUp(): int
            +getTREASURES_NUM(): int
            +getChapWin(): boolean
            +setChapWin(boolean): void
            +getChapLose(): boolean
            +setChapLose(boolean): void
            +getChapCurrentMove(): Moves
        }

        Maze - -> "*" nz.ac.vuw.ecs.swen225.gp20.maze.tiles.Tile: board
        Maze - -> nz.ac.vuw.ecs.swen225.gp20.maze.entities.Chap: chap
        Maze - -> "*" nz.ac.vuw.ecs.swen225.gp20.maze.entities.NPC: npcs
    }

    center footer UMLDoclet 2.0.12, PlantUML 1.2020.16
@enduml

PlantUML version 1.2020.16(Mon Aug 24 08:20:43 NZST 2020)
(APACHE source distribution)
Java Runtime: OpenJDK Runtime Environment
JVM: OpenJDK 64-Bit Server VM
Default Encoding: Cp1252
Language: en
Country: US
--></g></svg>