<?xml version="1.0" encoding="UTF-8" standalone="no"?><svg xmlns="http://www.w3.org/2000/svg" xmlns:xlink="http://www.w3.org/1999/xlink" contentScriptType="application/ecmascript" contentStyleType="text/css" height="232px" preserveAspectRatio="none" style="width:481px;height:232px;" version="1.1" viewBox="0 0 481 232" width="481px" zoomAndPan="magnify"><defs><filter height="300%" id="f3bydwnzc63j0" width="300%" x="-1" y="-1"><feGaussianBlur result="blurOut" stdDeviation="2.0"/><feColorMatrix in="blurOut" result="blurOut2" type="matrix" values="0 0 0 0 0 0 0 0 0 0 0 0 0 0 0 0 0 0 .4 0"/><feOffset dx="4.0" dy="4.0" in="blurOut2" result="blurOut3"/><feBlend in="SourceGraphic" in2="blurOut3" mode="normal"/></filter></defs><g><!--MD5=[fee8ae7db3b91bec36e53459ea256a02]
cluster nz.ac.vuw.ecs.swen225.gp20.recnreplay--><polygon fill="#FFFFFF" filter="url(#f3bydwnzc63j0)" points="16,6,302,6,309,29.6094,459,29.6094,459,203,16,203,16,6" style="stroke: #000000; stroke-width: 1.5;"/><line style="stroke: #000000; stroke-width: 1.5;" x1="16" x2="309" y1="29.6094" y2="29.6094"/><text fill="#000000" font-family="sans-serif" font-size="14" font-weight="bold" lengthAdjust="spacingAndGlyphs" textLength="280" x="20" y="22.5332">nz.ac.vuw.ecs.swen225.gp20.recnreplay</text><!--MD5=[a7411fe031e570e538dbc8c352928d83]
class nz.ac.vuw.ecs.swen225.gp20.recnreplay.Record--><a href="Record.html" target="_top" title="Record.html" xlink:actuate="onRequest" xlink:href="Record.html" xlink:show="new" xlink:title="Record.html" xlink:type="simple"><rect codeLine="3" fill="#FEFECE" filter="url(#f3bydwnzc63j0)" height="144.8516" id="nz.ac.vuw.ecs.swen225.gp20.recnreplay.Record" style="stroke: #A80036; stroke-width: 1.5;" width="178" x="265" y="42"/><ellipse cx="329.75" cy="58" fill="#ADD1B2" rx="11" ry="11" style="stroke: #A80036; stroke-width: 1.0;"/><path d="M332.5156,53.875 Q332.6719,53.6563 332.8594,53.5469 Q333.0469,53.4375 333.2656,53.4375 Q333.6406,53.4375 333.875,53.7031 Q334.1094,53.9531 334.1094,54.5625 L334.1094,56.0156 Q334.1094,56.625 333.875,56.8906 Q333.6406,57.1563 333.2656,57.1563 Q332.9219,57.1563 332.7188,56.9531 Q332.5156,56.7656 332.4063,56.25 Q332.3594,55.8906 332.1719,55.7031 Q331.8438,55.3281 331.2344,55.1094 Q330.625,54.8906 330,54.8906 Q329.2344,54.8906 328.5938,55.2188 Q327.9688,55.5469 327.4688,56.2969 Q326.9844,57.0469 326.9844,58.0781 L326.9844,59.1719 Q326.9844,60.4063 327.875,61.2344 Q328.7656,62.0469 330.3594,62.0469 Q331.2969,62.0469 331.9531,61.7969 Q332.3438,61.6406 332.7656,61.2031 Q333.0313,60.9375 333.1719,60.8594 Q333.3281,60.7813 333.5313,60.7813 Q333.8594,60.7813 334.1094,61.0469 Q334.375,61.2969 334.375,61.6406 Q334.375,61.9844 334.0313,62.3906 Q333.5313,62.9688 332.7344,63.2969 Q331.6563,63.75 330.3594,63.75 Q328.8438,63.75 327.6406,63.125 Q326.6563,62.625 325.9688,61.5625 Q325.2813,60.4844 325.2813,59.2031 L325.2813,58.0469 Q325.2813,56.7188 325.8906,55.5781 Q326.5156,54.4219 327.6094,53.8125 Q328.7031,53.1875 329.9375,53.1875 Q330.6719,53.1875 331.3125,53.3594 Q331.9688,53.5156 332.5156,53.875 Z "/><text fill="#000000" font-family="sans-serif" font-size="12" lengthAdjust="spacingAndGlyphs" textLength="40" x="350.25" y="62.9102">Record</text><line style="stroke: #A80036; stroke-width: 1.5;" x1="266" x2="442" y1="74" y2="74"/><ellipse cx="276" cy="85" fill="none" rx="3" ry="3" style="stroke: #038048; stroke-width: 1.0;"/><text fill="#000000" font-family="sans-serif" font-size="11" lengthAdjust="spacingAndGlyphs" textLength="109" x="285" y="89.4189">moves: List&lt;Direction&gt;</text><ellipse cx="276" cy="98.8359" fill="none" rx="3" ry="3" style="stroke: #038048; stroke-width: 1.0;"/><text fill="#000000" font-family="sans-serif" font-size="11" lengthAdjust="spacingAndGlyphs" textLength="76" x="285" y="103.2549">levelNumber: int</text><line style="stroke: #A80036; stroke-width: 1.5;" x1="266" x2="442" y1="109.6719" y2="109.6719"/><ellipse cx="276" cy="120.6719" fill="#84BE84" rx="3" ry="3" style="stroke: #038048; stroke-width: 1.0;"/><text fill="#000000" font-family="sans-serif" font-size="11" lengthAdjust="spacingAndGlyphs" textLength="54" x="285" y="125.0908">Record(int)</text><ellipse cx="276" cy="134.5078" fill="#84BE84" rx="3" ry="3" style="stroke: #038048; stroke-width: 1.0;"/><text fill="#000000" font-family="sans-serif" font-size="11" lengthAdjust="spacingAndGlyphs" textLength="103" x="285" y="138.9268">writeToFile(File): void</text><ellipse cx="276" cy="148.3438" fill="#84BE84" rx="3" ry="3" style="stroke: #038048; stroke-width: 1.0;"/><text fill="#000000" font-family="sans-serif" font-size="11" lengthAdjust="spacingAndGlyphs" textLength="132" x="285" y="152.7627">getMoves(): List&lt;Direction&gt;</text><ellipse cx="276" cy="162.1797" fill="#84BE84" rx="3" ry="3" style="stroke: #038048; stroke-width: 1.0;"/><text fill="#000000" font-family="sans-serif" font-size="11" lengthAdjust="spacingAndGlyphs" textLength="152" x="285" y="166.5986">setMoves(List&lt;Direction&gt;): void</text><ellipse cx="276" cy="176.0156" fill="#84BE84" rx="3" ry="3" style="stroke: #038048; stroke-width: 1.0;"/><text fill="#000000" font-family="sans-serif" font-size="11" lengthAdjust="spacingAndGlyphs" textLength="120" x="285" y="180.4346">addMove(Direction): void</text></a><!--MD5=[2adb21915bb2cdf4112e0740c5896d93]
class nz.ac.vuw.ecs.swen225.gp20.recnreplay.Replay--><a href="Replay.html" target="_top" title="Replay.html" xlink:actuate="onRequest" xlink:href="Replay.html" xlink:show="new" xlink:title="Replay.html" xlink:type="simple"><rect codeLine="13" fill="#FEFECE" filter="url(#f3bydwnzc63j0)" height="103.3438" id="nz.ac.vuw.ecs.swen225.gp20.recnreplay.Replay" style="stroke: #A80036; stroke-width: 1.5;" width="197" x="32.5" y="63"/><ellipse cx="107.75" cy="79" fill="#ADD1B2" rx="11" ry="11" style="stroke: #A80036; stroke-width: 1.0;"/><path d="M110.5156,74.875 Q110.6719,74.6563 110.8594,74.5469 Q111.0469,74.4375 111.2656,74.4375 Q111.6406,74.4375 111.875,74.7031 Q112.1094,74.9531 112.1094,75.5625 L112.1094,77.0156 Q112.1094,77.625 111.875,77.8906 Q111.6406,78.1563 111.2656,78.1563 Q110.9219,78.1563 110.7188,77.9531 Q110.5156,77.7656 110.4063,77.25 Q110.3594,76.8906 110.1719,76.7031 Q109.8438,76.3281 109.2344,76.1094 Q108.625,75.8906 108,75.8906 Q107.2344,75.8906 106.5938,76.2188 Q105.9688,76.5469 105.4688,77.2969 Q104.9844,78.0469 104.9844,79.0781 L104.9844,80.1719 Q104.9844,81.4063 105.875,82.2344 Q106.7656,83.0469 108.3594,83.0469 Q109.2969,83.0469 109.9531,82.7969 Q110.3438,82.6406 110.7656,82.2031 Q111.0313,81.9375 111.1719,81.8594 Q111.3281,81.7813 111.5313,81.7813 Q111.8594,81.7813 112.1094,82.0469 Q112.375,82.2969 112.375,82.6406 Q112.375,82.9844 112.0313,83.3906 Q111.5313,83.9688 110.7344,84.2969 Q109.6563,84.75 108.3594,84.75 Q106.8438,84.75 105.6406,84.125 Q104.6563,83.625 103.9688,82.5625 Q103.2813,81.4844 103.2813,80.2031 L103.2813,79.0469 Q103.2813,77.7188 103.8906,76.5781 Q104.5156,75.4219 105.6094,74.8125 Q106.7031,74.1875 107.9375,74.1875 Q108.6719,74.1875 109.3125,74.3594 Q109.9688,74.5156 110.5156,74.875 Z "/><text fill="#000000" font-family="sans-serif" font-size="12" lengthAdjust="spacingAndGlyphs" textLength="38" x="128.25" y="83.9102">Replay</text><line style="stroke: #A80036; stroke-width: 1.5;" x1="33.5" x2="228.5" y1="95" y2="95"/><ellipse cx="43.5" cy="106" fill="none" rx="3" ry="3" style="stroke: #038048; stroke-width: 1.0;"/><text fill="#000000" font-family="sans-serif" font-size="11" lengthAdjust="spacingAndGlyphs" textLength="78" x="52.5" y="110.4189">currentLevel: int</text><line style="stroke: #A80036; stroke-width: 1.5;" x1="33.5" x2="228.5" y1="116.8359" y2="116.8359"/><ellipse cx="43.5" cy="127.8359" fill="#84BE84" rx="3" ry="3" style="stroke: #038048; stroke-width: 1.0;"/><text fill="#000000" font-family="sans-serif" font-size="11" lengthAdjust="spacingAndGlyphs" textLength="57" x="52.5" y="132.2549">Replay(File)</text><ellipse cx="43.5" cy="141.6719" fill="#84BE84" rx="3" ry="3" style="stroke: #038048; stroke-width: 1.0;"/><text fill="#000000" font-family="sans-serif" font-size="11" lengthAdjust="spacingAndGlyphs" textLength="86" x="52.5" y="146.0908">loadFile(File): void</text><ellipse cx="43.5" cy="155.5078" fill="#84BE84" rx="3" ry="3" style="stroke: #038048; stroke-width: 1.0;"/><text fill="#000000" font-family="sans-serif" font-size="11" lengthAdjust="spacingAndGlyphs" textLength="171" x="52.5" y="159.9268">processActionsJson(): List&lt;String&gt;</text></a><text fill="#888888" font-family="sans-serif" font-size="10" lengthAdjust="spacingAndGlyphs" textLength="190" x="136.5" y="219.3809">UMLDoclet 2.0.12, PlantUML 1.2020.16</text><!--MD5=[812316409e4cb278b01f43efe6eeeffd]
@startuml
    namespace nz.ac.vuw.ecs.swen225.gp20.recnreplay {

        class Record [[Record.html]] {
            +moves: List<Direction>
            +levelNumber: int
            +Record(int)
            +writeToFile(File): void
            +getMoves(): List<Direction>
            +setMoves(List<Direction>): void
            +addMove(Direction): void
        }

        class Replay [[Replay.html]] {
            +currentLevel: int
            +Replay(File)
            +loadFile(File): void
            +processActionsJson(): List<String>
        }

    }

    center footer UMLDoclet 2.0.12, PlantUML 1.2020.16
@enduml

PlantUML version 1.2020.16(Mon Aug 24 08:20:43 NZST 2020)
(APACHE source distribution)
Java Runtime: OpenJDK Runtime Environment
JVM: OpenJDK 64-Bit Server VM
Default Encoding: Cp1252
Language: en
Country: US
--></g></svg>