<?xml version="1.0" encoding="UTF-8" standalone="no"?><svg xmlns="http://www.w3.org/2000/svg" xmlns:xlink="http://www.w3.org/1999/xlink" contentScriptType="application/ecmascript" contentStyleType="text/css" height="296px" preserveAspectRatio="none" style="width:300px;height:296px;" version="1.1" viewBox="0 0 300 296" width="300px" zoomAndPan="magnify"><defs><filter height="300%" id="fvma93teuup3l" width="300%" x="-1" y="-1"><feGaussianBlur result="blurOut" stdDeviation="2.0"/><feColorMatrix in="blurOut" result="blurOut2" type="matrix" values="0 0 0 0 0 0 0 0 0 0 0 0 0 0 0 0 0 0 .4 0"/><feOffset dx="4.0" dy="4.0" in="blurOut2" result="blurOut3"/><feBlend in="SourceGraphic" in2="blurOut3" mode="normal"/></filter></defs><g><!--MD5=[068adf06d6fe77e53ccb3375e66cfece]
class nz.ac.vuw.ecs.swen225.gp20.maze.entities.Entity--><a href="Entity.html" target="_top" title="Entity.html" xlink:actuate="onRequest" xlink:href="Entity.html" xlink:show="new" xlink:title="Entity.html" xlink:type="simple"><rect codeLine="5" fill="#FEFECE" filter="url(#fvma93teuup3l)" height="153.0391" id="nz.ac.vuw.ecs.swen225.gp20.maze.entities.Entity" style="stroke: #A80036; stroke-width: 1.5;" width="274" x="7" y="107"/><ellipse cx="39.1" cy="127.0938" fill="#A9DCDF" rx="11" ry="11" style="stroke: #A80036; stroke-width: 1.0;"/><path d="M41.2875,128.8594 L37.1469,128.8594 L36.725,129.8906 L37.1469,129.8906 Q37.7563,129.8906 38.0219,130.125 Q38.2875,130.3594 38.2875,130.75 Q38.2875,131.125 38.0219,131.3594 Q37.7563,131.5938 37.1469,131.5938 L34.85,131.5938 Q34.2406,131.5938 33.9906,131.3594 Q33.725,131.125 33.725,130.7344 Q33.725,130.3594 34.0063,130.125 Q34.2719,129.875 34.8969,129.8906 L37.5688,123.2344 L36.4594,123.2344 Q35.85,123.2344 35.5844,123 Q35.3188,122.7656 35.3188,122.375 Q35.3188,122 35.5844,121.7656 Q35.85,121.5313 36.4594,121.5313 L40.1313,121.5313 L43.5219,129.8906 Q44.1156,129.8906 44.3031,130.0313 Q44.6938,130.2969 44.6938,130.75 Q44.6938,131.125 44.4281,131.3594 Q44.1781,131.5938 43.5688,131.5938 L41.2719,131.5938 Q40.6625,131.5938 40.3969,131.3594 Q40.1313,131.125 40.1313,130.7344 Q40.1313,130.3594 40.3969,130.125 Q40.6625,129.8906 41.2719,129.8906 L41.6938,129.8906 L41.2875,128.8594 Z M40.5688,127.1563 L39.2094,123.7813 L37.8344,127.1563 L40.5688,127.1563 Z "/><text fill="#000000" font-family="sans-serif" font-size="14" font-style="italic" lengthAdjust="spacingAndGlyphs" textLength="35" x="141.4" y="126.5332">Entity</text><text fill="#000000" font-family="sans-serif" font-size="10" font-style="italic" lengthAdjust="spacingAndGlyphs" textLength="204" x="56.9" y="139.9902">nz.ac.vuw.ecs.swen225.gp20.maze.entities</text><line style="stroke: #A80036; stroke-width: 1.5;" x1="8" x2="280" y1="147.1875" y2="147.1875"/><ellipse cx="18" cy="158.1875" fill="none" rx="3" ry="3" style="stroke: #038048; stroke-width: 1.0;"/><text fill="#000000" font-family="sans-serif" font-size="11" lengthAdjust="spacingAndGlyphs" textLength="92" x="27" y="162.6064">entityPosition: Point</text><line style="stroke: #A80036; stroke-width: 1.5;" x1="8" x2="280" y1="169.0234" y2="169.0234"/><ellipse cx="18" cy="180.0234" fill="#84BE84" rx="3" ry="3" style="stroke: #038048; stroke-width: 1.0;"/><text fill="#000000" font-family="sans-serif" font-size="11" lengthAdjust="spacingAndGlyphs" textLength="57" x="27" y="184.4424">Entity(Point)</text><ellipse cx="18" cy="193.8594" fill="#84BE84" rx="3" ry="3" style="stroke: #038048; stroke-width: 1.0;"/><text fill="#000000" font-family="sans-serif" font-size="11" lengthAdjust="spacingAndGlyphs" textLength="248" x="27" y="198.2783">moveEntity(Direction, Entity, Maze, boolean): Moves</text><ellipse cx="18" cy="207.6953" fill="#84BE84" rx="3" ry="3" style="stroke: #038048; stroke-width: 1.0;"/><text fill="#000000" font-family="sans-serif" font-size="11" lengthAdjust="spacingAndGlyphs" textLength="115" x="27" y="212.1143">getEntityPosition(): Point</text><ellipse cx="18" cy="221.5313" fill="#84BE84" rx="3" ry="3" style="stroke: #038048; stroke-width: 1.0;"/><text fill="#000000" font-family="sans-serif" font-size="11" lengthAdjust="spacingAndGlyphs" textLength="135" x="27" y="225.9502">setEntityPosition(Point): void</text><ellipse cx="18" cy="235.3672" fill="#84BE84" rx="3" ry="3" style="stroke: #038048; stroke-width: 1.0;"/><text fill="#000000" font-family="sans-serif" font-size="11" lengthAdjust="spacingAndGlyphs" textLength="138" x="27" y="239.7861">setLastMove(Direction): void</text><ellipse cx="18" cy="249.2031" fill="#84BE84" rx="3" ry="3" style="stroke: #038048; stroke-width: 1.0;"/><text fill="#000000" font-family="sans-serif" font-size="11" lengthAdjust="spacingAndGlyphs" textLength="77" x="27" y="253.6221">getIcon(): Image</text></a><!--MD5=[3962b7cb248e7459e5dcfafee992fe8e]
class nz.ac.vuw.ecs.swen225.gp20.maze.Icon--><a href="..\Icon.html" target="_top" title="..\Icon.html" xlink:actuate="onRequest" xlink:href="..\Icon.html" xlink:show="new" xlink:title="..\Icon.html" xlink:type="simple"><rect codeLine="15" fill="#FEFECE" filter="url(#fvma93teuup3l)" height="40.1875" id="nz.ac.vuw.ecs.swen225.gp20.maze.Icon" style="stroke: #A80036; stroke-width: 1.5;" width="198" x="45" y="7"/><ellipse cx="60" cy="27.0938" fill="#A9DCDF" rx="11" ry="11" style="stroke: #A80036; stroke-width: 1.0;"/><path d="M62.1875,28.8594 L58.0469,28.8594 L57.625,29.8906 L58.0469,29.8906 Q58.6563,29.8906 58.9219,30.125 Q59.1875,30.3594 59.1875,30.75 Q59.1875,31.125 58.9219,31.3594 Q58.6563,31.5938 58.0469,31.5938 L55.75,31.5938 Q55.1406,31.5938 54.8906,31.3594 Q54.625,31.125 54.625,30.7344 Q54.625,30.3594 54.9063,30.125 Q55.1719,29.875 55.7969,29.8906 L58.4688,23.2344 L57.3594,23.2344 Q56.75,23.2344 56.4844,23 Q56.2188,22.7656 56.2188,22.375 Q56.2188,22 56.4844,21.7656 Q56.75,21.5313 57.3594,21.5313 L61.0313,21.5313 L64.4219,29.8906 Q65.0156,29.8906 65.2031,30.0313 Q65.5938,30.2969 65.5938,30.75 Q65.5938,31.125 65.3281,31.3594 Q65.0781,31.5938 64.4688,31.5938 L62.1719,31.5938 Q61.5625,31.5938 61.2969,31.3594 Q61.0313,31.125 61.0313,30.7344 Q61.0313,30.3594 61.2969,30.125 Q61.5625,29.8906 62.1719,29.8906 L62.5938,29.8906 L62.1875,28.8594 Z M61.4688,27.1563 L60.1094,23.7813 L58.7344,27.1563 L61.4688,27.1563 Z "/><text fill="#000000" font-family="sans-serif" font-size="14" font-style="italic" lengthAdjust="spacingAndGlyphs" textLength="27" x="143.5" y="26.5332">Icon</text><text fill="#000000" font-family="sans-serif" font-size="10" font-style="italic" lengthAdjust="spacingAndGlyphs" textLength="166" x="74" y="39.9902">nz.ac.vuw.ecs.swen225.gp20.maze</text></a><!--MD5=[db924a279d8f65aeb9378c60d92b9583]
reverse link nz.ac.vuw.ecs.swen225.gp20.maze.Icon to nz.ac.vuw.ecs.swen225.gp20.maze.entities.Entity--><path codeLine="17" d="M144,67.42 C144,79.49 144,93.2 144,106.84 " fill="none" id="nz.ac.vuw.ecs.swen225.gp20.maze.Icon-backto-nz.ac.vuw.ecs.swen225.gp20.maze.entities.Entity" style="stroke: #A80036; stroke-width: 1.0;"/><polygon fill="none" points="137,67.26,144,47.26,151,67.26,137,67.26" style="stroke: #A80036; stroke-width: 1.0;"/><text fill="#888888" font-family="sans-serif" font-size="10" lengthAdjust="spacingAndGlyphs" textLength="190" x="46" y="283.4199">UMLDoclet 2.0.12, PlantUML 1.2020.16</text><!--MD5=[25f825e4dbdf047a0d159cd8adbeb9f8]
@startuml
    set namespaceSeparator none
    hide empty fields
    hide empty methods

    abstract class "<size:14>Entity\n<size:10>nz.ac.vuw.ecs.swen225.gp20.maze.entities" as nz.ac.vuw.ecs.swen225.gp20.maze.entities.Entity [[Entity.html]] {
        +entityPosition: Point
        +Entity(Point)
        +moveEntity(Direction, Entity, Maze, boolean): Moves
        +getEntityPosition(): Point
        +setEntityPosition(Point): void
        +setLastMove(Direction): void
        +getIcon(): Image
    }

    abstract class "<size:14>Icon\n<size:10>nz.ac.vuw.ecs.swen225.gp20.maze" as nz.ac.vuw.ecs.swen225.gp20.maze.Icon [[..\Icon.html]]

    nz.ac.vuw.ecs.swen225.gp20.maze.Icon <|- - nz.ac.vuw.ecs.swen225.gp20.maze.entities.Entity

    center footer UMLDoclet 2.0.12, PlantUML 1.2020.16
@enduml

PlantUML version 1.2020.16(Mon Aug 24 08:20:43 NZST 2020)
(APACHE source distribution)
Java Runtime: OpenJDK Runtime Environment
JVM: OpenJDK 64-Bit Server VM
Default Encoding: Cp1252
Language: en
Country: US
--></g></svg>