<?xml version="1.0" encoding="UTF-8" standalone="no"?><svg xmlns="http://www.w3.org/2000/svg" xmlns:xlink="http://www.w3.org/1999/xlink" contentScriptType="application/ecmascript" contentStyleType="text/css" height="519px" preserveAspectRatio="none" style="width:504px;height:519px;" version="1.1" viewBox="0 0 504 519" width="504px" zoomAndPan="magnify"><defs><filter height="300%" id="f1oudeyw8ld5pn" width="300%" x="-1" y="-1"><feGaussianBlur result="blurOut" stdDeviation="2.0"/><feColorMatrix in="blurOut" result="blurOut2" type="matrix" values="0 0 0 0 0 0 0 0 0 0 0 0 0 0 0 0 0 0 .4 0"/><feOffset dx="4.0" dy="4.0" in="blurOut2" result="blurOut3"/><feBlend in="SourceGraphic" in2="blurOut3" mode="normal"/></filter></defs><g><!--MD5=[17cfabc44ba45091a6cfa9d03d9da099]
cluster nz.ac.vuw.ecs.swen225.gp20.maze.entities--><polygon fill="#FFFFFF" filter="url(#f1oudeyw8ld5pn)" points="16,130,320,130,327,153.6094,482,153.6094,482,490,16,490,16,130" style="stroke: #000000; stroke-width: 1.5;"/><line style="stroke: #000000; stroke-width: 1.5;" x1="16" x2="327" y1="153.6094" y2="153.6094"/><text fill="#000000" font-family="sans-serif" font-size="14" font-weight="bold" lengthAdjust="spacingAndGlyphs" textLength="298" x="20" y="146.5332">nz.ac.vuw.ecs.swen225.gp20.maze.entities</text><!--MD5=[832757d115beb7bc045eef4d6b42e302]
cluster nz.ac.vuw.ecs.swen225.gp20.maze--><polygon fill="#FFFFFF" filter="url(#f1oudeyw8ld5pn)" points="148,6,395,6,402,29.6094,405,29.6094,405,106,148,106,148,6" style="stroke: #000000; stroke-width: 1.5;"/><line style="stroke: #000000; stroke-width: 1.5;" x1="148" x2="402" y1="29.6094" y2="29.6094"/><text fill="#000000" font-family="sans-serif" font-size="14" font-weight="bold" lengthAdjust="spacingAndGlyphs" textLength="241" x="152" y="22.5332">nz.ac.vuw.ecs.swen225.gp20.maze</text><!--MD5=[11059c61c9c0f00e027c672fcc554ded]
class nz.ac.vuw.ecs.swen225.gp20.maze.entities.Chap--><a href="Chap.html" target="_top" title="Chap.html" xlink:actuate="onRequest" xlink:href="Chap.html" xlink:show="new" xlink:title="Chap.html" xlink:type="simple"><rect codeLine="3" fill="#FEFECE" filter="url(#f1oudeyw8ld5pn)" height="103.3438" id="nz.ac.vuw.ecs.swen225.gp20.maze.entities.Chap" style="stroke: #A80036; stroke-width: 1.5;" width="221" x="32.5" y="371"/><ellipse cx="123.75" cy="387" fill="#ADD1B2" rx="11" ry="11" style="stroke: #A80036; stroke-width: 1.0;"/><path d="M126.5156,382.875 Q126.6719,382.6563 126.8594,382.5469 Q127.0469,382.4375 127.2656,382.4375 Q127.6406,382.4375 127.875,382.7031 Q128.1094,382.9531 128.1094,383.5625 L128.1094,385.0156 Q128.1094,385.625 127.875,385.8906 Q127.6406,386.1563 127.2656,386.1563 Q126.9219,386.1563 126.7188,385.9531 Q126.5156,385.7656 126.4063,385.25 Q126.3594,384.8906 126.1719,384.7031 Q125.8438,384.3281 125.2344,384.1094 Q124.625,383.8906 124,383.8906 Q123.2344,383.8906 122.5938,384.2188 Q121.9688,384.5469 121.4688,385.2969 Q120.9844,386.0469 120.9844,387.0781 L120.9844,388.1719 Q120.9844,389.4063 121.875,390.2344 Q122.7656,391.0469 124.3594,391.0469 Q125.2969,391.0469 125.9531,390.7969 Q126.3438,390.6406 126.7656,390.2031 Q127.0313,389.9375 127.1719,389.8594 Q127.3281,389.7813 127.5313,389.7813 Q127.8594,389.7813 128.1094,390.0469 Q128.375,390.2969 128.375,390.6406 Q128.375,390.9844 128.0313,391.3906 Q127.5313,391.9688 126.7344,392.2969 Q125.6563,392.75 124.3594,392.75 Q122.8438,392.75 121.6406,392.125 Q120.6563,391.625 119.9688,390.5625 Q119.2813,389.4844 119.2813,388.2031 L119.2813,387.0469 Q119.2813,385.7188 119.8906,384.5781 Q120.5156,383.4219 121.6094,382.8125 Q122.7031,382.1875 123.9375,382.1875 Q124.6719,382.1875 125.3125,382.3594 Q125.9688,382.5156 126.5156,382.875 Z "/><text fill="#000000" font-family="sans-serif" font-size="12" lengthAdjust="spacingAndGlyphs" textLength="30" x="144.25" y="391.9102">Chap</text><line style="stroke: #A80036; stroke-width: 1.5;" x1="33.5" x2="252.5" y1="403" y2="403"/><line style="stroke: #A80036; stroke-width: 1.5;" x1="33.5" x2="252.5" y1="411" y2="411"/><ellipse cx="43.5" cy="422" fill="#84BE84" rx="3" ry="3" style="stroke: #038048; stroke-width: 1.0;"/><text fill="#000000" font-family="sans-serif" font-size="11" lengthAdjust="spacingAndGlyphs" textLength="56" x="52.5" y="426.4189">Chap(Point)</text><ellipse cx="43.5" cy="435.8359" fill="#84BE84" rx="3" ry="3" style="stroke: #038048; stroke-width: 1.0;"/><text fill="#000000" font-family="sans-serif" font-size="11" lengthAdjust="spacingAndGlyphs" textLength="161" x="52.5" y="440.2549">unlockDoor(Point, Maze): boolean</text><ellipse cx="43.5" cy="449.6719" fill="#84BE84" rx="3" ry="3" style="stroke: #038048; stroke-width: 1.0;"/><text fill="#000000" font-family="sans-serif" font-size="11" lengthAdjust="spacingAndGlyphs" textLength="140" x="52.5" y="454.0908">addToKeyInven(Colour): void</text><ellipse cx="43.5" cy="463.5078" fill="#84BE84" rx="3" ry="3" style="stroke: #038048; stroke-width: 1.0;"/><text fill="#000000" font-family="sans-serif" font-size="11" lengthAdjust="spacingAndGlyphs" textLength="195" x="52.5" y="467.9268">getKeyInventory(): Map&lt;Colour, Integer&gt;</text></a><!--MD5=[068adf06d6fe77e53ccb3375e66cfece]
class nz.ac.vuw.ecs.swen225.gp20.maze.entities.Entity--><a href="Entity.html" target="_top" title="Entity.html" xlink:actuate="onRequest" xlink:href="Entity.html" xlink:show="new" xlink:title="Entity.html" xlink:type="simple"><rect codeLine="10" fill="#FEFECE" filter="url(#f1oudeyw8ld5pn)" height="144.8516" id="nz.ac.vuw.ecs.swen225.gp20.maze.entities.Entity" style="stroke: #A80036; stroke-width: 1.5;" width="274" x="109" y="166"/><ellipse cx="226.75" cy="182" fill="#A9DCDF" rx="11" ry="11" style="stroke: #A80036; stroke-width: 1.0;"/><path d="M228.9375,183.7656 L224.7969,183.7656 L224.375,184.7969 L224.7969,184.7969 Q225.4063,184.7969 225.6719,185.0313 Q225.9375,185.2656 225.9375,185.6563 Q225.9375,186.0313 225.6719,186.2656 Q225.4063,186.5 224.7969,186.5 L222.5,186.5 Q221.8906,186.5 221.6406,186.2656 Q221.375,186.0313 221.375,185.6406 Q221.375,185.2656 221.6563,185.0313 Q221.9219,184.7813 222.5469,184.7969 L225.2188,178.1406 L224.1094,178.1406 Q223.5,178.1406 223.2344,177.9063 Q222.9688,177.6719 222.9688,177.2813 Q222.9688,176.9063 223.2344,176.6719 Q223.5,176.4375 224.1094,176.4375 L227.7813,176.4375 L231.1719,184.7969 Q231.7656,184.7969 231.9531,184.9375 Q232.3438,185.2031 232.3438,185.6563 Q232.3438,186.0313 232.0781,186.2656 Q231.8281,186.5 231.2188,186.5 L228.9219,186.5 Q228.3125,186.5 228.0469,186.2656 Q227.7813,186.0313 227.7813,185.6406 Q227.7813,185.2656 228.0469,185.0313 Q228.3125,184.7969 228.9219,184.7969 L229.3438,184.7969 L228.9375,183.7656 Z M228.2188,182.0625 L226.8594,178.6875 L225.4844,182.0625 L228.2188,182.0625 Z "/><text fill="#000000" font-family="sans-serif" font-size="12" font-style="italic" lengthAdjust="spacingAndGlyphs" textLength="30" x="247.25" y="186.9102">Entity</text><line style="stroke: #A80036; stroke-width: 1.5;" x1="110" x2="382" y1="198" y2="198"/><ellipse cx="120" cy="209" fill="none" rx="3" ry="3" style="stroke: #038048; stroke-width: 1.0;"/><text fill="#000000" font-family="sans-serif" font-size="11" lengthAdjust="spacingAndGlyphs" textLength="92" x="129" y="213.4189">entityPosition: Point</text><line style="stroke: #A80036; stroke-width: 1.5;" x1="110" x2="382" y1="219.8359" y2="219.8359"/><ellipse cx="120" cy="230.8359" fill="#84BE84" rx="3" ry="3" style="stroke: #038048; stroke-width: 1.0;"/><text fill="#000000" font-family="sans-serif" font-size="11" lengthAdjust="spacingAndGlyphs" textLength="57" x="129" y="235.2549">Entity(Point)</text><ellipse cx="120" cy="244.6719" fill="#84BE84" rx="3" ry="3" style="stroke: #038048; stroke-width: 1.0;"/><text fill="#000000" font-family="sans-serif" font-size="11" lengthAdjust="spacingAndGlyphs" textLength="248" x="129" y="249.0908">moveEntity(Direction, Entity, Maze, boolean): Moves</text><ellipse cx="120" cy="258.5078" fill="#84BE84" rx="3" ry="3" style="stroke: #038048; stroke-width: 1.0;"/><text fill="#000000" font-family="sans-serif" font-size="11" lengthAdjust="spacingAndGlyphs" textLength="115" x="129" y="262.9268">getEntityPosition(): Point</text><ellipse cx="120" cy="272.3438" fill="#84BE84" rx="3" ry="3" style="stroke: #038048; stroke-width: 1.0;"/><text fill="#000000" font-family="sans-serif" font-size="11" lengthAdjust="spacingAndGlyphs" textLength="135" x="129" y="276.7627">setEntityPosition(Point): void</text><ellipse cx="120" cy="286.1797" fill="#84BE84" rx="3" ry="3" style="stroke: #038048; stroke-width: 1.0;"/><text fill="#000000" font-family="sans-serif" font-size="11" lengthAdjust="spacingAndGlyphs" textLength="138" x="129" y="290.5986">setLastMove(Direction): void</text><ellipse cx="120" cy="300.0156" fill="#84BE84" rx="3" ry="3" style="stroke: #038048; stroke-width: 1.0;"/><text fill="#000000" font-family="sans-serif" font-size="11" lengthAdjust="spacingAndGlyphs" textLength="77" x="129" y="304.4346">getIcon(): Image</text></a><!--MD5=[c18c575e342f2c90232fa0efd00d874e]
class nz.ac.vuw.ecs.swen225.gp20.maze.entities.NPC--><a href="NPC.html" target="_top" title="NPC.html" xlink:actuate="onRequest" xlink:href="NPC.html" xlink:show="new" xlink:title="NPC.html" xlink:type="simple"><rect codeLine="20" fill="#FEFECE" filter="url(#f1oudeyw8ld5pn)" height="103.3438" id="nz.ac.vuw.ecs.swen225.gp20.maze.entities.NPC" style="stroke: #A80036; stroke-width: 1.5;" width="177" x="288.5" y="371"/><ellipse cx="359.75" cy="387" fill="#A9DCDF" rx="11" ry="11" style="stroke: #A80036; stroke-width: 1.0;"/><path d="M361.9375,388.7656 L357.7969,388.7656 L357.375,389.7969 L357.7969,389.7969 Q358.4063,389.7969 358.6719,390.0313 Q358.9375,390.2656 358.9375,390.6563 Q358.9375,391.0313 358.6719,391.2656 Q358.4063,391.5 357.7969,391.5 L355.5,391.5 Q354.8906,391.5 354.6406,391.2656 Q354.375,391.0313 354.375,390.6406 Q354.375,390.2656 354.6563,390.0313 Q354.9219,389.7813 355.5469,389.7969 L358.2188,383.1406 L357.1094,383.1406 Q356.5,383.1406 356.2344,382.9063 Q355.9688,382.6719 355.9688,382.2813 Q355.9688,381.9063 356.2344,381.6719 Q356.5,381.4375 357.1094,381.4375 L360.7813,381.4375 L364.1719,389.7969 Q364.7656,389.7969 364.9531,389.9375 Q365.3438,390.2031 365.3438,390.6563 Q365.3438,391.0313 365.0781,391.2656 Q364.8281,391.5 364.2188,391.5 L361.9219,391.5 Q361.3125,391.5 361.0469,391.2656 Q360.7813,391.0313 360.7813,390.6406 Q360.7813,390.2656 361.0469,390.0313 Q361.3125,389.7969 361.9219,389.7969 L362.3438,389.7969 L361.9375,388.7656 Z M361.2188,387.0625 L359.8594,383.6875 L358.4844,387.0625 L361.2188,387.0625 Z "/><text fill="#000000" font-family="sans-serif" font-size="12" font-style="italic" lengthAdjust="spacingAndGlyphs" textLength="26" x="380.25" y="391.9102">NPC</text><line style="stroke: #A80036; stroke-width: 1.5;" x1="289.5" x2="464.5" y1="403" y2="403"/><line style="stroke: #A80036; stroke-width: 1.5;" x1="289.5" x2="464.5" y1="411" y2="411"/><ellipse cx="299.5" cy="422" fill="#84BE84" rx="3" ry="3" style="stroke: #038048; stroke-width: 1.0;"/><text fill="#000000" font-family="sans-serif" font-size="11" lengthAdjust="spacingAndGlyphs" textLength="51" x="308.5" y="426.4189">NPC(Point)</text><ellipse cx="299.5" cy="435.8359" fill="#84BE84" rx="3" ry="3" style="stroke: #038048; stroke-width: 1.0;"/><text fill="#000000" font-family="sans-serif" font-size="11" font-style="italic" lengthAdjust="spacingAndGlyphs" textLength="123" x="308.5" y="440.2549">getNextMove(): Direction</text><ellipse cx="299.5" cy="449.6719" fill="#84BE84" rx="3" ry="3" style="stroke: #038048; stroke-width: 1.0;"/><text fill="#000000" font-family="sans-serif" font-size="11" font-style="italic" lengthAdjust="spacingAndGlyphs" textLength="131" x="308.5" y="454.0908">getCurrentMoveIndex(): int</text><ellipse cx="299.5" cy="463.5078" fill="#84BE84" rx="3" ry="3" style="stroke: #038048; stroke-width: 1.0;"/><text fill="#000000" font-family="sans-serif" font-size="11" font-style="italic" lengthAdjust="spacingAndGlyphs" textLength="151" x="308.5" y="467.9268">setCurrentMoveIndex(int): void</text></a><!--MD5=[3962b7cb248e7459e5dcfafee992fe8e]
class nz.ac.vuw.ecs.swen225.gp20.maze.Icon--><a href="..\Icon.html" target="_top" title="..\Icon.html" xlink:actuate="onRequest" xlink:href="..\Icon.html" xlink:show="new" xlink:title="..\Icon.html" xlink:type="simple"><rect codeLine="33" fill="#FEFECE" filter="url(#f1oudeyw8ld5pn)" height="48" id="nz.ac.vuw.ecs.swen225.gp20.maze.Icon" style="stroke: #A80036; stroke-width: 1.5;" width="56" x="218" y="42"/><ellipse cx="233" cy="58" fill="#A9DCDF" rx="11" ry="11" style="stroke: #A80036; stroke-width: 1.0;"/><path d="M235.1875,59.7656 L231.0469,59.7656 L230.625,60.7969 L231.0469,60.7969 Q231.6563,60.7969 231.9219,61.0313 Q232.1875,61.2656 232.1875,61.6563 Q232.1875,62.0313 231.9219,62.2656 Q231.6563,62.5 231.0469,62.5 L228.75,62.5 Q228.1406,62.5 227.8906,62.2656 Q227.625,62.0313 227.625,61.6406 Q227.625,61.2656 227.9063,61.0313 Q228.1719,60.7813 228.7969,60.7969 L231.4688,54.1406 L230.3594,54.1406 Q229.75,54.1406 229.4844,53.9063 Q229.2188,53.6719 229.2188,53.2813 Q229.2188,52.9063 229.4844,52.6719 Q229.75,52.4375 230.3594,52.4375 L234.0313,52.4375 L237.4219,60.7969 Q238.0156,60.7969 238.2031,60.9375 Q238.5938,61.2031 238.5938,61.6563 Q238.5938,62.0313 238.3281,62.2656 Q238.0781,62.5 237.4688,62.5 L235.1719,62.5 Q234.5625,62.5 234.2969,62.2656 Q234.0313,62.0313 234.0313,61.6406 Q234.0313,61.2656 234.2969,61.0313 Q234.5625,60.7969 235.1719,60.7969 L235.5938,60.7969 L235.1875,59.7656 Z M234.4688,58.0625 L233.1094,54.6875 L231.7344,58.0625 L234.4688,58.0625 Z "/><text fill="#000000" font-family="sans-serif" font-size="12" font-style="italic" lengthAdjust="spacingAndGlyphs" textLength="24" x="247" y="62.9102">Icon</text><line style="stroke: #A80036; stroke-width: 1.5;" x1="219" x2="273" y1="74" y2="74"/><line style="stroke: #A80036; stroke-width: 1.5;" x1="219" x2="273" y1="82" y2="82"/></a><!--MD5=[087ce462eadfd1dd64bc52efafd7ba2f]
reverse link nz.ac.vuw.ecs.swen225.gp20.maze.entities.Entity to nz.ac.vuw.ecs.swen225.gp20.maze.entities.Chap--><path codeLine="27" d="M195.5,328.74 C187.29,343.24 179.04,357.81 171.6,370.96 " fill="none" id="nz.ac.vuw.ecs.swen225.gp20.maze.entities.Entity-backto-nz.ac.vuw.ecs.swen225.gp20.maze.entities.Chap" style="stroke: #A80036; stroke-width: 1.0;"/><polygon fill="none" points="189.5,325.13,205.44,311.17,201.68,332.02,189.5,325.13" style="stroke: #A80036; stroke-width: 1.0;"/><!--MD5=[db924a279d8f65aeb9378c60d92b9583]
reverse link nz.ac.vuw.ecs.swen225.gp20.maze.Icon to nz.ac.vuw.ecs.swen225.gp20.maze.entities.Entity--><path codeLine="28" d="M246,110.49 C246,127.31 246,147.01 246,165.82 " fill="none" id="nz.ac.vuw.ecs.swen225.gp20.maze.Icon-backto-nz.ac.vuw.ecs.swen225.gp20.maze.entities.Entity" style="stroke: #A80036; stroke-width: 1.0;"/><polygon fill="none" points="239,110.35,246,90.35,253,110.35,239,110.35" style="stroke: #A80036; stroke-width: 1.0;"/><!--MD5=[2c81abdd3239fcd7f3042566a82c4ed0]
reverse link nz.ac.vuw.ecs.swen225.gp20.maze.entities.Entity to nz.ac.vuw.ecs.swen225.gp20.maze.entities.NPC--><path codeLine="29" d="M309.54,327.78 C320.21,342.6 330.95,357.52 340.62,370.96 " fill="none" id="nz.ac.vuw.ecs.swen225.gp20.maze.entities.Entity-backto-nz.ac.vuw.ecs.swen225.gp20.maze.entities.NPC" style="stroke: #A80036; stroke-width: 1.0;"/><polygon fill="none" points="303.59,331.49,297.59,311.17,314.95,323.31,303.59,331.49" style="stroke: #A80036; stroke-width: 1.0;"/><text fill="#888888" font-family="sans-serif" font-size="10" lengthAdjust="spacingAndGlyphs" textLength="190" x="148" y="506.3809">UMLDoclet 2.0.12, PlantUML 1.2020.16</text><!--MD5=[19071907602a39ab783795e30d11ef56]
@startuml
    namespace nz.ac.vuw.ecs.swen225.gp20.maze.entities {

        class Chap [[Chap.html]] {
            +Chap(Point)
            +unlockDoor(Point, Maze): boolean
            +addToKeyInven(Colour): void
            +getKeyInventory(): Map<Colour, Integer>
        }

        abstract class Entity [[Entity.html]] {
            +entityPosition: Point
            +Entity(Point)
            +moveEntity(Direction, Entity, Maze, boolean): Moves
            +getEntityPosition(): Point
            +setEntityPosition(Point): void
            +setLastMove(Direction): void
            +getIcon(): Image
        }

        abstract class NPC [[NPC.html]] {
            +NPC(Point)
            {abstract} +getNextMove(): Direction
            {abstract} +getCurrentMoveIndex(): int
            {abstract} +setCurrentMoveIndex(int): void
        }

        Entity <|- - Chap
        nz.ac.vuw.ecs.swen225.gp20.maze.Icon <|- - Entity
        Entity <|- - NPC
    }

    namespace nz.ac.vuw.ecs.swen225.gp20.maze {
        abstract class Icon [[..\Icon.html]] {
        }
    }

    center footer UMLDoclet 2.0.12, PlantUML 1.2020.16
@enduml

PlantUML version 1.2020.16(Mon Aug 24 08:20:43 NZST 2020)
(APACHE source distribution)
Java Runtime: OpenJDK Runtime Environment
JVM: OpenJDK 64-Bit Server VM
Default Encoding: Cp1252
Language: en
Country: US
--></g></svg>