<?xml version="1.0" encoding="UTF-8" standalone="no"?><svg xmlns="http://www.w3.org/2000/svg" xmlns:xlink="http://www.w3.org/1999/xlink" contentScriptType="application/ecmascript" contentStyleType="text/css" height="619px" preserveAspectRatio="none" style="width:254px;height:619px;" version="1.1" viewBox="0 0 254 619" width="254px" zoomAndPan="magnify"><defs><filter height="300%" id="f1em6gwwl7q3cr" width="300%" x="-1" y="-1"><feGaussianBlur result="blurOut" stdDeviation="2.0"/><feColorMatrix in="blurOut" result="blurOut2" type="matrix" values="0 0 0 0 0 0 0 0 0 0 0 0 0 0 0 0 0 0 .4 0"/><feOffset dx="4.0" dy="4.0" in="blurOut2" result="blurOut3"/><feBlend in="SourceGraphic" in2="blurOut3" mode="normal"/></filter></defs><g><!--MD5=[f1f873bc69cea6fe32b98027a6ba0e3d]
class nz.ac.vuw.ecs.swen225.gp20.application.GUI--><a href="GUI.html" target="_top" title="GUI.html" xlink:actuate="onRequest" xlink:href="GUI.html" xlink:show="new" xlink:title="GUI.html" xlink:type="simple"><rect codeLine="5" fill="#FEFECE" filter="url(#f1em6gwwl7q3cr)" height="581.9531" id="nz.ac.vuw.ecs.swen225.gp20.application.GUI" style="stroke: #A80036; stroke-width: 1.5;" width="228" x="7" y="7"/><ellipse cx="22.45" cy="27.0938" fill="#A9DCDF" rx="11" ry="11" style="stroke: #A80036; stroke-width: 1.0;"/><path d="M24.6375,28.8594 L20.4969,28.8594 L20.075,29.8906 L20.4969,29.8906 Q21.1063,29.8906 21.3719,30.125 Q21.6375,30.3594 21.6375,30.75 Q21.6375,31.125 21.3719,31.3594 Q21.1063,31.5938 20.4969,31.5938 L18.2,31.5938 Q17.5906,31.5938 17.3406,31.3594 Q17.075,31.125 17.075,30.7344 Q17.075,30.3594 17.3563,30.125 Q17.6219,29.875 18.2469,29.8906 L20.9188,23.2344 L19.8094,23.2344 Q19.2,23.2344 18.9344,23 Q18.6688,22.7656 18.6688,22.375 Q18.6688,22 18.9344,21.7656 Q19.2,21.5313 19.8094,21.5313 L23.4813,21.5313 L26.8719,29.8906 Q27.4656,29.8906 27.6531,30.0313 Q28.0438,30.2969 28.0438,30.75 Q28.0438,31.125 27.7781,31.3594 Q27.5281,31.5938 26.9188,31.5938 L24.6219,31.5938 Q24.0125,31.5938 23.7469,31.3594 Q23.4813,31.125 23.4813,30.7344 Q23.4813,30.3594 23.7469,30.125 Q24.0125,29.8906 24.6219,29.8906 L25.0438,29.8906 L24.6375,28.8594 Z M23.9188,27.1563 L22.5594,23.7813 L21.1844,27.1563 L23.9188,27.1563 Z "/><text fill="#000000" font-family="sans-serif" font-size="14" font-style="italic" lengthAdjust="spacingAndGlyphs" textLength="25" x="121.55" y="26.5332">GUI</text><text fill="#000000" font-family="sans-serif" font-size="10" font-style="italic" lengthAdjust="spacingAndGlyphs" textLength="195" x="36.55" y="39.9902">nz.ac.vuw.ecs.swen225.gp20.application</text><line style="stroke: #A80036; stroke-width: 1.5;" x1="8" x2="234" y1="47.1875" y2="47.1875"/><ellipse cx="18" cy="58.1875" fill="none" rx="3" ry="3" style="stroke: #038048; stroke-width: 1.0;"/><text fill="#000000" font-family="sans-serif" font-size="11" lengthAdjust="spacingAndGlyphs" textLength="135" x="27" y="62.6064">counterLabelDim: Dimension</text><ellipse cx="18" cy="72.0234" fill="none" rx="3" ry="3" style="stroke: #038048; stroke-width: 1.0;"/><text fill="#000000" font-family="sans-serif" font-size="11" lengthAdjust="spacingAndGlyphs" textLength="124" x="27" y="76.4424">gamePanelDim: Dimension</text><ellipse cx="18" cy="85.8594" fill="none" rx="3" ry="3" style="stroke: #038048; stroke-width: 1.0;"/><text fill="#000000" font-family="sans-serif" font-size="11" lengthAdjust="spacingAndGlyphs" textLength="143" x="27" y="90.2783">controllerPanelDim: Dimension</text><ellipse cx="18" cy="99.6953" fill="none" rx="3" ry="3" style="stroke: #038048; stroke-width: 1.0;"/><text fill="#000000" font-family="sans-serif" font-size="11" lengthAdjust="spacingAndGlyphs" textLength="179" x="27" y="104.1143">controllerPanelStandardInsets: Insets</text><ellipse cx="18" cy="113.5313" fill="none" rx="3" ry="3" style="stroke: #038048; stroke-width: 1.0;"/><text fill="#000000" font-family="sans-serif" font-size="11" lengthAdjust="spacingAndGlyphs" textLength="78" x="27" y="117.9502">mainColor: Color</text><ellipse cx="18" cy="127.3672" fill="none" rx="3" ry="3" style="stroke: #038048; stroke-width: 1.0;"/><text fill="#000000" font-family="sans-serif" font-size="11" lengthAdjust="spacingAndGlyphs" textLength="107" x="27" y="131.7861">textColorNormal: Color</text><ellipse cx="18" cy="141.2031" fill="none" rx="3" ry="3" style="stroke: #038048; stroke-width: 1.0;"/><text fill="#000000" font-family="sans-serif" font-size="11" lengthAdjust="spacingAndGlyphs" textLength="105" x="27" y="145.6221">barColorNormal: Color</text><ellipse cx="18" cy="155.0391" fill="none" rx="3" ry="3" style="stroke: #038048; stroke-width: 1.0;"/><text fill="#000000" font-family="sans-serif" font-size="11" lengthAdjust="spacingAndGlyphs" textLength="136" x="27" y="159.458">controllerElementsFont: Font</text><ellipse cx="18" cy="168.875" fill="none" rx="3" ry="3" style="stroke: #038048; stroke-width: 1.0;"/><text fill="#000000" font-family="sans-serif" font-size="11" lengthAdjust="spacingAndGlyphs" text-decoration="underline" textLength="78" x="27" y="173.2939">MAX_LEVEL: int</text><line style="stroke: #A80036; stroke-width: 1.5;" x1="8" x2="234" y1="179.7109" y2="179.7109"/><ellipse cx="18" cy="190.7109" fill="#84BE84" rx="3" ry="3" style="stroke: #038048; stroke-width: 1.0;"/><text fill="#000000" font-family="sans-serif" font-size="11" lengthAdjust="spacingAndGlyphs" textLength="96" x="27" y="195.1299">buildWindow(): void</text><ellipse cx="18" cy="204.5469" fill="#84BE84" rx="3" ry="3" style="stroke: #038048; stroke-width: 1.0;"/><text fill="#000000" font-family="sans-serif" font-size="11" lengthAdjust="spacingAndGlyphs" textLength="129" x="27" y="208.9658">buildReplayControls(): void</text><ellipse cx="18" cy="218.3828" fill="#84BE84" rx="3" ry="3" style="stroke: #038048; stroke-width: 1.0;"/><text fill="#000000" font-family="sans-serif" font-size="11" lengthAdjust="spacingAndGlyphs" textLength="117" x="27" y="222.8018">openPauseDialog(): void</text><ellipse cx="18" cy="232.2188" fill="#84BE84" rx="3" ry="3" style="stroke: #038048; stroke-width: 1.0;"/><text fill="#000000" font-family="sans-serif" font-size="11" lengthAdjust="spacingAndGlyphs" textLength="165" x="27" y="236.6377">produceDialog(String, String): void</text><ellipse cx="18" cy="246.0547" fill="#84BE84" rx="3" ry="3" style="stroke: #038048; stroke-width: 1.0;"/><text fill="#000000" font-family="sans-serif" font-size="11" lengthAdjust="spacingAndGlyphs" textLength="144" x="27" y="250.4736">setDebugMode(boolean): void</text><ellipse cx="18" cy="259.8906" fill="#84BE84" rx="3" ry="3" style="stroke: #038048; stroke-width: 1.0;"/><text fill="#000000" font-family="sans-serif" font-size="11" lengthAdjust="spacingAndGlyphs" textLength="115" x="27" y="264.3096">onGameTimeTick(): void</text><ellipse cx="18" cy="273.7266" fill="#84BE84" rx="3" ry="3" style="stroke: #038048; stroke-width: 1.0;"/><text fill="#000000" font-family="sans-serif" font-size="11" lengthAdjust="spacingAndGlyphs" textLength="83" x="27" y="278.1455">gameStart(): void</text><ellipse cx="18" cy="287.5625" fill="#84BE84" rx="3" ry="3" style="stroke: #038048; stroke-width: 1.0;"/><text fill="#000000" font-family="sans-serif" font-size="11" lengthAdjust="spacingAndGlyphs" textLength="188" x="27" y="291.9814">gameStop(String, String, boolean): void</text><ellipse cx="18" cy="301.3984" fill="#84BE84" rx="3" ry="3" style="stroke: #038048; stroke-width: 1.0;"/><text fill="#000000" font-family="sans-serif" font-size="11" lengthAdjust="spacingAndGlyphs" textLength="132" x="27" y="305.8174">movePlayer(Direction): void</text><ellipse cx="18" cy="315.2344" fill="#84BE84" rx="3" ry="3" style="stroke: #038048; stroke-width: 1.0;"/><text fill="#000000" font-family="sans-serif" font-size="11" lengthAdjust="spacingAndGlyphs" textLength="183" x="27" y="319.6533">replayStep(boolean, String, int, int): int</text><ellipse cx="18" cy="329.0703" fill="#84BE84" rx="3" ry="3" style="stroke: #038048; stroke-width: 1.0;"/><text fill="#000000" font-family="sans-serif" font-size="11" lengthAdjust="spacingAndGlyphs" textLength="166" x="27" y="333.4893">processKeyEvent(KeyEvent): void</text><ellipse cx="18" cy="342.9063" fill="#84BE84" rx="3" ry="3" style="stroke: #038048; stroke-width: 1.0;"/><text fill="#000000" font-family="sans-serif" font-size="11" lengthAdjust="spacingAndGlyphs" textLength="135" x="27" y="347.3252">checkMove(KeyEvent): void</text><ellipse cx="18" cy="356.7422" fill="#84BE84" rx="3" ry="3" style="stroke: #038048; stroke-width: 1.0;"/><text fill="#000000" font-family="sans-serif" font-size="11" lengthAdjust="spacingAndGlyphs" textLength="202" x="27" y="361.1611">getDirectionFromKey(KeyEvent): Direction</text><ellipse cx="18" cy="370.5781" fill="#84BE84" rx="3" ry="3" style="stroke: #038048; stroke-width: 1.0;"/><text fill="#000000" font-family="sans-serif" font-size="11" lengthAdjust="spacingAndGlyphs" textLength="79" x="27" y="374.9971">repaintAll(): void</text><ellipse cx="18" cy="384.4141" fill="#84BE84" rx="3" ry="3" style="stroke: #038048; stroke-width: 1.0;"/><text fill="#000000" font-family="sans-serif" font-size="11" lengthAdjust="spacingAndGlyphs" textLength="184" x="27" y="388.833">processToFile(boolean, boolean): void</text><ellipse cx="18" cy="398.25" fill="#84BE84" rx="3" ry="3" style="stroke: #038048; stroke-width: 1.0;"/><text fill="#000000" font-family="sans-serif" font-size="11" lengthAdjust="spacingAndGlyphs" textLength="131" x="27" y="402.6689">processStartFile(): boolean</text><ellipse cx="18" cy="412.0859" fill="#84BE84" rx="3" ry="3" style="stroke: #038048; stroke-width: 1.0;"/><text fill="#000000" font-family="sans-serif" font-size="11" lengthAdjust="spacingAndGlyphs" textLength="88" x="27" y="416.5049">replayLoad(): void</text><ellipse cx="18" cy="425.9219" fill="#84BE84" rx="3" ry="3" style="stroke: #038048; stroke-width: 1.0;"/><text fill="#000000" font-family="sans-serif" font-size="11" lengthAdjust="spacingAndGlyphs" textLength="104" x="27" y="430.3408">replayLoad(File): void</text><ellipse cx="18" cy="439.7578" fill="#84BE84" rx="3" ry="3" style="stroke: #038048; stroke-width: 1.0;"/><text fill="#000000" font-family="sans-serif" font-size="11" lengthAdjust="spacingAndGlyphs" textLength="153" x="27" y="444.1768">persistenceLoad(boolean): void</text><ellipse cx="18" cy="453.5938" fill="#84BE84" rx="3" ry="3" style="stroke: #038048; stroke-width: 1.0;"/><text fill="#000000" font-family="sans-serif" font-size="11" lengthAdjust="spacingAndGlyphs" textLength="170" x="27" y="458.0127">persistenceLoad(int, boolean): void</text><ellipse cx="18" cy="467.4297" fill="#84BE84" rx="3" ry="3" style="stroke: #038048; stroke-width: 1.0;"/><text fill="#000000" font-family="sans-serif" font-size="11" lengthAdjust="spacingAndGlyphs" textLength="131" x="27" y="471.8486">persistenceLoad(File): void</text><ellipse cx="18" cy="481.2656" fill="#84BE84" rx="3" ry="3" style="stroke: #038048; stroke-width: 1.0;"/><text fill="#000000" font-family="sans-serif" font-size="11" lengthAdjust="spacingAndGlyphs" textLength="116" x="27" y="485.6846">persistenceSave(): void</text><ellipse cx="18" cy="495.1016" fill="#84BE84" rx="3" ry="3" style="stroke: #038048; stroke-width: 1.0;"/><text fill="#000000" font-family="sans-serif" font-size="11" lengthAdjust="spacingAndGlyphs" textLength="151" x="27" y="499.5205">persistenceSaveClose(): String</text><polygon fill="#FFFF44" points="18,503.9375,22,507.9375,18,511.9375,14,507.9375" style="stroke: #B38D22; stroke-width: 1.0;"/><text fill="#000000" font-family="sans-serif" font-size="11" font-style="italic" lengthAdjust="spacingAndGlyphs" textLength="101" x="27" y="513.3564">getRecord(): Record</text><polygon fill="#FFFF44" points="18,517.7734,22,521.7734,18,525.7734,14,521.7734" style="stroke: #B38D22; stroke-width: 1.0;"/><text fill="#000000" font-family="sans-serif" font-size="11" font-style="italic" lengthAdjust="spacingAndGlyphs" textLength="121" x="27" y="527.1924">setRecord(Record): void</text><polygon fill="#FFFF44" points="18,531.6094,22,535.6094,18,539.6094,14,535.6094" style="stroke: #B38D22; stroke-width: 1.0;"/><text fill="#000000" font-family="sans-serif" font-size="11" font-style="italic" lengthAdjust="spacingAndGlyphs" textLength="97" x="27" y="541.0283">getReplay(): Replay</text><polygon fill="#FFFF44" points="18,545.4453,22,549.4453,18,553.4453,14,549.4453" style="stroke: #B38D22; stroke-width: 1.0;"/><text fill="#000000" font-family="sans-serif" font-size="11" font-style="italic" lengthAdjust="spacingAndGlyphs" textLength="117" x="27" y="554.8643">setReplay(Replay): void</text><ellipse cx="18" cy="564.2813" fill="#84BE84" rx="3" ry="3" style="stroke: #038048; stroke-width: 1.0;"/><text fill="#000000" font-family="sans-serif" font-size="11" font-style="italic" lengthAdjust="spacingAndGlyphs" textLength="83" x="27" y="568.7002">getMaze(): Maze</text><polygon fill="#FFFF44" points="18,573.1172,22,577.1172,18,581.1172,14,577.1172" style="stroke: #B38D22; stroke-width: 1.0;"/><text fill="#000000" font-family="sans-serif" font-size="11" font-style="italic" lengthAdjust="spacingAndGlyphs" textLength="103" x="27" y="582.5361">setMaze(Maze): void</text></a><text fill="#888888" font-family="sans-serif" font-size="10" lengthAdjust="spacingAndGlyphs" textLength="190" x="26" y="606.334">UMLDoclet 2.0.12, PlantUML 1.2020.16</text><!--MD5=[5b4338fe369869678b4d8ff73d552bd4]
@startuml
    set namespaceSeparator none
    hide empty fields
    hide empty methods

    abstract class "<size:14>GUI\n<size:10>nz.ac.vuw.ecs.swen225.gp20.application" as nz.ac.vuw.ecs.swen225.gp20.application.GUI [[GUI.html]] {
        +counterLabelDim: Dimension
        +gamePanelDim: Dimension
        +controllerPanelDim: Dimension
        +controllerPanelStandardInsets: Insets
        +mainColor: Color
        +textColorNormal: Color
        +barColorNormal: Color
        +controllerElementsFont: Font
        {static} +MAX_LEVEL: int
        +buildWindow(): void
        +buildReplayControls(): void
        +openPauseDialog(): void
        +produceDialog(String, String): void
        +setDebugMode(boolean): void
        +onGameTimeTick(): void
        +gameStart(): void
        +gameStop(String, String, boolean): void
        +movePlayer(Direction): void
        +replayStep(boolean, String, int, int): int
        +processKeyEvent(KeyEvent): void
        +checkMove(KeyEvent): void
        +getDirectionFromKey(KeyEvent): Direction
        +repaintAll(): void
        +processToFile(boolean, boolean): void
        +processStartFile(): boolean
        +replayLoad(): void
        +replayLoad(File): void
        +persistenceLoad(boolean): void
        +persistenceLoad(int, boolean): void
        +persistenceLoad(File): void
        +persistenceSave(): void
        +persistenceSaveClose(): String
        {abstract} #getRecord(): Record
        {abstract} #setRecord(Record): void
        {abstract} #getReplay(): Replay
        {abstract} #setReplay(Replay): void
        {abstract} +getMaze(): Maze
        {abstract} #setMaze(Maze): void
    }

    center footer UMLDoclet 2.0.12, PlantUML 1.2020.16
@enduml

PlantUML version 1.2020.16(Mon Aug 24 08:20:43 NZST 2020)
(APACHE source distribution)
Java Runtime: OpenJDK Runtime Environment
JVM: OpenJDK 64-Bit Server VM
Default Encoding: Cp1252
Language: en
Country: US
--></g></svg>