<?xml version="1.0" encoding="UTF-8" standalone="no"?><svg xmlns="http://www.w3.org/2000/svg" xmlns:xlink="http://www.w3.org/1999/xlink" contentScriptType="application/ecmascript" contentStyleType="text/css" height="379px" preserveAspectRatio="none" style="width:255px;height:379px;" version="1.1" viewBox="0 0 255 379" width="255px" zoomAndPan="magnify"><defs><filter height="300%" id="f8dkdbfovmyek" width="300%" x="-1" y="-1"><feGaussianBlur result="blurOut" stdDeviation="2.0"/><feColorMatrix in="blurOut" result="blurOut2" type="matrix" values="0 0 0 0 0 0 0 0 0 0 0 0 0 0 0 0 0 0 .4 0"/><feOffset dx="4.0" dy="4.0" in="blurOut2" result="blurOut3"/><feBlend in="SourceGraphic" in2="blurOut3" mode="normal"/></filter></defs><g><!--MD5=[1cd415b87c4eb40780b5759a7e2af137]
class nz.ac.vuw.ecs.swen225.gp20.application.Main--><a href="Main.html" target="_top" title="Main.html" xlink:actuate="onRequest" xlink:href="Main.html" xlink:show="new" xlink:title="Main.html" xlink:type="simple"><rect codeLine="5" fill="#FEFECE" filter="url(#f8dkdbfovmyek)" height="145.0391" id="nz.ac.vuw.ecs.swen225.gp20.application.Main" style="stroke: #A80036; stroke-width: 1.5;" width="226" x="9.5" y="198"/><ellipse cx="24.5" cy="218.0938" fill="#ADD1B2" rx="11" ry="11" style="stroke: #A80036; stroke-width: 1.0;"/><path d="M27.2656,213.9688 Q27.4219,213.75 27.6094,213.6406 Q27.7969,213.5313 28.0156,213.5313 Q28.3906,213.5313 28.625,213.7969 Q28.8594,214.0469 28.8594,214.6563 L28.8594,216.1094 Q28.8594,216.7188 28.625,216.9844 Q28.3906,217.25 28.0156,217.25 Q27.6719,217.25 27.4688,217.0469 Q27.2656,216.8594 27.1563,216.3438 Q27.1094,215.9844 26.9219,215.7969 Q26.5938,215.4219 25.9844,215.2031 Q25.375,214.9844 24.75,214.9844 Q23.9844,214.9844 23.3438,215.3125 Q22.7188,215.6406 22.2188,216.3906 Q21.7344,217.1406 21.7344,218.1719 L21.7344,219.2656 Q21.7344,220.5 22.625,221.3281 Q23.5156,222.1406 25.1094,222.1406 Q26.0469,222.1406 26.7031,221.8906 Q27.0938,221.7344 27.5156,221.2969 Q27.7813,221.0313 27.9219,220.9531 Q28.0781,220.875 28.2813,220.875 Q28.6094,220.875 28.8594,221.1406 Q29.125,221.3906 29.125,221.7344 Q29.125,222.0781 28.7813,222.4844 Q28.2813,223.0625 27.4844,223.3906 Q26.4063,223.8438 25.1094,223.8438 Q23.5938,223.8438 22.3906,223.2188 Q21.4063,222.7188 20.7188,221.6563 Q20.0313,220.5781 20.0313,219.2969 L20.0313,218.1406 Q20.0313,216.8125 20.6406,215.6719 Q21.2656,214.5156 22.3594,213.9063 Q23.4531,213.2813 24.6875,213.2813 Q25.4219,213.2813 26.0625,213.4531 Q26.7188,213.6094 27.2656,213.9688 Z "/><text fill="#000000" font-family="sans-serif" font-size="14" lengthAdjust="spacingAndGlyphs" textLength="30" x="120.5" y="217.5332">Main</text><text fill="#000000" font-family="sans-serif" font-size="10" lengthAdjust="spacingAndGlyphs" textLength="194" x="38.5" y="230.9902">nz.ac.vuw.ecs.swen225.gp20.application</text><line style="stroke: #A80036; stroke-width: 1.5;" x1="10.5" x2="234.5" y1="238.1875" y2="238.1875"/><ellipse cx="20.5" cy="249.1875" fill="#84BE84" rx="3" ry="3" style="stroke: #038048; stroke-width: 1.0;"/><text fill="#000000" font-family="sans-serif" font-size="11" lengthAdjust="spacingAndGlyphs" text-decoration="underline" textLength="90" x="29.5" y="253.6064">main(String[]): void</text><ellipse cx="20.5" cy="263.0234" fill="#84BE84" rx="3" ry="3" style="stroke: #038048; stroke-width: 1.0;"/><text fill="#000000" font-family="sans-serif" font-size="11" lengthAdjust="spacingAndGlyphs" textLength="81" x="29.5" y="267.4424">getMaze(): Maze</text><polygon fill="#FFFF44" points="20.5,271.8594,24.5,275.8594,20.5,279.8594,16.5,275.8594" style="stroke: #B38D22; stroke-width: 1.0;"/><text fill="#000000" font-family="sans-serif" font-size="11" lengthAdjust="spacingAndGlyphs" textLength="101" x="29.5" y="281.2783">setMaze(Maze): void</text><polygon fill="#FFFF44" points="20.5,285.6953,24.5,289.6953,20.5,293.6953,16.5,289.6953" style="stroke: #B38D22; stroke-width: 1.0;"/><text fill="#000000" font-family="sans-serif" font-size="11" lengthAdjust="spacingAndGlyphs" textLength="99" x="29.5" y="295.1143">getRecord(): Record</text><polygon fill="#FFFF44" points="20.5,299.5313,24.5,303.5313,20.5,307.5313,16.5,303.5313" style="stroke: #B38D22; stroke-width: 1.0;"/><text fill="#000000" font-family="sans-serif" font-size="11" lengthAdjust="spacingAndGlyphs" textLength="119" x="29.5" y="308.9502">setRecord(Record): void</text><polygon fill="#FFFF44" points="20.5,313.3672,24.5,317.3672,20.5,321.3672,16.5,317.3672" style="stroke: #B38D22; stroke-width: 1.0;"/><text fill="#000000" font-family="sans-serif" font-size="11" lengthAdjust="spacingAndGlyphs" textLength="95" x="29.5" y="322.7861">getReplay(): Replay</text><polygon fill="#FFFF44" points="20.5,327.2031,24.5,331.2031,20.5,335.2031,16.5,331.2031" style="stroke: #B38D22; stroke-width: 1.0;"/><text fill="#000000" font-family="sans-serif" font-size="11" lengthAdjust="spacingAndGlyphs" textLength="115" x="29.5" y="336.6221">setReplay(Replay): void</text></a><!--MD5=[f1f873bc69cea6fe32b98027a6ba0e3d]
class nz.ac.vuw.ecs.swen225.gp20.application.GUI--><a href="GUI.html" target="_top" title="GUI.html" xlink:actuate="onRequest" xlink:href="GUI.html" xlink:show="new" xlink:title="GUI.html" xlink:type="simple"><rect codeLine="15" fill="#FEFECE" filter="url(#f8dkdbfovmyek)" height="131.2031" id="nz.ac.vuw.ecs.swen225.gp20.application.GUI" style="stroke: #A80036; stroke-width: 1.5;" width="227" x="9" y="7"/><ellipse cx="24" cy="27.0938" fill="#A9DCDF" rx="11" ry="11" style="stroke: #A80036; stroke-width: 1.0;"/><path d="M26.1875,28.8594 L22.0469,28.8594 L21.625,29.8906 L22.0469,29.8906 Q22.6563,29.8906 22.9219,30.125 Q23.1875,30.3594 23.1875,30.75 Q23.1875,31.125 22.9219,31.3594 Q22.6563,31.5938 22.0469,31.5938 L19.75,31.5938 Q19.1406,31.5938 18.8906,31.3594 Q18.625,31.125 18.625,30.7344 Q18.625,30.3594 18.9063,30.125 Q19.1719,29.875 19.7969,29.8906 L22.4688,23.2344 L21.3594,23.2344 Q20.75,23.2344 20.4844,23 Q20.2188,22.7656 20.2188,22.375 Q20.2188,22 20.4844,21.7656 Q20.75,21.5313 21.3594,21.5313 L25.0313,21.5313 L28.4219,29.8906 Q29.0156,29.8906 29.2031,30.0313 Q29.5938,30.2969 29.5938,30.75 Q29.5938,31.125 29.3281,31.3594 Q29.0781,31.5938 28.4688,31.5938 L26.1719,31.5938 Q25.5625,31.5938 25.2969,31.3594 Q25.0313,31.125 25.0313,30.7344 Q25.0313,30.3594 25.2969,30.125 Q25.5625,29.8906 26.1719,29.8906 L26.5938,29.8906 L26.1875,28.8594 Z M25.4688,27.1563 L24.1094,23.7813 L22.7344,27.1563 L25.4688,27.1563 Z "/><text fill="#000000" font-family="sans-serif" font-size="14" font-style="italic" lengthAdjust="spacingAndGlyphs" textLength="25" x="123" y="26.5332">GUI</text><text fill="#000000" font-family="sans-serif" font-size="10" font-style="italic" lengthAdjust="spacingAndGlyphs" textLength="195" x="38" y="39.9902">nz.ac.vuw.ecs.swen225.gp20.application</text><line style="stroke: #A80036; stroke-width: 1.5;" x1="10" x2="235" y1="47.1875" y2="47.1875"/><polygon fill="#FFFF44" points="20,53.1875,24,57.1875,20,61.1875,16,57.1875" style="stroke: #B38D22; stroke-width: 1.0;"/><text fill="#000000" font-family="sans-serif" font-size="11" font-style="italic" lengthAdjust="spacingAndGlyphs" textLength="101" x="29" y="62.6064">getRecord(): Record</text><polygon fill="#FFFF44" points="20,67.0234,24,71.0234,20,75.0234,16,71.0234" style="stroke: #B38D22; stroke-width: 1.0;"/><text fill="#000000" font-family="sans-serif" font-size="11" font-style="italic" lengthAdjust="spacingAndGlyphs" textLength="121" x="29" y="76.4424">setRecord(Record): void</text><polygon fill="#FFFF44" points="20,80.8594,24,84.8594,20,88.8594,16,84.8594" style="stroke: #B38D22; stroke-width: 1.0;"/><text fill="#000000" font-family="sans-serif" font-size="11" font-style="italic" lengthAdjust="spacingAndGlyphs" textLength="97" x="29" y="90.2783">getReplay(): Replay</text><polygon fill="#FFFF44" points="20,94.6953,24,98.6953,20,102.6953,16,98.6953" style="stroke: #B38D22; stroke-width: 1.0;"/><text fill="#000000" font-family="sans-serif" font-size="11" font-style="italic" lengthAdjust="spacingAndGlyphs" textLength="117" x="29" y="104.1143">setReplay(Replay): void</text><ellipse cx="20" cy="113.5313" fill="#84BE84" rx="3" ry="3" style="stroke: #038048; stroke-width: 1.0;"/><text fill="#000000" font-family="sans-serif" font-size="11" font-style="italic" lengthAdjust="spacingAndGlyphs" textLength="83" x="29" y="117.9502">getMaze(): Maze</text><polygon fill="#FFFF44" points="20,122.3672,24,126.3672,20,130.3672,16,126.3672" style="stroke: #B38D22; stroke-width: 1.0;"/><text fill="#000000" font-family="sans-serif" font-size="11" font-style="italic" lengthAdjust="spacingAndGlyphs" textLength="103" x="29" y="131.7861">setMaze(Maze): void</text></a><!--MD5=[9ea49cdcde4619c84865580aeec4b6d5]
reverse link nz.ac.vuw.ecs.swen225.gp20.application.GUI to nz.ac.vuw.ecs.swen225.gp20.application.Main--><path codeLine="24" d="M122.5,158.42 C122.5,171.53 122.5,184.96 122.5,197.74 " fill="none" id="nz.ac.vuw.ecs.swen225.gp20.application.GUI-backto-nz.ac.vuw.ecs.swen225.gp20.application.Main" style="stroke: #A80036; stroke-width: 1.0;"/><polygon fill="none" points="115.5,158.22,122.5,138.22,129.5,158.22,115.5,158.22" style="stroke: #A80036; stroke-width: 1.0;"/><text fill="#888888" font-family="sans-serif" font-size="10" lengthAdjust="spacingAndGlyphs" textLength="190" x="23.5" y="366.4199">UMLDoclet 2.0.12, PlantUML 1.2020.16</text><!--MD5=[96d34f19d720cc122daac29b007831bb]
@startuml
    set namespaceSeparator none
    hide empty fields
    hide empty methods

    class "<size:14>Main\n<size:10>nz.ac.vuw.ecs.swen225.gp20.application" as nz.ac.vuw.ecs.swen225.gp20.application.Main [[Main.html]] {
        {static} +main(String[]): void
        +getMaze(): Maze
        #setMaze(Maze): void
        #getRecord(): Record
        #setRecord(Record): void
        #getReplay(): Replay
        #setReplay(Replay): void
    }

    abstract class "<size:14>GUI\n<size:10>nz.ac.vuw.ecs.swen225.gp20.application" as nz.ac.vuw.ecs.swen225.gp20.application.GUI [[GUI.html]] {
        {abstract} #getRecord(): Record
        {abstract} #setRecord(Record): void
        {abstract} #getReplay(): Replay
        {abstract} #setReplay(Replay): void
        {abstract} +getMaze(): Maze
        {abstract} #setMaze(Maze): void
    }

    nz.ac.vuw.ecs.swen225.gp20.application.GUI <|- - nz.ac.vuw.ecs.swen225.gp20.application.Main

    center footer UMLDoclet 2.0.12, PlantUML 1.2020.16
@enduml

PlantUML version 1.2020.16(Mon Aug 24 08:20:43 NZST 2020)
(APACHE source distribution)
Java Runtime: OpenJDK Runtime Environment
JVM: OpenJDK 64-Bit Server VM
Default Encoding: Cp1252
Language: en
Country: US
--></g></svg>