<?xml version="1.0" encoding="UTF-8" standalone="no"?><svg xmlns="http://www.w3.org/2000/svg" xmlns:xlink="http://www.w3.org/1999/xlink" contentScriptType="application/ecmascript" contentStyleType="text/css" height="866px" preserveAspectRatio="none" style="width:336px;height:866px;" version="1.1" viewBox="0 0 336 866" width="336px" zoomAndPan="magnify"><defs><filter height="300%" id="f1ojha5xrpwmnm" width="300%" x="-1" y="-1"><feGaussianBlur result="blurOut" stdDeviation="2.0"/><feColorMatrix in="blurOut" result="blurOut2" type="matrix" values="0 0 0 0 0 0 0 0 0 0 0 0 0 0 0 0 0 0 .4 0"/><feOffset dx="4.0" dy="4.0" in="blurOut2" result="blurOut3"/><feBlend in="SourceGraphic" in2="blurOut3" mode="normal"/></filter></defs><g><!--MD5=[6a4c4b98b387dd0cbcc4ee9dbc28d3b2]
cluster nz.ac.vuw.ecs.swen225.gp20.application--><polygon fill="#FFFFFF" filter="url(#f1ojha5xrpwmnm)" points="16,6,304,6,311,29.6094,314,29.6094,314,837,16,837,16,6" style="stroke: #000000; stroke-width: 1.5;"/><line style="stroke: #000000; stroke-width: 1.5;" x1="16" x2="311" y1="29.6094" y2="29.6094"/><text fill="#000000" font-family="sans-serif" font-size="14" font-weight="bold" lengthAdjust="spacingAndGlyphs" textLength="282" x="20" y="22.5332">nz.ac.vuw.ecs.swen225.gp20.application</text><!--MD5=[f1f873bc69cea6fe32b98027a6ba0e3d]
class nz.ac.vuw.ecs.swen225.gp20.application.GUI--><a href="GUI.html" target="_top" title="GUI.html" xlink:actuate="onRequest" xlink:href="GUI.html" xlink:show="new" xlink:title="GUI.html" xlink:type="simple"><rect codeLine="3" fill="#FEFECE" filter="url(#f1ojha5xrpwmnm)" height="573.7656" id="nz.ac.vuw.ecs.swen225.gp20.application.GUI" style="stroke: #A80036; stroke-width: 1.5;" width="228" x="51" y="42"/><ellipse cx="149.75" cy="58" fill="#A9DCDF" rx="11" ry="11" style="stroke: #A80036; stroke-width: 1.0;"/><path d="M151.9375,59.7656 L147.7969,59.7656 L147.375,60.7969 L147.7969,60.7969 Q148.4063,60.7969 148.6719,61.0313 Q148.9375,61.2656 148.9375,61.6563 Q148.9375,62.0313 148.6719,62.2656 Q148.4063,62.5 147.7969,62.5 L145.5,62.5 Q144.8906,62.5 144.6406,62.2656 Q144.375,62.0313 144.375,61.6406 Q144.375,61.2656 144.6563,61.0313 Q144.9219,60.7813 145.5469,60.7969 L148.2188,54.1406 L147.1094,54.1406 Q146.5,54.1406 146.2344,53.9063 Q145.9688,53.6719 145.9688,53.2813 Q145.9688,52.9063 146.2344,52.6719 Q146.5,52.4375 147.1094,52.4375 L150.7813,52.4375 L154.1719,60.7969 Q154.7656,60.7969 154.9531,60.9375 Q155.3438,61.2031 155.3438,61.6563 Q155.3438,62.0313 155.0781,62.2656 Q154.8281,62.5 154.2188,62.5 L151.9219,62.5 Q151.3125,62.5 151.0469,62.2656 Q150.7813,62.0313 150.7813,61.6406 Q150.7813,61.2656 151.0469,61.0313 Q151.3125,60.7969 151.9219,60.7969 L152.3438,60.7969 L151.9375,59.7656 Z M151.2188,58.0625 L149.8594,54.6875 L148.4844,58.0625 L151.2188,58.0625 Z "/><text fill="#000000" font-family="sans-serif" font-size="12" font-style="italic" lengthAdjust="spacingAndGlyphs" textLength="22" x="170.25" y="62.9102">GUI</text><line style="stroke: #A80036; stroke-width: 1.5;" x1="52" x2="278" y1="74" y2="74"/><ellipse cx="62" cy="85" fill="none" rx="3" ry="3" style="stroke: #038048; stroke-width: 1.0;"/><text fill="#000000" font-family="sans-serif" font-size="11" lengthAdjust="spacingAndGlyphs" textLength="135" x="71" y="89.4189">counterLabelDim: Dimension</text><ellipse cx="62" cy="98.8359" fill="none" rx="3" ry="3" style="stroke: #038048; stroke-width: 1.0;"/><text fill="#000000" font-family="sans-serif" font-size="11" lengthAdjust="spacingAndGlyphs" textLength="124" x="71" y="103.2549">gamePanelDim: Dimension</text><ellipse cx="62" cy="112.6719" fill="none" rx="3" ry="3" style="stroke: #038048; stroke-width: 1.0;"/><text fill="#000000" font-family="sans-serif" font-size="11" lengthAdjust="spacingAndGlyphs" textLength="143" x="71" y="117.0908">controllerPanelDim: Dimension</text><ellipse cx="62" cy="126.5078" fill="none" rx="3" ry="3" style="stroke: #038048; stroke-width: 1.0;"/><text fill="#000000" font-family="sans-serif" font-size="11" lengthAdjust="spacingAndGlyphs" textLength="179" x="71" y="130.9268">controllerPanelStandardInsets: Insets</text><ellipse cx="62" cy="140.3438" fill="none" rx="3" ry="3" style="stroke: #038048; stroke-width: 1.0;"/><text fill="#000000" font-family="sans-serif" font-size="11" lengthAdjust="spacingAndGlyphs" textLength="78" x="71" y="144.7627">mainColor: Color</text><ellipse cx="62" cy="154.1797" fill="none" rx="3" ry="3" style="stroke: #038048; stroke-width: 1.0;"/><text fill="#000000" font-family="sans-serif" font-size="11" lengthAdjust="spacingAndGlyphs" textLength="107" x="71" y="158.5986">textColorNormal: Color</text><ellipse cx="62" cy="168.0156" fill="none" rx="3" ry="3" style="stroke: #038048; stroke-width: 1.0;"/><text fill="#000000" font-family="sans-serif" font-size="11" lengthAdjust="spacingAndGlyphs" textLength="105" x="71" y="172.4346">barColorNormal: Color</text><ellipse cx="62" cy="181.8516" fill="none" rx="3" ry="3" style="stroke: #038048; stroke-width: 1.0;"/><text fill="#000000" font-family="sans-serif" font-size="11" lengthAdjust="spacingAndGlyphs" textLength="136" x="71" y="186.2705">controllerElementsFont: Font</text><ellipse cx="62" cy="195.6875" fill="none" rx="3" ry="3" style="stroke: #038048; stroke-width: 1.0;"/><text fill="#000000" font-family="sans-serif" font-size="11" lengthAdjust="spacingAndGlyphs" text-decoration="underline" textLength="78" x="71" y="200.1064">MAX_LEVEL: int</text><line style="stroke: #A80036; stroke-width: 1.5;" x1="52" x2="278" y1="206.5234" y2="206.5234"/><ellipse cx="62" cy="217.5234" fill="#84BE84" rx="3" ry="3" style="stroke: #038048; stroke-width: 1.0;"/><text fill="#000000" font-family="sans-serif" font-size="11" lengthAdjust="spacingAndGlyphs" textLength="96" x="71" y="221.9424">buildWindow(): void</text><ellipse cx="62" cy="231.3594" fill="#84BE84" rx="3" ry="3" style="stroke: #038048; stroke-width: 1.0;"/><text fill="#000000" font-family="sans-serif" font-size="11" lengthAdjust="spacingAndGlyphs" textLength="129" x="71" y="235.7783">buildReplayControls(): void</text><ellipse cx="62" cy="245.1953" fill="#84BE84" rx="3" ry="3" style="stroke: #038048; stroke-width: 1.0;"/><text fill="#000000" font-family="sans-serif" font-size="11" lengthAdjust="spacingAndGlyphs" textLength="117" x="71" y="249.6143">openPauseDialog(): void</text><ellipse cx="62" cy="259.0313" fill="#84BE84" rx="3" ry="3" style="stroke: #038048; stroke-width: 1.0;"/><text fill="#000000" font-family="sans-serif" font-size="11" lengthAdjust="spacingAndGlyphs" textLength="165" x="71" y="263.4502">produceDialog(String, String): void</text><ellipse cx="62" cy="272.8672" fill="#84BE84" rx="3" ry="3" style="stroke: #038048; stroke-width: 1.0;"/><text fill="#000000" font-family="sans-serif" font-size="11" lengthAdjust="spacingAndGlyphs" textLength="144" x="71" y="277.2861">setDebugMode(boolean): void</text><ellipse cx="62" cy="286.7031" fill="#84BE84" rx="3" ry="3" style="stroke: #038048; stroke-width: 1.0;"/><text fill="#000000" font-family="sans-serif" font-size="11" lengthAdjust="spacingAndGlyphs" textLength="115" x="71" y="291.1221">onGameTimeTick(): void</text><ellipse cx="62" cy="300.5391" fill="#84BE84" rx="3" ry="3" style="stroke: #038048; stroke-width: 1.0;"/><text fill="#000000" font-family="sans-serif" font-size="11" lengthAdjust="spacingAndGlyphs" textLength="83" x="71" y="304.958">gameStart(): void</text><ellipse cx="62" cy="314.375" fill="#84BE84" rx="3" ry="3" style="stroke: #038048; stroke-width: 1.0;"/><text fill="#000000" font-family="sans-serif" font-size="11" lengthAdjust="spacingAndGlyphs" textLength="188" x="71" y="318.7939">gameStop(String, String, boolean): void</text><ellipse cx="62" cy="328.2109" fill="#84BE84" rx="3" ry="3" style="stroke: #038048; stroke-width: 1.0;"/><text fill="#000000" font-family="sans-serif" font-size="11" lengthAdjust="spacingAndGlyphs" textLength="132" x="71" y="332.6299">movePlayer(Direction): void</text><ellipse cx="62" cy="342.0469" fill="#84BE84" rx="3" ry="3" style="stroke: #038048; stroke-width: 1.0;"/><text fill="#000000" font-family="sans-serif" font-size="11" lengthAdjust="spacingAndGlyphs" textLength="183" x="71" y="346.4658">replayStep(boolean, String, int, int): int</text><ellipse cx="62" cy="355.8828" fill="#84BE84" rx="3" ry="3" style="stroke: #038048; stroke-width: 1.0;"/><text fill="#000000" font-family="sans-serif" font-size="11" lengthAdjust="spacingAndGlyphs" textLength="166" x="71" y="360.3018">processKeyEvent(KeyEvent): void</text><ellipse cx="62" cy="369.7188" fill="#84BE84" rx="3" ry="3" style="stroke: #038048; stroke-width: 1.0;"/><text fill="#000000" font-family="sans-serif" font-size="11" lengthAdjust="spacingAndGlyphs" textLength="135" x="71" y="374.1377">checkMove(KeyEvent): void</text><ellipse cx="62" cy="383.5547" fill="#84BE84" rx="3" ry="3" style="stroke: #038048; stroke-width: 1.0;"/><text fill="#000000" font-family="sans-serif" font-size="11" lengthAdjust="spacingAndGlyphs" textLength="202" x="71" y="387.9736">getDirectionFromKey(KeyEvent): Direction</text><ellipse cx="62" cy="397.3906" fill="#84BE84" rx="3" ry="3" style="stroke: #038048; stroke-width: 1.0;"/><text fill="#000000" font-family="sans-serif" font-size="11" lengthAdjust="spacingAndGlyphs" textLength="79" x="71" y="401.8096">repaintAll(): void</text><ellipse cx="62" cy="411.2266" fill="#84BE84" rx="3" ry="3" style="stroke: #038048; stroke-width: 1.0;"/><text fill="#000000" font-family="sans-serif" font-size="11" lengthAdjust="spacingAndGlyphs" textLength="184" x="71" y="415.6455">processToFile(boolean, boolean): void</text><ellipse cx="62" cy="425.0625" fill="#84BE84" rx="3" ry="3" style="stroke: #038048; stroke-width: 1.0;"/><text fill="#000000" font-family="sans-serif" font-size="11" lengthAdjust="spacingAndGlyphs" textLength="131" x="71" y="429.4814">processStartFile(): boolean</text><ellipse cx="62" cy="438.8984" fill="#84BE84" rx="3" ry="3" style="stroke: #038048; stroke-width: 1.0;"/><text fill="#000000" font-family="sans-serif" font-size="11" lengthAdjust="spacingAndGlyphs" textLength="88" x="71" y="443.3174">replayLoad(): void</text><ellipse cx="62" cy="452.7344" fill="#84BE84" rx="3" ry="3" style="stroke: #038048; stroke-width: 1.0;"/><text fill="#000000" font-family="sans-serif" font-size="11" lengthAdjust="spacingAndGlyphs" textLength="104" x="71" y="457.1533">replayLoad(File): void</text><ellipse cx="62" cy="466.5703" fill="#84BE84" rx="3" ry="3" style="stroke: #038048; stroke-width: 1.0;"/><text fill="#000000" font-family="sans-serif" font-size="11" lengthAdjust="spacingAndGlyphs" textLength="153" x="71" y="470.9893">persistenceLoad(boolean): void</text><ellipse cx="62" cy="480.4063" fill="#84BE84" rx="3" ry="3" style="stroke: #038048; stroke-width: 1.0;"/><text fill="#000000" font-family="sans-serif" font-size="11" lengthAdjust="spacingAndGlyphs" textLength="170" x="71" y="484.8252">persistenceLoad(int, boolean): void</text><ellipse cx="62" cy="494.2422" fill="#84BE84" rx="3" ry="3" style="stroke: #038048; stroke-width: 1.0;"/><text fill="#000000" font-family="sans-serif" font-size="11" lengthAdjust="spacingAndGlyphs" textLength="131" x="71" y="498.6611">persistenceLoad(File): void</text><ellipse cx="62" cy="508.0781" fill="#84BE84" rx="3" ry="3" style="stroke: #038048; stroke-width: 1.0;"/><text fill="#000000" font-family="sans-serif" font-size="11" lengthAdjust="spacingAndGlyphs" textLength="116" x="71" y="512.4971">persistenceSave(): void</text><ellipse cx="62" cy="521.9141" fill="#84BE84" rx="3" ry="3" style="stroke: #038048; stroke-width: 1.0;"/><text fill="#000000" font-family="sans-serif" font-size="11" lengthAdjust="spacingAndGlyphs" textLength="151" x="71" y="526.333">persistenceSaveClose(): String</text><polygon fill="#FFFF44" points="62,530.75,66,534.75,62,538.75,58,534.75" style="stroke: #B38D22; stroke-width: 1.0;"/><text fill="#000000" font-family="sans-serif" font-size="11" font-style="italic" lengthAdjust="spacingAndGlyphs" textLength="101" x="71" y="540.1689">getRecord(): Record</text><polygon fill="#FFFF44" points="62,544.5859,66,548.5859,62,552.5859,58,548.5859" style="stroke: #B38D22; stroke-width: 1.0;"/><text fill="#000000" font-family="sans-serif" font-size="11" font-style="italic" lengthAdjust="spacingAndGlyphs" textLength="121" x="71" y="554.0049">setRecord(Record): void</text><polygon fill="#FFFF44" points="62,558.4219,66,562.4219,62,566.4219,58,562.4219" style="stroke: #B38D22; stroke-width: 1.0;"/><text fill="#000000" font-family="sans-serif" font-size="11" font-style="italic" lengthAdjust="spacingAndGlyphs" textLength="97" x="71" y="567.8408">getReplay(): Replay</text><polygon fill="#FFFF44" points="62,572.2578,66,576.2578,62,580.2578,58,576.2578" style="stroke: #B38D22; stroke-width: 1.0;"/><text fill="#000000" font-family="sans-serif" font-size="11" font-style="italic" lengthAdjust="spacingAndGlyphs" textLength="117" x="71" y="581.6768">setReplay(Replay): void</text><ellipse cx="62" cy="591.0938" fill="#84BE84" rx="3" ry="3" style="stroke: #038048; stroke-width: 1.0;"/><text fill="#000000" font-family="sans-serif" font-size="11" font-style="italic" lengthAdjust="spacingAndGlyphs" textLength="83" x="71" y="595.5127">getMaze(): Maze</text><polygon fill="#FFFF44" points="62,599.9297,66,603.9297,62,607.9297,58,603.9297" style="stroke: #B38D22; stroke-width: 1.0;"/><text fill="#000000" font-family="sans-serif" font-size="11" font-style="italic" lengthAdjust="spacingAndGlyphs" textLength="103" x="71" y="609.3486">setMaze(Maze): void</text></a><!--MD5=[1cd415b87c4eb40780b5759a7e2af137]
class nz.ac.vuw.ecs.swen225.gp20.application.Main--><a href="Main.html" target="_top" title="Main.html" xlink:actuate="onRequest" xlink:href="Main.html" xlink:show="new" xlink:title="Main.html" xlink:type="simple"><rect codeLine="44" fill="#FEFECE" filter="url(#f1ojha5xrpwmnm)" height="144.8516" id="nz.ac.vuw.ecs.swen225.gp20.application.Main" style="stroke: #A80036; stroke-width: 1.5;" width="145" x="92.5" y="676"/><ellipse cx="147.75" cy="692" fill="#ADD1B2" rx="11" ry="11" style="stroke: #A80036; stroke-width: 1.0;"/><path d="M150.5156,687.875 Q150.6719,687.6563 150.8594,687.5469 Q151.0469,687.4375 151.2656,687.4375 Q151.6406,687.4375 151.875,687.7031 Q152.1094,687.9531 152.1094,688.5625 L152.1094,690.0156 Q152.1094,690.625 151.875,690.8906 Q151.6406,691.1563 151.2656,691.1563 Q150.9219,691.1563 150.7188,690.9531 Q150.5156,690.7656 150.4063,690.25 Q150.3594,689.8906 150.1719,689.7031 Q149.8438,689.3281 149.2344,689.1094 Q148.625,688.8906 148,688.8906 Q147.2344,688.8906 146.5938,689.2188 Q145.9688,689.5469 145.4688,690.2969 Q144.9844,691.0469 144.9844,692.0781 L144.9844,693.1719 Q144.9844,694.4063 145.875,695.2344 Q146.7656,696.0469 148.3594,696.0469 Q149.2969,696.0469 149.9531,695.7969 Q150.3438,695.6406 150.7656,695.2031 Q151.0313,694.9375 151.1719,694.8594 Q151.3281,694.7813 151.5313,694.7813 Q151.8594,694.7813 152.1094,695.0469 Q152.375,695.2969 152.375,695.6406 Q152.375,695.9844 152.0313,696.3906 Q151.5313,696.9688 150.7344,697.2969 Q149.6563,697.75 148.3594,697.75 Q146.8438,697.75 145.6406,697.125 Q144.6563,696.625 143.9688,695.5625 Q143.2813,694.4844 143.2813,693.2031 L143.2813,692.0469 Q143.2813,690.7188 143.8906,689.5781 Q144.5156,688.4219 145.6094,687.8125 Q146.7031,687.1875 147.9375,687.1875 Q148.6719,687.1875 149.3125,687.3594 Q149.9688,687.5156 150.5156,687.875 Z "/><text fill="#000000" font-family="sans-serif" font-size="12" lengthAdjust="spacingAndGlyphs" textLength="26" x="168.25" y="696.9102">Main</text><line style="stroke: #A80036; stroke-width: 1.5;" x1="93.5" x2="236.5" y1="708" y2="708"/><line style="stroke: #A80036; stroke-width: 1.5;" x1="93.5" x2="236.5" y1="716" y2="716"/><ellipse cx="103.5" cy="727" fill="#84BE84" rx="3" ry="3" style="stroke: #038048; stroke-width: 1.0;"/><text fill="#000000" font-family="sans-serif" font-size="11" lengthAdjust="spacingAndGlyphs" text-decoration="underline" textLength="90" x="112.5" y="731.4189">main(String[]): void</text><ellipse cx="103.5" cy="740.8359" fill="#84BE84" rx="3" ry="3" style="stroke: #038048; stroke-width: 1.0;"/><text fill="#000000" font-family="sans-serif" font-size="11" lengthAdjust="spacingAndGlyphs" textLength="81" x="112.5" y="745.2549">getMaze(): Maze</text><polygon fill="#FFFF44" points="103.5,749.6719,107.5,753.6719,103.5,757.6719,99.5,753.6719" style="stroke: #B38D22; stroke-width: 1.0;"/><text fill="#000000" font-family="sans-serif" font-size="11" lengthAdjust="spacingAndGlyphs" textLength="101" x="112.5" y="759.0908">setMaze(Maze): void</text><polygon fill="#FFFF44" points="103.5,763.5078,107.5,767.5078,103.5,771.5078,99.5,767.5078" style="stroke: #B38D22; stroke-width: 1.0;"/><text fill="#000000" font-family="sans-serif" font-size="11" lengthAdjust="spacingAndGlyphs" textLength="99" x="112.5" y="772.9268">getRecord(): Record</text><polygon fill="#FFFF44" points="103.5,777.3438,107.5,781.3438,103.5,785.3438,99.5,781.3438" style="stroke: #B38D22; stroke-width: 1.0;"/><text fill="#000000" font-family="sans-serif" font-size="11" lengthAdjust="spacingAndGlyphs" textLength="119" x="112.5" y="786.7627">setRecord(Record): void</text><polygon fill="#FFFF44" points="103.5,791.1797,107.5,795.1797,103.5,799.1797,99.5,795.1797" style="stroke: #B38D22; stroke-width: 1.0;"/><text fill="#000000" font-family="sans-serif" font-size="11" lengthAdjust="spacingAndGlyphs" textLength="95" x="112.5" y="800.5986">getReplay(): Replay</text><polygon fill="#FFFF44" points="103.5,805.0156,107.5,809.0156,103.5,813.0156,99.5,809.0156" style="stroke: #B38D22; stroke-width: 1.0;"/><text fill="#000000" font-family="sans-serif" font-size="11" lengthAdjust="spacingAndGlyphs" textLength="115" x="112.5" y="814.4346">setReplay(Replay): void</text></a><!--MD5=[9ea49cdcde4619c84865580aeec4b6d5]
reverse link nz.ac.vuw.ecs.swen225.gp20.application.GUI to nz.ac.vuw.ecs.swen225.gp20.application.Main--><path codeLine="54" d="M165,636.51 C165,650.51 165,663.75 165,675.88 " fill="none" id="nz.ac.vuw.ecs.swen225.gp20.application.GUI-backto-nz.ac.vuw.ecs.swen225.gp20.application.Main" style="stroke: #A80036; stroke-width: 1.0;"/><polygon fill="none" points="158,636.26,165,616.26,172,636.26,158,636.26" style="stroke: #A80036; stroke-width: 1.0;"/><text fill="#888888" font-family="sans-serif" font-size="10" lengthAdjust="spacingAndGlyphs" textLength="190" x="64" y="853.3809">UMLDoclet 2.0.12, PlantUML 1.2020.16</text><!--MD5=[87d80f569f069de9ed48418614c77160]
@startuml
    namespace nz.ac.vuw.ecs.swen225.gp20.application {

        abstract class GUI [[GUI.html]] {
            +counterLabelDim: Dimension
            +gamePanelDim: Dimension
            +controllerPanelDim: Dimension
            +controllerPanelStandardInsets: Insets
            +mainColor: Color
            +textColorNormal: Color
            +barColorNormal: Color
            +controllerElementsFont: Font
            {static} +MAX_LEVEL: int
            +buildWindow(): void
            +buildReplayControls(): void
            +openPauseDialog(): void
            +produceDialog(String, String): void
            +setDebugMode(boolean): void
            +onGameTimeTick(): void
            +gameStart(): void
            +gameStop(String, String, boolean): void
            +movePlayer(Direction): void
            +replayStep(boolean, String, int, int): int
            +processKeyEvent(KeyEvent): void
            +checkMove(KeyEvent): void
            +getDirectionFromKey(KeyEvent): Direction
            +repaintAll(): void
            +processToFile(boolean, boolean): void
            +processStartFile(): boolean
            +replayLoad(): void
            +replayLoad(File): void
            +persistenceLoad(boolean): void
            +persistenceLoad(int, boolean): void
            +persistenceLoad(File): void
            +persistenceSave(): void
            +persistenceSaveClose(): String
            {abstract} #getRecord(): Record
            {abstract} #setRecord(Record): void
            {abstract} #getReplay(): Replay
            {abstract} #setReplay(Replay): void
            {abstract} +getMaze(): Maze
            {abstract} #setMaze(Maze): void
        }

        class Main [[Main.html]] {
            {static} +main(String[]): void
            +getMaze(): Maze
            #setMaze(Maze): void
            #getRecord(): Record
            #setRecord(Record): void
            #getReplay(): Replay
            #setReplay(Replay): void
        }

        GUI <|- - Main
    }

    center footer UMLDoclet 2.0.12, PlantUML 1.2020.16
@enduml

PlantUML version 1.2020.16(Mon Aug 24 08:20:43 NZST 2020)
(APACHE source distribution)
Java Runtime: OpenJDK Runtime Environment
JVM: OpenJDK 64-Bit Server VM
Default Encoding: Cp1252
Language: en
Country: US
--></g></svg>