<?xml version="1.0" encoding="UTF-8" standalone="no"?><svg xmlns="http://www.w3.org/2000/svg" xmlns:xlink="http://www.w3.org/1999/xlink" contentScriptType="application/ecmascript" contentStyleType="text/css" height="409px" preserveAspectRatio="none" style="width:326px;height:409px;" version="1.1" viewBox="0 0 326 409" width="326px" zoomAndPan="magnify"><defs><filter height="300%" id="f6iep9osywfab" width="300%" x="-1" y="-1"><feGaussianBlur result="blurOut" stdDeviation="2.0"/><feColorMatrix in="blurOut" result="blurOut2" type="matrix" values="0 0 0 0 0 0 0 0 0 0 0 0 0 0 0 0 0 0 .4 0"/><feOffset dx="4.0" dy="4.0" in="blurOut2" result="blurOut3"/><feBlend in="SourceGraphic" in2="blurOut3" mode="normal"/></filter></defs><g><!--MD5=[ccea1fb39e0299b26b7945e72be76e87]
cluster nz.ac.vuw.ecs.swen225.gp20.commons--><polygon fill="#FFFFFF" filter="url(#f6iep9osywfab)" points="16,6,294,6,301,29.6094,304,29.6094,304,380,16,380,16,6" style="stroke: #000000; stroke-width: 1.5;"/><line style="stroke: #000000; stroke-width: 1.5;" x1="16" x2="301" y1="29.6094" y2="29.6094"/><text fill="#000000" font-family="sans-serif" font-size="14" font-weight="bold" lengthAdjust="spacingAndGlyphs" textLength="272" x="20" y="22.5332">nz.ac.vuw.ecs.swen225.gp20.commons</text><!--MD5=[09bb833d7d5a1c63ead0b8e88d813452]
class nz.ac.vuw.ecs.swen225.gp20.commons.Colour--><a href="Colour.html" target="_top" title="Colour.html" xlink:actuate="onRequest" xlink:href="Colour.html" xlink:show="new" xlink:title="Colour.html" xlink:type="simple"><rect codeLine="3" fill="#FEFECE" filter="url(#f6iep9osywfab)" height="103.3438" id="nz.ac.vuw.ecs.swen225.gp20.commons.Colour" style="stroke: #A80036; stroke-width: 1.5;" width="70" x="66" y="42"/><ellipse cx="81.45" cy="58" fill="#EB937F" rx="11" ry="11" style="stroke: #A80036; stroke-width: 1.0;"/><path d="M80.3094,58.7969 L80.3094,61.2969 L84.6375,61.2969 L84.6375,60.375 Q84.6375,59.7656 84.8719,59.5 Q85.1219,59.2344 85.4969,59.2344 Q85.8719,59.2344 86.1063,59.5 Q86.3406,59.7656 86.3406,60.375 L86.3406,63 L78.3406,63 Q77.7156,63 77.45,62.7656 Q77.2,62.5313 77.2,62.1406 Q77.2,61.7656 77.4656,61.5313 Q77.7313,61.2969 78.3406,61.2969 L78.6063,61.2969 L78.6063,54.6406 L78.3406,54.6406 Q77.7156,54.6406 77.45,54.4063 Q77.2,54.1719 77.2,53.7813 Q77.2,53.4063 77.45,53.1719 Q77.7156,52.9375 78.3406,52.9375 L85.9656,52.9375 L85.9656,55.5313 Q85.9656,56.1406 85.7313,56.4063 Q85.5125,56.6563 85.1219,56.6563 Q84.7469,56.6563 84.5125,56.4063 Q84.2781,56.1406 84.2781,55.5313 L84.2781,54.6406 L80.3094,54.6406 L80.3094,57.0938 L81.7938,57.0938 Q81.7938,56.4375 81.9188,56.25 Q82.1844,55.8438 82.6531,55.8438 Q83.0281,55.8438 83.2625,56.1094 Q83.4969,56.3594 83.4969,56.9688 L83.4969,58.9375 Q83.4969,59.4844 83.3719,59.6719 Q83.1063,60.0625 82.6531,60.0625 Q82.1844,60.0625 81.9188,59.6563 Q81.7938,59.4688 81.7938,58.7969 L80.3094,58.7969 Z "/><text fill="#000000" font-family="sans-serif" font-size="12" lengthAdjust="spacingAndGlyphs" textLength="37" x="95.55" y="62.9102">Colour</text><line style="stroke: #A80036; stroke-width: 1.5;" x1="67" x2="135" y1="74" y2="74"/><ellipse cx="77" cy="85" fill="none" rx="3" ry="3" style="stroke: #038048; stroke-width: 1.0;"/><text fill="#000000" font-family="sans-serif" font-size="11" lengthAdjust="spacingAndGlyphs" text-decoration="underline" textLength="20" x="86" y="89.4189">RED</text><ellipse cx="77" cy="98.8359" fill="none" rx="3" ry="3" style="stroke: #038048; stroke-width: 1.0;"/><text fill="#000000" font-family="sans-serif" font-size="11" lengthAdjust="spacingAndGlyphs" text-decoration="underline" textLength="44" x="86" y="103.2549">YELLOW</text><ellipse cx="77" cy="112.6719" fill="none" rx="3" ry="3" style="stroke: #038048; stroke-width: 1.0;"/><text fill="#000000" font-family="sans-serif" font-size="11" lengthAdjust="spacingAndGlyphs" text-decoration="underline" textLength="34" x="86" y="117.0908">GREEN</text><ellipse cx="77" cy="126.5078" fill="none" rx="3" ry="3" style="stroke: #038048; stroke-width: 1.0;"/><text fill="#000000" font-family="sans-serif" font-size="11" lengthAdjust="spacingAndGlyphs" text-decoration="underline" textLength="26" x="86" y="130.9268">BLUE</text><line style="stroke: #A80036; stroke-width: 1.5;" x1="67" x2="135" y1="137.3438" y2="137.3438"/></a><!--MD5=[10e34608824e75870b6da760af4bf850]
class nz.ac.vuw.ecs.swen225.gp20.commons.Direction--><a href="Direction.html" target="_top" title="Direction.html" xlink:actuate="onRequest" xlink:href="Direction.html" xlink:show="new" xlink:title="Direction.html" xlink:type="simple"><rect codeLine="10" fill="#FEFECE" filter="url(#f6iep9osywfab)" height="103.3438" id="nz.ac.vuw.ecs.swen225.gp20.commons.Direction" style="stroke: #A80036; stroke-width: 1.5;" width="81" x="171.5" y="42"/><ellipse cx="186.5" cy="58" fill="#EB937F" rx="11" ry="11" style="stroke: #A80036; stroke-width: 1.0;"/><path d="M185.3594,58.7969 L185.3594,61.2969 L189.6875,61.2969 L189.6875,60.375 Q189.6875,59.7656 189.9219,59.5 Q190.1719,59.2344 190.5469,59.2344 Q190.9219,59.2344 191.1563,59.5 Q191.3906,59.7656 191.3906,60.375 L191.3906,63 L183.3906,63 Q182.7656,63 182.5,62.7656 Q182.25,62.5313 182.25,62.1406 Q182.25,61.7656 182.5156,61.5313 Q182.7813,61.2969 183.3906,61.2969 L183.6563,61.2969 L183.6563,54.6406 L183.3906,54.6406 Q182.7656,54.6406 182.5,54.4063 Q182.25,54.1719 182.25,53.7813 Q182.25,53.4063 182.5,53.1719 Q182.7656,52.9375 183.3906,52.9375 L191.0156,52.9375 L191.0156,55.5313 Q191.0156,56.1406 190.7813,56.4063 Q190.5625,56.6563 190.1719,56.6563 Q189.7969,56.6563 189.5625,56.4063 Q189.3281,56.1406 189.3281,55.5313 L189.3281,54.6406 L185.3594,54.6406 L185.3594,57.0938 L186.8438,57.0938 Q186.8438,56.4375 186.9688,56.25 Q187.2344,55.8438 187.7031,55.8438 Q188.0781,55.8438 188.3125,56.1094 Q188.5469,56.3594 188.5469,56.9688 L188.5469,58.9375 Q188.5469,59.4844 188.4219,59.6719 Q188.1563,60.0625 187.7031,60.0625 Q187.2344,60.0625 186.9688,59.6563 Q186.8438,59.4688 186.8438,58.7969 L185.3594,58.7969 Z "/><text fill="#000000" font-family="sans-serif" font-size="12" lengthAdjust="spacingAndGlyphs" textLength="49" x="200.5" y="62.9102">Direction</text><line style="stroke: #A80036; stroke-width: 1.5;" x1="172.5" x2="251.5" y1="74" y2="74"/><ellipse cx="182.5" cy="85" fill="none" rx="3" ry="3" style="stroke: #038048; stroke-width: 1.0;"/><text fill="#000000" font-family="sans-serif" font-size="11" lengthAdjust="spacingAndGlyphs" text-decoration="underline" textLength="13" x="191.5" y="89.4189">UP</text><ellipse cx="182.5" cy="98.8359" fill="none" rx="3" ry="3" style="stroke: #038048; stroke-width: 1.0;"/><text fill="#000000" font-family="sans-serif" font-size="11" lengthAdjust="spacingAndGlyphs" text-decoration="underline" textLength="32" x="191.5" y="103.2549">DOWN</text><ellipse cx="182.5" cy="112.6719" fill="none" rx="3" ry="3" style="stroke: #038048; stroke-width: 1.0;"/><text fill="#000000" font-family="sans-serif" font-size="11" lengthAdjust="spacingAndGlyphs" text-decoration="underline" textLength="24" x="191.5" y="117.0908">LEFT</text><ellipse cx="182.5" cy="126.5078" fill="none" rx="3" ry="3" style="stroke: #038048; stroke-width: 1.0;"/><text fill="#000000" font-family="sans-serif" font-size="11" lengthAdjust="spacingAndGlyphs" text-decoration="underline" textLength="30" x="191.5" y="130.9268">RIGHT</text><line style="stroke: #A80036; stroke-width: 1.5;" x1="172.5" x2="251.5" y1="137.3438" y2="137.3438"/></a><!--MD5=[200fea58bff3e80254a5bfa7a91c181a]
class nz.ac.vuw.ecs.swen225.gp20.commons.Moves--><a href="Moves.html" target="_top" title="Moves.html" xlink:actuate="onRequest" xlink:href="Moves.html" xlink:show="new" xlink:title="Moves.html" xlink:type="simple"><rect codeLine="17" fill="#FEFECE" filter="url(#f6iep9osywfab)" height="158.6875" id="nz.ac.vuw.ecs.swen225.gp20.commons.Moves" style="stroke: #A80036; stroke-width: 1.5;" width="121" x="66.5" y="205"/><ellipse cx="105.8" cy="221" fill="#EB937F" rx="11" ry="11" style="stroke: #A80036; stroke-width: 1.0;"/><path d="M104.6594,221.7969 L104.6594,224.2969 L108.9875,224.2969 L108.9875,223.375 Q108.9875,222.7656 109.2219,222.5 Q109.4719,222.2344 109.8469,222.2344 Q110.2219,222.2344 110.4563,222.5 Q110.6906,222.7656 110.6906,223.375 L110.6906,226 L102.6906,226 Q102.0656,226 101.8,225.7656 Q101.55,225.5313 101.55,225.1406 Q101.55,224.7656 101.8156,224.5313 Q102.0813,224.2969 102.6906,224.2969 L102.9563,224.2969 L102.9563,217.6406 L102.6906,217.6406 Q102.0656,217.6406 101.8,217.4063 Q101.55,217.1719 101.55,216.7813 Q101.55,216.4063 101.8,216.1719 Q102.0656,215.9375 102.6906,215.9375 L110.3156,215.9375 L110.3156,218.5313 Q110.3156,219.1406 110.0813,219.4063 Q109.8625,219.6563 109.4719,219.6563 Q109.0969,219.6563 108.8625,219.4063 Q108.6281,219.1406 108.6281,218.5313 L108.6281,217.6406 L104.6594,217.6406 L104.6594,220.0938 L106.1438,220.0938 Q106.1438,219.4375 106.2688,219.25 Q106.5344,218.8438 107.0031,218.8438 Q107.3781,218.8438 107.6125,219.1094 Q107.8469,219.3594 107.8469,219.9688 L107.8469,221.9375 Q107.8469,222.4844 107.7219,222.6719 Q107.4563,223.0625 107.0031,223.0625 Q106.5344,223.0625 106.2688,222.6563 Q106.1438,222.4688 106.1438,221.7969 L104.6594,221.7969 Z "/><text fill="#000000" font-family="sans-serif" font-size="12" lengthAdjust="spacingAndGlyphs" textLength="35" x="125.2" y="225.9102">Moves</text><line style="stroke: #A80036; stroke-width: 1.5;" x1="67.5" x2="186.5" y1="237" y2="237"/><ellipse cx="77.5" cy="248" fill="none" rx="3" ry="3" style="stroke: #038048; stroke-width: 1.0;"/><text fill="#000000" font-family="sans-serif" font-size="11" lengthAdjust="spacingAndGlyphs" text-decoration="underline" textLength="30" x="86.5" y="252.4189">MOVE</text><ellipse cx="77.5" cy="261.8359" fill="none" rx="3" ry="3" style="stroke: #038048; stroke-width: 1.0;"/><text fill="#000000" font-family="sans-serif" font-size="11" lengthAdjust="spacingAndGlyphs" text-decoration="underline" textLength="95" x="86.5" y="266.2549">TREASURE_PICKUP</text><ellipse cx="77.5" cy="275.6719" fill="none" rx="3" ry="3" style="stroke: #038048; stroke-width: 1.0;"/><text fill="#000000" font-family="sans-serif" font-size="11" lengthAdjust="spacingAndGlyphs" text-decoration="underline" textLength="62" x="86.5" y="280.0908">KEY_PICKUP</text><ellipse cx="77.5" cy="289.5078" fill="none" rx="3" ry="3" style="stroke: #038048; stroke-width: 1.0;"/><text fill="#000000" font-family="sans-serif" font-size="11" lengthAdjust="spacingAndGlyphs" text-decoration="underline" textLength="42" x="86.5" y="293.9268">UNLOCK</text><ellipse cx="77.5" cy="303.3438" fill="none" rx="3" ry="3" style="stroke: #038048; stroke-width: 1.0;"/><text fill="#000000" font-family="sans-serif" font-size="11" lengthAdjust="spacingAndGlyphs" text-decoration="underline" textLength="69" x="86.5" y="307.7627">EXIT_UNLOCK</text><ellipse cx="77.5" cy="317.1797" fill="none" rx="3" ry="3" style="stroke: #038048; stroke-width: 1.0;"/><text fill="#000000" font-family="sans-serif" font-size="11" lengthAdjust="spacingAndGlyphs" text-decoration="underline" textLength="34" x="86.5" y="321.5986">DEATH</text><ellipse cx="77.5" cy="331.0156" fill="none" rx="3" ry="3" style="stroke: #038048; stroke-width: 1.0;"/><text fill="#000000" font-family="sans-serif" font-size="11" lengthAdjust="spacingAndGlyphs" text-decoration="underline" textLength="35" x="86.5" y="335.4346">ERROR</text><ellipse cx="77.5" cy="344.8516" fill="none" rx="3" ry="3" style="stroke: #038048; stroke-width: 1.0;"/><text fill="#000000" font-family="sans-serif" font-size="11" lengthAdjust="spacingAndGlyphs" text-decoration="underline" textLength="53" x="86.5" y="349.2705">CHAP_WIN</text><line style="stroke: #A80036; stroke-width: 1.5;" x1="67.5" x2="186.5" y1="355.6875" y2="355.6875"/></a><!--MD5=[0436c8179ca95d17cb54539ebb4fd7d6]
link nz.ac.vuw.ecs.swen225.gp20.commons.Colour to nz.ac.vuw.ecs.swen225.gp20.commons.Direction--><!--MD5=[b1093271441c9294d154f5d4339ecfe1]
link nz.ac.vuw.ecs.swen225.gp20.commons.Colour to nz.ac.vuw.ecs.swen225.gp20.commons.Moves--><text fill="#888888" font-family="sans-serif" font-size="10" lengthAdjust="spacingAndGlyphs" textLength="190" x="59" y="396.3809">UMLDoclet 2.0.12, PlantUML 1.2020.16</text><!--MD5=[07332eb0b7b1a12fc65bd74a328bf266]
@startuml
    namespace nz.ac.vuw.ecs.swen225.gp20.commons {

        enum Colour [[Colour.html]] {
            {static} +RED
            {static} +YELLOW
            {static} +GREEN
            {static} +BLUE
        }

        enum Direction [[Direction.html]] {
            {static} +UP
            {static} +DOWN
            {static} +LEFT
            {static} +RIGHT
        }

        enum Moves [[Moves.html]] {
            {static} +MOVE
            {static} +TREASURE_PICKUP
            {static} +KEY_PICKUP
            {static} +UNLOCK
            {static} +EXIT_UNLOCK
            {static} +DEATH
            {static} +ERROR
            {static} +CHAP_WIN
        }

    }

    center footer UMLDoclet 2.0.12, PlantUML 1.2020.16
@enduml

PlantUML version 1.2020.16(Mon Aug 24 08:20:43 NZST 2020)
(APACHE source distribution)
Java Runtime: OpenJDK Runtime Environment
JVM: OpenJDK 64-Bit Server VM
Default Encoding: Cp1252
Language: en
Country: US
--></g></svg>