<?xml version="1.0" encoding="UTF-8" standalone="no"?><svg xmlns="http://www.w3.org/2000/svg" xmlns:xlink="http://www.w3.org/1999/xlink" contentScriptType="application/ecmascript" contentStyleType="text/css" height="287px" preserveAspectRatio="none" style="width:654px;height:287px;" version="1.1" viewBox="0 0 654 287" width="654px" zoomAndPan="magnify"><defs><filter height="300%" id="fmn2uj2zk5awi" width="300%" x="-1" y="-1"><feGaussianBlur result="blurOut" stdDeviation="2.0"/><feColorMatrix in="blurOut" result="blurOut2" type="matrix" values="0 0 0 0 0 0 0 0 0 0 0 0 0 0 0 0 0 0 .4 0"/><feOffset dx="4.0" dy="4.0" in="blurOut2" result="blurOut3"/><feBlend in="SourceGraphic" in2="blurOut3" mode="normal"/></filter></defs><g><!--MD5=[cb8297c5acf7171cb20d91d991001518]
cluster nz.ac.vuw.ecs.swen225.gp20.render--><polygon fill="#FFFFFF" filter="url(#fmn2uj2zk5awi)" points="16,130,275,130,282,153.6094,632,153.6094,632,258,16,258,16,130" style="stroke: #000000; stroke-width: 1.5;"/><line style="stroke: #000000; stroke-width: 1.5;" x1="16" x2="282" y1="153.6094" y2="153.6094"/><text fill="#000000" font-family="sans-serif" font-size="14" font-weight="bold" lengthAdjust="spacingAndGlyphs" textLength="253" x="20" y="146.5332">nz.ac.vuw.ecs.swen225.gp20.render</text><!--MD5=[535aab4de90d4dfa371a9b40d5438fc3]
cluster javax.swing--><polygon fill="#FFFFFF" filter="url(#fmn2uj2zk5awi)" points="360,6,448,6,455,29.6094,462,29.6094,462,106,360,106,360,6" style="stroke: #000000; stroke-width: 1.5;"/><line style="stroke: #000000; stroke-width: 1.5;" x1="360" x2="455" y1="29.6094" y2="29.6094"/><text fill="#000000" font-family="sans-serif" font-size="14" font-weight="bold" lengthAdjust="spacingAndGlyphs" textLength="82" x="364" y="22.5332">javax.swing</text><!--MD5=[99a63f223e3a08e6ccf7b4f4f8f0f8c4]
class nz.ac.vuw.ecs.swen225.gp20.render.BoardRenderer--><a href="BoardRenderer.html" target="_top" title="BoardRenderer.html" xlink:actuate="onRequest" xlink:href="BoardRenderer.html" xlink:show="new" xlink:title="BoardRenderer.html" xlink:type="simple"><rect codeLine="3" fill="#FEFECE" filter="url(#fmn2uj2zk5awi)" height="75.6719" id="nz.ac.vuw.ecs.swen225.gp20.render.BoardRenderer" style="stroke: #A80036; stroke-width: 1.5;" width="189" x="426.5" y="166"/><ellipse cx="474.25" cy="182" fill="#ADD1B2" rx="11" ry="11" style="stroke: #A80036; stroke-width: 1.0;"/><path d="M477.0156,177.875 Q477.1719,177.6563 477.3594,177.5469 Q477.5469,177.4375 477.7656,177.4375 Q478.1406,177.4375 478.375,177.7031 Q478.6094,177.9531 478.6094,178.5625 L478.6094,180.0156 Q478.6094,180.625 478.375,180.8906 Q478.1406,181.1563 477.7656,181.1563 Q477.4219,181.1563 477.2188,180.9531 Q477.0156,180.7656 476.9063,180.25 Q476.8594,179.8906 476.6719,179.7031 Q476.3438,179.3281 475.7344,179.1094 Q475.125,178.8906 474.5,178.8906 Q473.7344,178.8906 473.0938,179.2188 Q472.4688,179.5469 471.9688,180.2969 Q471.4844,181.0469 471.4844,182.0781 L471.4844,183.1719 Q471.4844,184.4063 472.375,185.2344 Q473.2656,186.0469 474.8594,186.0469 Q475.7969,186.0469 476.4531,185.7969 Q476.8438,185.6406 477.2656,185.2031 Q477.5313,184.9375 477.6719,184.8594 Q477.8281,184.7813 478.0313,184.7813 Q478.3594,184.7813 478.6094,185.0469 Q478.875,185.2969 478.875,185.6406 Q478.875,185.9844 478.5313,186.3906 Q478.0313,186.9688 477.2344,187.2969 Q476.1563,187.75 474.8594,187.75 Q473.3438,187.75 472.1406,187.125 Q471.1563,186.625 470.4688,185.5625 Q469.7813,184.4844 469.7813,183.2031 L469.7813,182.0469 Q469.7813,180.7188 470.3906,179.5781 Q471.0156,178.4219 472.1094,177.8125 Q473.2031,177.1875 474.4375,177.1875 Q475.1719,177.1875 475.8125,177.3594 Q476.4688,177.5156 477.0156,177.875 Z "/><text fill="#000000" font-family="sans-serif" font-size="12" lengthAdjust="spacingAndGlyphs" textLength="85" x="494.75" y="186.9102">BoardRenderer</text><line style="stroke: #A80036; stroke-width: 1.5;" x1="427.5" x2="614.5" y1="198" y2="198"/><line style="stroke: #A80036; stroke-width: 1.5;" x1="427.5" x2="614.5" y1="206" y2="206"/><ellipse cx="437.5" cy="217" fill="#84BE84" rx="3" ry="3" style="stroke: #038048; stroke-width: 1.0;"/><text fill="#000000" font-family="sans-serif" font-size="11" lengthAdjust="spacingAndGlyphs" textLength="163" x="446.5" y="221.4189">BoardRenderer(Maze, Dimension)</text><ellipse cx="437.5" cy="230.8359" fill="#84BE84" rx="3" ry="3" style="stroke: #038048; stroke-width: 1.0;"/><text fill="#000000" font-family="sans-serif" font-size="11" lengthAdjust="spacingAndGlyphs" textLength="155" x="446.5" y="235.2549">paintComponent(Graphics): void</text></a><!--MD5=[494f642504e37ee14c07c5be2027fad8]
class nz.ac.vuw.ecs.swen225.gp20.render.InventoryRenderer--><a href="InventoryRenderer.html" target="_top" title="InventoryRenderer.html" xlink:actuate="onRequest" xlink:href="InventoryRenderer.html" xlink:show="new" xlink:title="InventoryRenderer.html" xlink:type="simple"><rect codeLine="8" fill="#FEFECE" filter="url(#fmn2uj2zk5awi)" height="75.6719" id="nz.ac.vuw.ecs.swen225.gp20.render.InventoryRenderer" style="stroke: #A80036; stroke-width: 1.5;" width="181" x="210.5" y="166"/><ellipse cx="247.55" cy="182" fill="#ADD1B2" rx="11" ry="11" style="stroke: #A80036; stroke-width: 1.0;"/><path d="M250.3156,177.875 Q250.4719,177.6563 250.6594,177.5469 Q250.8469,177.4375 251.0656,177.4375 Q251.4406,177.4375 251.675,177.7031 Q251.9094,177.9531 251.9094,178.5625 L251.9094,180.0156 Q251.9094,180.625 251.675,180.8906 Q251.4406,181.1563 251.0656,181.1563 Q250.7219,181.1563 250.5188,180.9531 Q250.3156,180.7656 250.2063,180.25 Q250.1594,179.8906 249.9719,179.7031 Q249.6438,179.3281 249.0344,179.1094 Q248.425,178.8906 247.8,178.8906 Q247.0344,178.8906 246.3938,179.2188 Q245.7688,179.5469 245.2688,180.2969 Q244.7844,181.0469 244.7844,182.0781 L244.7844,183.1719 Q244.7844,184.4063 245.675,185.2344 Q246.5656,186.0469 248.1594,186.0469 Q249.0969,186.0469 249.7531,185.7969 Q250.1438,185.6406 250.5656,185.2031 Q250.8313,184.9375 250.9719,184.8594 Q251.1281,184.7813 251.3313,184.7813 Q251.6594,184.7813 251.9094,185.0469 Q252.175,185.2969 252.175,185.6406 Q252.175,185.9844 251.8313,186.3906 Q251.3313,186.9688 250.5344,187.2969 Q249.4563,187.75 248.1594,187.75 Q246.6438,187.75 245.4406,187.125 Q244.4563,186.625 243.7688,185.5625 Q243.0813,184.4844 243.0813,183.2031 L243.0813,182.0469 Q243.0813,180.7188 243.6906,179.5781 Q244.3156,178.4219 245.4094,177.8125 Q246.5031,177.1875 247.7375,177.1875 Q248.4719,177.1875 249.1125,177.3594 Q249.7688,177.5156 250.3156,177.875 Z "/><text fill="#000000" font-family="sans-serif" font-size="12" lengthAdjust="spacingAndGlyphs" textLength="100" x="266.45" y="186.9102">InventoryRenderer</text><line style="stroke: #A80036; stroke-width: 1.5;" x1="211.5" x2="390.5" y1="198" y2="198"/><line style="stroke: #A80036; stroke-width: 1.5;" x1="211.5" x2="390.5" y1="206" y2="206"/><ellipse cx="221.5" cy="217" fill="#84BE84" rx="3" ry="3" style="stroke: #038048; stroke-width: 1.0;"/><text fill="#000000" font-family="sans-serif" font-size="11" lengthAdjust="spacingAndGlyphs" textLength="141" x="230.5" y="221.4189">InventoryRenderer(Maze, int)</text><ellipse cx="221.5" cy="230.8359" fill="#84BE84" rx="3" ry="3" style="stroke: #038048; stroke-width: 1.0;"/><text fill="#000000" font-family="sans-serif" font-size="11" lengthAdjust="spacingAndGlyphs" textLength="155" x="230.5" y="235.2549">paintComponent(Graphics): void</text></a><!--MD5=[34b368a3014da28b04991804f61e5a9a]
class nz.ac.vuw.ecs.swen225.gp20.render.SoundRenderer--><a href="SoundRenderer.html" target="_top" title="SoundRenderer.html" xlink:actuate="onRequest" xlink:href="SoundRenderer.html" xlink:show="new" xlink:title="SoundRenderer.html" xlink:type="simple"><rect codeLine="13" fill="#FEFECE" filter="url(#fmn2uj2zk5awi)" height="61.8359" id="nz.ac.vuw.ecs.swen225.gp20.render.SoundRenderer" style="stroke: #A80036; stroke-width: 1.5;" width="143" x="32.5" y="173"/><ellipse cx="57.85" cy="189" fill="#ADD1B2" rx="11" ry="11" style="stroke: #A80036; stroke-width: 1.0;"/><path d="M60.6156,184.875 Q60.7719,184.6563 60.9594,184.5469 Q61.1469,184.4375 61.3656,184.4375 Q61.7406,184.4375 61.975,184.7031 Q62.2094,184.9531 62.2094,185.5625 L62.2094,187.0156 Q62.2094,187.625 61.975,187.8906 Q61.7406,188.1563 61.3656,188.1563 Q61.0219,188.1563 60.8188,187.9531 Q60.6156,187.7656 60.5063,187.25 Q60.4594,186.8906 60.2719,186.7031 Q59.9438,186.3281 59.3344,186.1094 Q58.725,185.8906 58.1,185.8906 Q57.3344,185.8906 56.6938,186.2188 Q56.0688,186.5469 55.5688,187.2969 Q55.0844,188.0469 55.0844,189.0781 L55.0844,190.1719 Q55.0844,191.4063 55.975,192.2344 Q56.8656,193.0469 58.4594,193.0469 Q59.3969,193.0469 60.0531,192.7969 Q60.4438,192.6406 60.8656,192.2031 Q61.1313,191.9375 61.2719,191.8594 Q61.4281,191.7813 61.6313,191.7813 Q61.9594,191.7813 62.2094,192.0469 Q62.475,192.2969 62.475,192.6406 Q62.475,192.9844 62.1313,193.3906 Q61.6313,193.9688 60.8344,194.2969 Q59.7563,194.75 58.4594,194.75 Q56.9438,194.75 55.7406,194.125 Q54.7563,193.625 54.0688,192.5625 Q53.3813,191.4844 53.3813,190.2031 L53.3813,189.0469 Q53.3813,187.7188 53.9906,186.5781 Q54.6156,185.4219 55.7094,184.8125 Q56.8031,184.1875 58.0375,184.1875 Q58.7719,184.1875 59.4125,184.3594 Q60.0688,184.5156 60.6156,184.875 Z "/><text fill="#000000" font-family="sans-serif" font-size="12" lengthAdjust="spacingAndGlyphs" textLength="88" x="74.15" y="193.9102">SoundRenderer</text><line style="stroke: #A80036; stroke-width: 1.5;" x1="33.5" x2="174.5" y1="205" y2="205"/><line style="stroke: #A80036; stroke-width: 1.5;" x1="33.5" x2="174.5" y1="213" y2="213"/><ellipse cx="43.5" cy="224" fill="#84BE84" rx="3" ry="3" style="stroke: #038048; stroke-width: 1.0;"/><text fill="#000000" font-family="sans-serif" font-size="11" lengthAdjust="spacingAndGlyphs" textLength="117" x="52.5" y="228.4189">playSound(Moves): void</text></a><!--MD5=[56a185cb33bdc7c23303e5865f20a19b]
class javax.swing.JPanel--><rect codeLine="22" fill="#FEFECE" filter="url(#fmn2uj2zk5awi)" height="48" id="javax.swing.JPanel" style="stroke: #A80036; stroke-width: 1.5;" width="70" x="376" y="42"/><ellipse cx="391" cy="58" fill="#ADD1B2" rx="11" ry="11" style="stroke: #A80036; stroke-width: 1.0;"/><path d="M393.7656,53.875 Q393.9219,53.6563 394.1094,53.5469 Q394.2969,53.4375 394.5156,53.4375 Q394.8906,53.4375 395.125,53.7031 Q395.3594,53.9531 395.3594,54.5625 L395.3594,56.0156 Q395.3594,56.625 395.125,56.8906 Q394.8906,57.1563 394.5156,57.1563 Q394.1719,57.1563 393.9688,56.9531 Q393.7656,56.7656 393.6563,56.25 Q393.6094,55.8906 393.4219,55.7031 Q393.0938,55.3281 392.4844,55.1094 Q391.875,54.8906 391.25,54.8906 Q390.4844,54.8906 389.8438,55.2188 Q389.2188,55.5469 388.7188,56.2969 Q388.2344,57.0469 388.2344,58.0781 L388.2344,59.1719 Q388.2344,60.4063 389.125,61.2344 Q390.0156,62.0469 391.6094,62.0469 Q392.5469,62.0469 393.2031,61.7969 Q393.5938,61.6406 394.0156,61.2031 Q394.2813,60.9375 394.4219,60.8594 Q394.5781,60.7813 394.7813,60.7813 Q395.1094,60.7813 395.3594,61.0469 Q395.625,61.2969 395.625,61.6406 Q395.625,61.9844 395.2813,62.3906 Q394.7813,62.9688 393.9844,63.2969 Q392.9063,63.75 391.6094,63.75 Q390.0938,63.75 388.8906,63.125 Q387.9063,62.625 387.2188,61.5625 Q386.5313,60.4844 386.5313,59.2031 L386.5313,58.0469 Q386.5313,56.7188 387.1406,55.5781 Q387.7656,54.4219 388.8594,53.8125 Q389.9531,53.1875 391.1875,53.1875 Q391.9219,53.1875 392.5625,53.3594 Q393.2188,53.5156 393.7656,53.875 Z "/><text fill="#000000" font-family="sans-serif" font-size="12" lengthAdjust="spacingAndGlyphs" textLength="38" x="405" y="62.9102">JPanel</text><line style="stroke: #A80036; stroke-width: 1.5;" x1="377" x2="445" y1="74" y2="74"/><line style="stroke: #A80036; stroke-width: 1.5;" x1="377" x2="445" y1="82" y2="82"/><!--MD5=[343f7767ed88da22bb98e46f36982fe6]
reverse link javax.swing.JPanel to nz.ac.vuw.ecs.swen225.gp20.render.BoardRenderer--><path codeLine="17" d="M442.41,105.83 C457.68,124.72 475.95,147.3 491.03,165.94 " fill="none" id="javax.swing.JPanel-backto-nz.ac.vuw.ecs.swen225.gp20.render.BoardRenderer" style="stroke: #A80036; stroke-width: 1.0;"/><polygon fill="none" points="436.79,110.02,429.66,90.07,447.68,101.22,436.79,110.02" style="stroke: #A80036; stroke-width: 1.0;"/><!--MD5=[2bface3c920aa07b36b840499290eab8]
reverse link javax.swing.JPanel to nz.ac.vuw.ecs.swen225.gp20.render.InventoryRenderer--><path codeLine="18" d="M379.59,105.83 C364.32,124.72 346.05,147.3 330.97,165.94 " fill="none" id="javax.swing.JPanel-backto-nz.ac.vuw.ecs.swen225.gp20.render.InventoryRenderer" style="stroke: #A80036; stroke-width: 1.0;"/><polygon fill="none" points="374.32,101.22,392.34,90.07,385.21,110.02,374.32,101.22" style="stroke: #A80036; stroke-width: 1.0;"/><text fill="#888888" font-family="sans-serif" font-size="10" lengthAdjust="spacingAndGlyphs" textLength="190" x="223" y="274.3809">UMLDoclet 2.0.12, PlantUML 1.2020.16</text><!--MD5=[08e1b9f67e3e4136dad517f998a99984]
@startuml
    namespace nz.ac.vuw.ecs.swen225.gp20.render {

        class BoardRenderer [[BoardRenderer.html]] {
            +BoardRenderer(Maze, Dimension)
            +paintComponent(Graphics): void
        }

        class InventoryRenderer [[InventoryRenderer.html]] {
            +InventoryRenderer(Maze, int)
            +paintComponent(Graphics): void
        }

        class SoundRenderer [[SoundRenderer.html]] {
            +playSound(Moves): void
        }

        javax.swing.JPanel <|- - BoardRenderer
        javax.swing.JPanel <|- - InventoryRenderer
    }

    namespace javax.swing {
        class JPanel {
        }
    }

    center footer UMLDoclet 2.0.12, PlantUML 1.2020.16
@enduml

PlantUML version 1.2020.16(Mon Aug 24 08:20:43 NZST 2020)
(APACHE source distribution)
Java Runtime: OpenJDK Runtime Environment
JVM: OpenJDK 64-Bit Server VM
Default Encoding: Cp1252
Language: en
Country: US
--></g></svg>