<?xml version="1.0" encoding="UTF-8" standalone="no"?><svg xmlns="http://www.w3.org/2000/svg" xmlns:xlink="http://www.w3.org/1999/xlink" contentScriptType="application/ecmascript" contentStyleType="text/css" height="437px" preserveAspectRatio="none" style="width:579px;height:437px;" version="1.1" viewBox="0 0 579 437" width="579px" zoomAndPan="magnify"><defs><filter height="300%" id="frp5uefxu7j5l" width="300%" x="-1" y="-1"><feGaussianBlur result="blurOut" stdDeviation="2.0"/><feColorMatrix in="blurOut" result="blurOut2" type="matrix" values="0 0 0 0 0 0 0 0 0 0 0 0 0 0 0 0 0 0 .4 0"/><feOffset dx="4.0" dy="4.0" in="blurOut2" result="blurOut3"/><feBlend in="SourceGraphic" in2="blurOut3" mode="normal"/></filter></defs><g><!--MD5=[d423da23da1fc8f952d900322317c2ef]
cluster nz.ac.vuw.ecs.swen225.gp20.persistence--><polygon fill="#FFFFFF" filter="url(#frp5uefxu7j5l)" points="16,6,311,6,318,29.6094,557,29.6094,557,408,16,408,16,6" style="stroke: #000000; stroke-width: 1.5;"/><line style="stroke: #000000; stroke-width: 1.5;" x1="16" x2="318" y1="29.6094" y2="29.6094"/><text fill="#000000" font-family="sans-serif" font-size="14" font-weight="bold" lengthAdjust="spacingAndGlyphs" textLength="289" x="20" y="22.5332">nz.ac.vuw.ecs.swen225.gp20.persistence</text><!--MD5=[6c72808163bc33eeef29e0f6914a9c85]
class nz.ac.vuw.ecs.swen225.gp20.persistence.Levels--><a href="Levels.html" target="_top" title="Levels.html" xlink:actuate="onRequest" xlink:href="Levels.html" xlink:show="new" xlink:title="Levels.html" xlink:type="simple"><rect codeLine="3" fill="#FEFECE" filter="url(#frp5uefxu7j5l)" height="75.6719" id="nz.ac.vuw.ecs.swen225.gp20.persistence.Levels" style="stroke: #A80036; stroke-width: 1.5;" width="168" x="32" y="69.5"/><ellipse cx="93.75" cy="85.5" fill="#ADD1B2" rx="11" ry="11" style="stroke: #A80036; stroke-width: 1.0;"/><path d="M96.5156,81.375 Q96.6719,81.1563 96.8594,81.0469 Q97.0469,80.9375 97.2656,80.9375 Q97.6406,80.9375 97.875,81.2031 Q98.1094,81.4531 98.1094,82.0625 L98.1094,83.5156 Q98.1094,84.125 97.875,84.3906 Q97.6406,84.6563 97.2656,84.6563 Q96.9219,84.6563 96.7188,84.4531 Q96.5156,84.2656 96.4063,83.75 Q96.3594,83.3906 96.1719,83.2031 Q95.8438,82.8281 95.2344,82.6094 Q94.625,82.3906 94,82.3906 Q93.2344,82.3906 92.5938,82.7188 Q91.9688,83.0469 91.4688,83.7969 Q90.9844,84.5469 90.9844,85.5781 L90.9844,86.6719 Q90.9844,87.9063 91.875,88.7344 Q92.7656,89.5469 94.3594,89.5469 Q95.2969,89.5469 95.9531,89.2969 Q96.3438,89.1406 96.7656,88.7031 Q97.0313,88.4375 97.1719,88.3594 Q97.3281,88.2813 97.5313,88.2813 Q97.8594,88.2813 98.1094,88.5469 Q98.375,88.7969 98.375,89.1406 Q98.375,89.4844 98.0313,89.8906 Q97.5313,90.4688 96.7344,90.7969 Q95.6563,91.25 94.3594,91.25 Q92.8438,91.25 91.6406,90.625 Q90.6563,90.125 89.9688,89.0625 Q89.2813,87.9844 89.2813,86.7031 L89.2813,85.5469 Q89.2813,84.2188 89.8906,83.0781 Q90.5156,81.9219 91.6094,81.3125 Q92.7031,80.6875 93.9375,80.6875 Q94.6719,80.6875 95.3125,80.8594 Q95.9688,81.0156 96.5156,81.375 Z "/><text fill="#000000" font-family="sans-serif" font-size="12" lengthAdjust="spacingAndGlyphs" textLength="36" x="114.25" y="90.4102">Levels</text><line style="stroke: #A80036; stroke-width: 1.5;" x1="33" x2="199" y1="101.5" y2="101.5"/><line style="stroke: #A80036; stroke-width: 1.5;" x1="33" x2="199" y1="109.5" y2="109.5"/><ellipse cx="43" cy="120.5" fill="#84BE84" rx="3" ry="3" style="stroke: #038048; stroke-width: 1.0;"/><text fill="#000000" font-family="sans-serif" font-size="11" lengthAdjust="spacingAndGlyphs" text-decoration="underline" textLength="97" x="52" y="124.9189">loadLevel(int): Maze</text><ellipse cx="43" cy="134.3359" fill="#84BE84" rx="3" ry="3" style="stroke: #038048; stroke-width: 1.0;"/><text fill="#000000" font-family="sans-serif" font-size="11" lengthAdjust="spacingAndGlyphs" text-decoration="underline" textLength="142" x="52" y="138.7549">loadLevelFromFile(File): Maze</text></a><!--MD5=[39c356492b3453a8feb25e279768bd94]
class nz.ac.vuw.ecs.swen225.gp20.persistence.Persistence--><a href="Persistence.html" target="_top" title="Persistence.html" xlink:actuate="onRequest" xlink:href="Persistence.html" xlink:show="new" xlink:title="Persistence.html" xlink:type="simple"><rect codeLine="8" fill="#FEFECE" filter="url(#frp5uefxu7j5l)" height="131.0156" id="nz.ac.vuw.ecs.swen225.gp20.persistence.Persistence" style="stroke: #A80036; stroke-width: 1.5;" width="305" x="235.5" y="42"/><ellipse cx="350.75" cy="58" fill="#ADD1B2" rx="11" ry="11" style="stroke: #A80036; stroke-width: 1.0;"/><path d="M353.5156,53.875 Q353.6719,53.6563 353.8594,53.5469 Q354.0469,53.4375 354.2656,53.4375 Q354.6406,53.4375 354.875,53.7031 Q355.1094,53.9531 355.1094,54.5625 L355.1094,56.0156 Q355.1094,56.625 354.875,56.8906 Q354.6406,57.1563 354.2656,57.1563 Q353.9219,57.1563 353.7188,56.9531 Q353.5156,56.7656 353.4063,56.25 Q353.3594,55.8906 353.1719,55.7031 Q352.8438,55.3281 352.2344,55.1094 Q351.625,54.8906 351,54.8906 Q350.2344,54.8906 349.5938,55.2188 Q348.9688,55.5469 348.4688,56.2969 Q347.9844,57.0469 347.9844,58.0781 L347.9844,59.1719 Q347.9844,60.4063 348.875,61.2344 Q349.7656,62.0469 351.3594,62.0469 Q352.2969,62.0469 352.9531,61.7969 Q353.3438,61.6406 353.7656,61.2031 Q354.0313,60.9375 354.1719,60.8594 Q354.3281,60.7813 354.5313,60.7813 Q354.8594,60.7813 355.1094,61.0469 Q355.375,61.2969 355.375,61.6406 Q355.375,61.9844 355.0313,62.3906 Q354.5313,62.9688 353.7344,63.2969 Q352.6563,63.75 351.3594,63.75 Q349.8438,63.75 348.6406,63.125 Q347.6563,62.625 346.9688,61.5625 Q346.2813,60.4844 346.2813,59.2031 L346.2813,58.0469 Q346.2813,56.7188 346.8906,55.5781 Q347.5156,54.4219 348.6094,53.8125 Q349.7031,53.1875 350.9375,53.1875 Q351.6719,53.1875 352.3125,53.3594 Q352.9688,53.5156 353.5156,53.875 Z "/><text fill="#000000" font-family="sans-serif" font-size="12" lengthAdjust="spacingAndGlyphs" textLength="66" x="371.25" y="62.9102">Persistence</text><line style="stroke: #A80036; stroke-width: 1.5;" x1="236.5" x2="539.5" y1="74" y2="74"/><line style="stroke: #A80036; stroke-width: 1.5;" x1="236.5" x2="539.5" y1="82" y2="82"/><polygon fill="#FFFF44" points="246.5,88,250.5,92,246.5,96,242.5,92" style="stroke: #B38D22; stroke-width: 1.0;"/><text fill="#000000" font-family="sans-serif" font-size="11" lengthAdjust="spacingAndGlyphs" text-decoration="underline" textLength="279" x="255.5" y="97.4189">getObjectValues(JsonObject, String, boolean): TileObject[]</text><polygon fill="#FFFF44" points="246.5,101.8359,250.5,105.8359,246.5,109.8359,242.5,105.8359" style="stroke: #B38D22; stroke-width: 1.0;"/><text fill="#000000" font-family="sans-serif" font-size="11" lengthAdjust="spacingAndGlyphs" text-decoration="underline" textLength="171" x="255.5" y="111.2549">getColourFromString(String): Colour</text><polygon fill="#FFFF44" points="246.5,115.6719,250.5,119.6719,246.5,123.6719,242.5,119.6719" style="stroke: #B38D22; stroke-width: 1.0;"/><text fill="#000000" font-family="sans-serif" font-size="11" lengthAdjust="spacingAndGlyphs" text-decoration="underline" textLength="201" x="255.5" y="125.0908">getColourNameFromColour(Colour): String</text><ellipse cx="246.5" cy="134.5078" fill="#84BE84" rx="3" ry="3" style="stroke: #038048; stroke-width: 1.0;"/><text fill="#000000" font-family="sans-serif" font-size="11" lengthAdjust="spacingAndGlyphs" text-decoration="underline" textLength="159" x="255.5" y="138.9268">saveGameState(Maze, File): void</text><ellipse cx="246.5" cy="148.3438" fill="#84BE84" rx="3" ry="3" style="stroke: #038048; stroke-width: 1.0;"/><text fill="#000000" font-family="sans-serif" font-size="11" lengthAdjust="spacingAndGlyphs" text-decoration="underline" textLength="129" x="255.5" y="152.7627">loadGameState(File): Maze</text><ellipse cx="246.5" cy="162.1797" fill="#84BE84" rx="3" ry="3" style="stroke: #038048; stroke-width: 1.0;"/><text fill="#000000" font-family="sans-serif" font-size="11" lengthAdjust="spacingAndGlyphs" text-decoration="underline" textLength="151" x="255.5" y="166.5986">loadGameState(File, File): Maze</text></a><!--MD5=[549c2fe3bd4aad4bf8375667beb4fd44]
class nz.ac.vuw.ecs.swen225.gp20.persistence.LevelsTest--><a href="LevelsTest.html" target="_top" title="LevelsTest.html" xlink:actuate="onRequest" xlink:href="LevelsTest.html" xlink:show="new" xlink:title="LevelsTest.html" xlink:type="simple"><rect codeLine="17" fill="#FEFECE" filter="url(#frp5uefxu7j5l)" height="158.6875" id="nz.ac.vuw.ecs.swen225.gp20.persistence.LevelsTest" style="stroke: #A80036; stroke-width: 1.5;" width="214" x="32" y="233"/><ellipse cx="104.75" cy="249" fill="#ADD1B2" rx="11" ry="11" style="stroke: #A80036; stroke-width: 1.0;"/><path d="M107.5156,244.875 Q107.6719,244.6563 107.8594,244.5469 Q108.0469,244.4375 108.2656,244.4375 Q108.6406,244.4375 108.875,244.7031 Q109.1094,244.9531 109.1094,245.5625 L109.1094,247.0156 Q109.1094,247.625 108.875,247.8906 Q108.6406,248.1563 108.2656,248.1563 Q107.9219,248.1563 107.7188,247.9531 Q107.5156,247.7656 107.4063,247.25 Q107.3594,246.8906 107.1719,246.7031 Q106.8438,246.3281 106.2344,246.1094 Q105.625,245.8906 105,245.8906 Q104.2344,245.8906 103.5938,246.2188 Q102.9688,246.5469 102.4688,247.2969 Q101.9844,248.0469 101.9844,249.0781 L101.9844,250.1719 Q101.9844,251.4063 102.875,252.2344 Q103.7656,253.0469 105.3594,253.0469 Q106.2969,253.0469 106.9531,252.7969 Q107.3438,252.6406 107.7656,252.2031 Q108.0313,251.9375 108.1719,251.8594 Q108.3281,251.7813 108.5313,251.7813 Q108.8594,251.7813 109.1094,252.0469 Q109.375,252.2969 109.375,252.6406 Q109.375,252.9844 109.0313,253.3906 Q108.5313,253.9688 107.7344,254.2969 Q106.6563,254.75 105.3594,254.75 Q103.8438,254.75 102.6406,254.125 Q101.6563,253.625 100.9688,252.5625 Q100.2813,251.4844 100.2813,250.2031 L100.2813,249.0469 Q100.2813,247.7188 100.8906,246.5781 Q101.5156,245.4219 102.6094,244.8125 Q103.7031,244.1875 104.9375,244.1875 Q105.6719,244.1875 106.3125,244.3594 Q106.9688,244.5156 107.5156,244.875 Z "/><text fill="#000000" font-family="sans-serif" font-size="12" lengthAdjust="spacingAndGlyphs" textLength="60" x="125.25" y="253.9102">LevelsTest</text><line style="stroke: #A80036; stroke-width: 1.5;" x1="33" x2="245" y1="265" y2="265"/><line style="stroke: #A80036; stroke-width: 1.5;" x1="33" x2="245" y1="273" y2="273"/><ellipse cx="43" cy="284" fill="#84BE84" rx="3" ry="3" style="stroke: #038048; stroke-width: 1.0;"/><text fill="#000000" font-family="sans-serif" font-size="11" lengthAdjust="spacingAndGlyphs" textLength="156" x="52" y="288.4189">Test_success_walls(Path): void</text><ellipse cx="43" cy="297.8359" fill="#84BE84" rx="3" ry="3" style="stroke: #038048; stroke-width: 1.0;"/><text fill="#000000" font-family="sans-serif" font-size="11" lengthAdjust="spacingAndGlyphs" textLength="150" x="52" y="302.2549">Test_success_size(Path): void</text><ellipse cx="43" cy="311.6719" fill="#84BE84" rx="3" ry="3" style="stroke: #038048; stroke-width: 1.0;"/><text fill="#000000" font-family="sans-serif" font-size="11" lengthAdjust="spacingAndGlyphs" textLength="184" x="52" y="316.0908">Test_success_lockedDoor(Path): void</text><ellipse cx="43" cy="325.5078" fill="#84BE84" rx="3" ry="3" style="stroke: #038048; stroke-width: 1.0;"/><text fill="#000000" font-family="sans-serif" font-size="11" lengthAdjust="spacingAndGlyphs" textLength="153" x="52" y="329.9268">Test_success_keys(Path): void</text><ellipse cx="43" cy="339.3438" fill="#84BE84" rx="3" ry="3" style="stroke: #038048; stroke-width: 1.0;"/><text fill="#000000" font-family="sans-serif" font-size="11" lengthAdjust="spacingAndGlyphs" textLength="188" x="52" y="343.7627">Test_success_variousTiles(Path): void</text><ellipse cx="43" cy="353.1797" fill="#84BE84" rx="3" ry="3" style="stroke: #038048; stroke-width: 1.0;"/><text fill="#000000" font-family="sans-serif" font-size="11" lengthAdjust="spacingAndGlyphs" textLength="172" x="52" y="357.5986">Test_success_chapPos(Path): void</text><ellipse cx="43" cy="367.0156" fill="#84BE84" rx="3" ry="3" style="stroke: #038048; stroke-width: 1.0;"/><text fill="#000000" font-family="sans-serif" font-size="11" lengthAdjust="spacingAndGlyphs" textLength="177" x="52" y="371.4346">Test_success_treasures(Path): void</text><polygon fill="#FFFF44" points="43,375.8516,47,379.8516,43,383.8516,39,379.8516" style="stroke: #B38D22; stroke-width: 1.0;"/><text fill="#000000" font-family="sans-serif" font-size="11" lengthAdjust="spacingAndGlyphs" text-decoration="underline" textLength="119" x="52" y="385.2705">createTestFile(Path): File</text></a><!--MD5=[54e11e655d6754659288d1f8a985b032]
link nz.ac.vuw.ecs.swen225.gp20.persistence.Levels to nz.ac.vuw.ecs.swen225.gp20.persistence.Persistence--><!--MD5=[887baf4d8fb905c999935f54b7ca99e3]
link nz.ac.vuw.ecs.swen225.gp20.persistence.Levels to nz.ac.vuw.ecs.swen225.gp20.persistence.LevelsTest--><text fill="#888888" font-family="sans-serif" font-size="10" lengthAdjust="spacingAndGlyphs" textLength="190" x="185.5" y="424.3809">UMLDoclet 2.0.12, PlantUML 1.2020.16</text><!--MD5=[976ba76e8d306b730591f58a4f53a8f1]
@startuml
    namespace nz.ac.vuw.ecs.swen225.gp20.persistence {

        class Levels [[Levels.html]] {
            {static} +loadLevel(int): Maze
            {static} +loadLevelFromFile(File): Maze
        }

        class Persistence [[Persistence.html]] {
            {static} #getObjectValues(JsonObject, String, boolean): TileObject[]
            {static} #getColourFromString(String): Colour
            {static} #getColourNameFromColour(Colour): String
            {static} +saveGameState(Maze, File): void
            {static} +loadGameState(File): Maze
            {static} +loadGameState(File, File): Maze
        }

        class LevelsTest [[LevelsTest.html]] {
            +Test_success_walls(Path): void
            +Test_success_size(Path): void
            +Test_success_lockedDoor(Path): void
            +Test_success_keys(Path): void
            +Test_success_variousTiles(Path): void
            +Test_success_chapPos(Path): void
            +Test_success_treasures(Path): void
            {static} #createTestFile(Path): File
        }

    }

    center footer UMLDoclet 2.0.12, PlantUML 1.2020.16
@enduml

PlantUML version 1.2020.16(Mon Aug 24 08:20:43 NZST 2020)
(APACHE source distribution)
Java Runtime: OpenJDK Runtime Environment
JVM: OpenJDK 64-Bit Server VM
Default Encoding: Cp1252
Language: en
Country: US
--></g></svg>