<?xml version="1.0" encoding="UTF-8" standalone="no"?><svg xmlns="http://www.w3.org/2000/svg" xmlns:xlink="http://www.w3.org/1999/xlink" contentScriptType="application/ecmascript" contentStyleType="text/css" height="285px" preserveAspectRatio="none" style="width:655px;height:285px;" version="1.1" viewBox="0 0 655 285" width="655px" zoomAndPan="magnify"><defs><filter height="300%" id="fwc5s39dbob6t" width="300%" x="-1" y="-1"><feGaussianBlur result="blurOut" stdDeviation="2.0"/><feColorMatrix in="blurOut" result="blurOut2" type="matrix" values="0 0 0 0 0 0 0 0 0 0 0 0 0 0 0 0 0 0 .4 0"/><feOffset dx="4.0" dy="4.0" in="blurOut2" result="blurOut3"/><feBlend in="SourceGraphic" in2="blurOut3" mode="normal"/></filter></defs><g><!--MD5=[7f216491e088e2422322f1ec6308a2f4]
cluster nz.ac.vuw.ecs.swen225.gp20.monkey.models--><polygon fill="#FFFFFF" filter="url(#fwc5s39dbob6t)" points="16,6,336,6,343,29.6094,633,29.6094,633,256,16,256,16,6" style="stroke: #000000; stroke-width: 1.5;"/><line style="stroke: #000000; stroke-width: 1.5;" x1="16" x2="343" y1="29.6094" y2="29.6094"/><text fill="#000000" font-family="sans-serif" font-size="14" font-weight="bold" lengthAdjust="spacingAndGlyphs" textLength="314" x="20" y="22.5332">nz.ac.vuw.ecs.swen225.gp20.monkey.models</text><!--MD5=[ed576768d9396efbab20e488e3cc58d9]
class nz.ac.vuw.ecs.swen225.gp20.monkey.models.Baboon--><a href="Baboon.html" target="_top" title="Baboon.html" xlink:actuate="onRequest" xlink:href="Baboon.html" xlink:show="new" xlink:title="Baboon.html" xlink:type="simple"><rect codeLine="3" fill="#FEFECE" filter="url(#fwc5s39dbob6t)" height="61.8359" id="nz.ac.vuw.ecs.swen225.gp20.monkey.models.Baboon" style="stroke: #A80036; stroke-width: 1.5;" width="163" x="32.5" y="178"/><ellipse cx="88.25" cy="194" fill="#ADD1B2" rx="11" ry="11" style="stroke: #A80036; stroke-width: 1.0;"/><path d="M91.0156,189.875 Q91.1719,189.6563 91.3594,189.5469 Q91.5469,189.4375 91.7656,189.4375 Q92.1406,189.4375 92.375,189.7031 Q92.6094,189.9531 92.6094,190.5625 L92.6094,192.0156 Q92.6094,192.625 92.375,192.8906 Q92.1406,193.1563 91.7656,193.1563 Q91.4219,193.1563 91.2188,192.9531 Q91.0156,192.7656 90.9063,192.25 Q90.8594,191.8906 90.6719,191.7031 Q90.3438,191.3281 89.7344,191.1094 Q89.125,190.8906 88.5,190.8906 Q87.7344,190.8906 87.0938,191.2188 Q86.4688,191.5469 85.9688,192.2969 Q85.4844,193.0469 85.4844,194.0781 L85.4844,195.1719 Q85.4844,196.4063 86.375,197.2344 Q87.2656,198.0469 88.8594,198.0469 Q89.7969,198.0469 90.4531,197.7969 Q90.8438,197.6406 91.2656,197.2031 Q91.5313,196.9375 91.6719,196.8594 Q91.8281,196.7813 92.0313,196.7813 Q92.3594,196.7813 92.6094,197.0469 Q92.875,197.2969 92.875,197.6406 Q92.875,197.9844 92.5313,198.3906 Q92.0313,198.9688 91.2344,199.2969 Q90.1563,199.75 88.8594,199.75 Q87.3438,199.75 86.1406,199.125 Q85.1563,198.625 84.4688,197.5625 Q83.7813,196.4844 83.7813,195.2031 L83.7813,194.0469 Q83.7813,192.7188 84.3906,191.5781 Q85.0156,190.4219 86.1094,189.8125 Q87.2031,189.1875 88.4375,189.1875 Q89.1719,189.1875 89.8125,189.3594 Q90.4688,189.5156 91.0156,189.875 Z "/><text fill="#000000" font-family="sans-serif" font-size="12" lengthAdjust="spacingAndGlyphs" textLength="43" x="108.75" y="198.9102">Baboon</text><line style="stroke: #A80036; stroke-width: 1.5;" x1="33.5" x2="194.5" y1="210" y2="210"/><line style="stroke: #A80036; stroke-width: 1.5;" x1="33.5" x2="194.5" y1="218" y2="218"/><ellipse cx="43.5" cy="229" fill="#84BE84" rx="3" ry="3" style="stroke: #038048; stroke-width: 1.0;"/><text fill="#000000" font-family="sans-serif" font-size="11" lengthAdjust="spacingAndGlyphs" textLength="137" x="52.5" y="233.4189">selectMove(Maze): Direction</text></a><!--MD5=[5da48268ca4bedbe9a6c9c96f43d42ab]
class nz.ac.vuw.ecs.swen225.gp20.monkey.models.Capuchin--><a href="Capuchin.html" target="_top" title="Capuchin.html" xlink:actuate="onRequest" xlink:href="Capuchin.html" xlink:show="new" xlink:title="Capuchin.html" xlink:type="simple"><rect codeLine="7" fill="#FEFECE" filter="url(#fwc5s39dbob6t)" height="48" id="nz.ac.vuw.ecs.swen225.gp20.monkey.models.Capuchin" style="stroke: #A80036; stroke-width: 1.5;" width="85" x="230.5" y="185"/><ellipse cx="245.5" cy="201" fill="#ADD1B2" rx="11" ry="11" style="stroke: #A80036; stroke-width: 1.0;"/><path d="M248.2656,196.875 Q248.4219,196.6563 248.6094,196.5469 Q248.7969,196.4375 249.0156,196.4375 Q249.3906,196.4375 249.625,196.7031 Q249.8594,196.9531 249.8594,197.5625 L249.8594,199.0156 Q249.8594,199.625 249.625,199.8906 Q249.3906,200.1563 249.0156,200.1563 Q248.6719,200.1563 248.4688,199.9531 Q248.2656,199.7656 248.1563,199.25 Q248.1094,198.8906 247.9219,198.7031 Q247.5938,198.3281 246.9844,198.1094 Q246.375,197.8906 245.75,197.8906 Q244.9844,197.8906 244.3438,198.2188 Q243.7188,198.5469 243.2188,199.2969 Q242.7344,200.0469 242.7344,201.0781 L242.7344,202.1719 Q242.7344,203.4063 243.625,204.2344 Q244.5156,205.0469 246.1094,205.0469 Q247.0469,205.0469 247.7031,204.7969 Q248.0938,204.6406 248.5156,204.2031 Q248.7813,203.9375 248.9219,203.8594 Q249.0781,203.7813 249.2813,203.7813 Q249.6094,203.7813 249.8594,204.0469 Q250.125,204.2969 250.125,204.6406 Q250.125,204.9844 249.7813,205.3906 Q249.2813,205.9688 248.4844,206.2969 Q247.4063,206.75 246.1094,206.75 Q244.5938,206.75 243.3906,206.125 Q242.4063,205.625 241.7188,204.5625 Q241.0313,203.4844 241.0313,202.2031 L241.0313,201.0469 Q241.0313,199.7188 241.6406,198.5781 Q242.2656,197.4219 243.3594,196.8125 Q244.4531,196.1875 245.6875,196.1875 Q246.4219,196.1875 247.0625,196.3594 Q247.7188,196.5156 248.2656,196.875 Z "/><text fill="#000000" font-family="sans-serif" font-size="12" lengthAdjust="spacingAndGlyphs" textLength="53" x="259.5" y="205.9102">Capuchin</text><line style="stroke: #A80036; stroke-width: 1.5;" x1="231.5" x2="314.5" y1="217" y2="217"/><line style="stroke: #A80036; stroke-width: 1.5;" x1="231.5" x2="314.5" y1="225" y2="225"/></a><!--MD5=[f319e61a35696cd16d59e4f04dcd711b]
class nz.ac.vuw.ecs.swen225.gp20.monkey.models.Gorilla--><a href="Gorilla.html" target="_top" title="Gorilla.html" xlink:actuate="onRequest" xlink:href="Gorilla.html" xlink:show="new" xlink:title="Gorilla.html" xlink:type="simple"><rect codeLine="9" fill="#FEFECE" filter="url(#fwc5s39dbob6t)" height="61.8359" id="nz.ac.vuw.ecs.swen225.gp20.monkey.models.Gorilla" style="stroke: #A80036; stroke-width: 1.5;" width="163" x="350.5" y="178"/><ellipse cx="409.75" cy="194" fill="#ADD1B2" rx="11" ry="11" style="stroke: #A80036; stroke-width: 1.0;"/><path d="M412.5156,189.875 Q412.6719,189.6563 412.8594,189.5469 Q413.0469,189.4375 413.2656,189.4375 Q413.6406,189.4375 413.875,189.7031 Q414.1094,189.9531 414.1094,190.5625 L414.1094,192.0156 Q414.1094,192.625 413.875,192.8906 Q413.6406,193.1563 413.2656,193.1563 Q412.9219,193.1563 412.7188,192.9531 Q412.5156,192.7656 412.4063,192.25 Q412.3594,191.8906 412.1719,191.7031 Q411.8438,191.3281 411.2344,191.1094 Q410.625,190.8906 410,190.8906 Q409.2344,190.8906 408.5938,191.2188 Q407.9688,191.5469 407.4688,192.2969 Q406.9844,193.0469 406.9844,194.0781 L406.9844,195.1719 Q406.9844,196.4063 407.875,197.2344 Q408.7656,198.0469 410.3594,198.0469 Q411.2969,198.0469 411.9531,197.7969 Q412.3438,197.6406 412.7656,197.2031 Q413.0313,196.9375 413.1719,196.8594 Q413.3281,196.7813 413.5313,196.7813 Q413.8594,196.7813 414.1094,197.0469 Q414.375,197.2969 414.375,197.6406 Q414.375,197.9844 414.0313,198.3906 Q413.5313,198.9688 412.7344,199.2969 Q411.6563,199.75 410.3594,199.75 Q408.8438,199.75 407.6406,199.125 Q406.6563,198.625 405.9688,197.5625 Q405.2813,196.4844 405.2813,195.2031 L405.2813,194.0469 Q405.2813,192.7188 405.8906,191.5781 Q406.5156,190.4219 407.6094,189.8125 Q408.7031,189.1875 409.9375,189.1875 Q410.6719,189.1875 411.3125,189.3594 Q411.9688,189.5156 412.5156,189.875 Z "/><text fill="#000000" font-family="sans-serif" font-size="12" lengthAdjust="spacingAndGlyphs" textLength="36" x="430.25" y="198.9102">Gorilla</text><line style="stroke: #A80036; stroke-width: 1.5;" x1="351.5" x2="512.5" y1="210" y2="210"/><line style="stroke: #A80036; stroke-width: 1.5;" x1="351.5" x2="512.5" y1="218" y2="218"/><ellipse cx="361.5" cy="229" fill="#84BE84" rx="3" ry="3" style="stroke: #038048; stroke-width: 1.0;"/><text fill="#000000" font-family="sans-serif" font-size="11" lengthAdjust="spacingAndGlyphs" textLength="137" x="370.5" y="233.4189">selectMove(Maze): Direction</text></a><!--MD5=[872a727b3d9d886d4dcc6463e1df2b08]
class nz.ac.vuw.ecs.swen225.gp20.monkey.models.Lemur--><a href="Lemur.html" target="_top" title="Lemur.html" xlink:actuate="onRequest" xlink:href="Lemur.html" xlink:show="new" xlink:title="Lemur.html" xlink:type="simple"><rect codeLine="13" fill="#FEFECE" filter="url(#fwc5s39dbob6t)" height="48" id="nz.ac.vuw.ecs.swen225.gp20.monkey.models.Lemur" style="stroke: #A80036; stroke-width: 1.5;" width="68" x="549" y="185"/><ellipse cx="564" cy="201" fill="#ADD1B2" rx="11" ry="11" style="stroke: #A80036; stroke-width: 1.0;"/><path d="M566.7656,196.875 Q566.9219,196.6563 567.1094,196.5469 Q567.2969,196.4375 567.5156,196.4375 Q567.8906,196.4375 568.125,196.7031 Q568.3594,196.9531 568.3594,197.5625 L568.3594,199.0156 Q568.3594,199.625 568.125,199.8906 Q567.8906,200.1563 567.5156,200.1563 Q567.1719,200.1563 566.9688,199.9531 Q566.7656,199.7656 566.6563,199.25 Q566.6094,198.8906 566.4219,198.7031 Q566.0938,198.3281 565.4844,198.1094 Q564.875,197.8906 564.25,197.8906 Q563.4844,197.8906 562.8438,198.2188 Q562.2188,198.5469 561.7188,199.2969 Q561.2344,200.0469 561.2344,201.0781 L561.2344,202.1719 Q561.2344,203.4063 562.125,204.2344 Q563.0156,205.0469 564.6094,205.0469 Q565.5469,205.0469 566.2031,204.7969 Q566.5938,204.6406 567.0156,204.2031 Q567.2813,203.9375 567.4219,203.8594 Q567.5781,203.7813 567.7813,203.7813 Q568.1094,203.7813 568.3594,204.0469 Q568.625,204.2969 568.625,204.6406 Q568.625,204.9844 568.2813,205.3906 Q567.7813,205.9688 566.9844,206.2969 Q565.9063,206.75 564.6094,206.75 Q563.0938,206.75 561.8906,206.125 Q560.9063,205.625 560.2188,204.5625 Q559.5313,203.4844 559.5313,202.2031 L559.5313,201.0469 Q559.5313,199.7188 560.1406,198.5781 Q560.7656,197.4219 561.8594,196.8125 Q562.9531,196.1875 564.1875,196.1875 Q564.9219,196.1875 565.5625,196.3594 Q566.2188,196.5156 566.7656,196.875 Z "/><text fill="#000000" font-family="sans-serif" font-size="12" lengthAdjust="spacingAndGlyphs" textLength="36" x="578" y="205.9102">Lemur</text><line style="stroke: #A80036; stroke-width: 1.5;" x1="550" x2="616" y1="217" y2="217"/><line style="stroke: #A80036; stroke-width: 1.5;" x1="550" x2="616" y1="225" y2="225"/></a><!--MD5=[405a6a87e2f78fd2f4fd82c4ebe95e5f]
class nz.ac.vuw.ecs.swen225.gp20.monkey.models.MonkeyAI--><a href="MonkeyAI.html" target="_top" title="MonkeyAI.html" xlink:actuate="onRequest" xlink:href="MonkeyAI.html" xlink:show="new" xlink:title="MonkeyAI.html" xlink:type="simple"><rect codeLine="15" fill="#FEFECE" filter="url(#fwc5s39dbob6t)" height="75.6719" id="nz.ac.vuw.ecs.swen225.gp20.monkey.models.MonkeyAI" style="stroke: #A80036; stroke-width: 1.5;" width="211" x="246.5" y="42"/><ellipse cx="320.25" cy="58" fill="#A9DCDF" rx="11" ry="11" style="stroke: #A80036; stroke-width: 1.0;"/><path d="M322.4375,59.7656 L318.2969,59.7656 L317.875,60.7969 L318.2969,60.7969 Q318.9063,60.7969 319.1719,61.0313 Q319.4375,61.2656 319.4375,61.6563 Q319.4375,62.0313 319.1719,62.2656 Q318.9063,62.5 318.2969,62.5 L316,62.5 Q315.3906,62.5 315.1406,62.2656 Q314.875,62.0313 314.875,61.6406 Q314.875,61.2656 315.1563,61.0313 Q315.4219,60.7813 316.0469,60.7969 L318.7188,54.1406 L317.6094,54.1406 Q317,54.1406 316.7344,53.9063 Q316.4688,53.6719 316.4688,53.2813 Q316.4688,52.9063 316.7344,52.6719 Q317,52.4375 317.6094,52.4375 L321.2813,52.4375 L324.6719,60.7969 Q325.2656,60.7969 325.4531,60.9375 Q325.8438,61.2031 325.8438,61.6563 Q325.8438,62.0313 325.5781,62.2656 Q325.3281,62.5 324.7188,62.5 L322.4219,62.5 Q321.8125,62.5 321.5469,62.2656 Q321.2813,62.0313 321.2813,61.6406 Q321.2813,61.2656 321.5469,61.0313 Q321.8125,60.7969 322.4219,60.7969 L322.8438,60.7969 L322.4375,59.7656 Z M321.7188,58.0625 L320.3594,54.6875 L318.9844,58.0625 L321.7188,58.0625 Z "/><text fill="#000000" font-family="sans-serif" font-size="12" font-style="italic" lengthAdjust="spacingAndGlyphs" textLength="55" x="340.75" y="62.9102">MonkeyAI</text><line style="stroke: #A80036; stroke-width: 1.5;" x1="247.5" x2="456.5" y1="74" y2="74"/><line style="stroke: #A80036; stroke-width: 1.5;" x1="247.5" x2="456.5" y1="82" y2="82"/><ellipse cx="257.5" cy="93" fill="#84BE84" rx="3" ry="3" style="stroke: #038048; stroke-width: 1.0;"/><text fill="#000000" font-family="sans-serif" font-size="11" lengthAdjust="spacingAndGlyphs" textLength="185" x="266.5" y="97.4189">MonkeyAI(int, int, int, int, int, int, int, int)</text><ellipse cx="257.5" cy="106.8359" fill="#84BE84" rx="3" ry="3" style="stroke: #038048; stroke-width: 1.0;"/><text fill="#000000" font-family="sans-serif" font-size="11" lengthAdjust="spacingAndGlyphs" textLength="137" x="266.5" y="111.2549">selectMove(Maze): Direction</text></a><!--MD5=[4426edb6ce2311c5314f13c99ede8124]
reverse link nz.ac.vuw.ecs.swen225.gp20.monkey.models.MonkeyAI to nz.ac.vuw.ecs.swen225.gp20.monkey.models.Baboon--><path codeLine="20" d="M264.45,127.72 C233.02,144.49 198.44,162.94 170.36,177.93 " fill="none" id="nz.ac.vuw.ecs.swen225.gp20.monkey.models.MonkeyAI-backto-nz.ac.vuw.ecs.swen225.gp20.monkey.models.Baboon" style="stroke: #A80036; stroke-width: 1.0;"/><polygon fill="none" points="261.58,121.31,282.52,118.08,268.17,133.67,261.58,121.31" style="stroke: #A80036; stroke-width: 1.0;"/><!--MD5=[86f8e18565184cf6b84835c8f01c70b4]
reverse link nz.ac.vuw.ecs.swen225.gp20.monkey.models.MonkeyAI to nz.ac.vuw.ecs.swen225.gp20.monkey.models.Capuchin--><path codeLine="21" d="M318.28,135.22 C307.51,152.53 296.15,170.79 287.5,184.68 " fill="none" id="nz.ac.vuw.ecs.swen225.gp20.monkey.models.MonkeyAI-backto-nz.ac.vuw.ecs.swen225.gp20.monkey.models.Capuchin" style="stroke: #A80036; stroke-width: 1.0;"/><polygon fill="none" points="312.43,131.36,328.94,118.08,324.32,138.75,312.43,131.36" style="stroke: #A80036; stroke-width: 1.0;"/><!--MD5=[f3b99279eb314a442113b26abf7e5d1a]
reverse link nz.ac.vuw.ecs.swen225.gp20.monkey.models.MonkeyAI to nz.ac.vuw.ecs.swen225.gp20.monkey.models.Gorilla--><path codeLine="22" d="M386.23,135.34 C395.42,149.93 405.03,165.18 413.06,177.93 " fill="none" id="nz.ac.vuw.ecs.swen225.gp20.monkey.models.MonkeyAI-backto-nz.ac.vuw.ecs.swen225.gp20.monkey.models.Gorilla" style="stroke: #A80036; stroke-width: 1.0;"/><polygon fill="none" points="380.09,138.73,375.35,118.08,391.94,131.27,380.09,138.73" style="stroke: #A80036; stroke-width: 1.0;"/><!--MD5=[774512f9be859150b3580319841f10f3]
reverse link nz.ac.vuw.ecs.swen225.gp20.monkey.models.MonkeyAI to nz.ac.vuw.ecs.swen225.gp20.monkey.models.Lemur--><path codeLine="23" d="M439.22,127.66 C468.49,143.48 501.24,161.35 531,178 C536.82,181.26 542.98,184.76 548.95,188.18 " fill="none" id="nz.ac.vuw.ecs.swen225.gp20.monkey.models.MonkeyAI-backto-nz.ac.vuw.ecs.swen225.gp20.monkey.models.Lemur" style="stroke: #A80036; stroke-width: 1.0;"/><polygon fill="none" points="435.79,133.77,421.51,118.11,442.44,121.45,435.79,133.77" style="stroke: #A80036; stroke-width: 1.0;"/><text fill="#888888" font-family="sans-serif" font-size="10" lengthAdjust="spacingAndGlyphs" textLength="190" x="223.5" y="272.3809">UMLDoclet 2.0.12, PlantUML 1.2020.16</text><!--MD5=[16f00089d4f5883d88276d0ae8f7e59b]
@startuml
    namespace nz.ac.vuw.ecs.swen225.gp20.monkey.models {

        class Baboon [[Baboon.html]] {
            +selectMove(Maze): Direction
        }

        class Capuchin [[Capuchin.html]]

        class Gorilla [[Gorilla.html]] {
            +selectMove(Maze): Direction
        }

        class Lemur [[Lemur.html]]

        abstract class MonkeyAI [[MonkeyAI.html]] {
            +MonkeyAI(int, int, int, int, int, int, int, int)
            +selectMove(Maze): Direction
        }

        MonkeyAI <|- - Baboon
        MonkeyAI <|- - Capuchin
        MonkeyAI <|- - Gorilla
        MonkeyAI <|- - Lemur
    }

    center footer UMLDoclet 2.0.12, PlantUML 1.2020.16
@enduml

PlantUML version 1.2020.16(Mon Aug 24 08:20:43 NZST 2020)
(APACHE source distribution)
Java Runtime: OpenJDK Runtime Environment
JVM: OpenJDK 64-Bit Server VM
Default Encoding: Cp1252
Language: en
Country: US
--></g></svg>